G04 #@! TF.GenerationSoftware,KiCad,Pcbnew,(5.1.4)-1*
G04 #@! TF.CreationDate,2020-04-16T14:38:52+01:00*
G04 #@! TF.ProjectId,sot23Breakout,736f7432-3342-4726-9561-6b6f75742e6b,rev?*
G04 #@! TF.SameCoordinates,Original*
G04 #@! TF.FileFunction,Other,Comment*
%FSLAX46Y46*%
G04 Gerber Fmt 4.6, Leading zero omitted, Abs format (unit mm)*
G04 Created by KiCad (PCBNEW (5.1.4)-1) date 2020-04-16 14:38:52*
%MOMM*%
%LPD*%
G04 APERTURE LIST*
%ADD10C,0.150000*%
G04 APERTURE END LIST*
D10*
X148955428Y-53554380D02*
X149288761Y-54554380D01*
X149622095Y-53554380D01*
X149907809Y-54506761D02*
X150050666Y-54554380D01*
X150288761Y-54554380D01*
X150384000Y-54506761D01*
X150431619Y-54459142D01*
X150479238Y-54363904D01*
X150479238Y-54268666D01*
X150431619Y-54173428D01*
X150384000Y-54125809D01*
X150288761Y-54078190D01*
X150098285Y-54030571D01*
X150003047Y-53982952D01*
X149955428Y-53935333D01*
X149907809Y-53840095D01*
X149907809Y-53744857D01*
X149955428Y-53649619D01*
X150003047Y-53602000D01*
X150098285Y-53554380D01*
X150336380Y-53554380D01*
X150479238Y-53602000D01*
X151336380Y-54506761D02*
X151241142Y-54554380D01*
X151050666Y-54554380D01*
X150955428Y-54506761D01*
X150907809Y-54459142D01*
X150860190Y-54363904D01*
X150860190Y-54078190D01*
X150907809Y-53982952D01*
X150955428Y-53935333D01*
X151050666Y-53887714D01*
X151241142Y-53887714D01*
X151336380Y-53935333D01*
X151907809Y-54554380D02*
X151812571Y-54506761D01*
X151764952Y-54459142D01*
X151717333Y-54363904D01*
X151717333Y-54078190D01*
X151764952Y-53982952D01*
X151812571Y-53935333D01*
X151907809Y-53887714D01*
X152050666Y-53887714D01*
X152145904Y-53935333D01*
X152193523Y-53982952D01*
X152241142Y-54078190D01*
X152241142Y-54363904D01*
X152193523Y-54459142D01*
X152145904Y-54506761D01*
X152050666Y-54554380D01*
X151907809Y-54554380D01*
X152669714Y-54554380D02*
X152669714Y-53887714D01*
X152669714Y-54078190D02*
X152717333Y-53982952D01*
X152764952Y-53935333D01*
X152860190Y-53887714D01*
X152955428Y-53887714D01*
X153669714Y-54506761D02*
X153574476Y-54554380D01*
X153384000Y-54554380D01*
X153288761Y-54506761D01*
X153241142Y-54411523D01*
X153241142Y-54030571D01*
X153288761Y-53935333D01*
X153384000Y-53887714D01*
X153574476Y-53887714D01*
X153669714Y-53935333D01*
X153717333Y-54030571D01*
X153717333Y-54125809D01*
X153241142Y-54221047D01*
X148701428Y-62698380D02*
X149034761Y-63698380D01*
X149368095Y-62698380D01*
X149653809Y-63650761D02*
X149796666Y-63698380D01*
X150034761Y-63698380D01*
X150130000Y-63650761D01*
X150177619Y-63603142D01*
X150225238Y-63507904D01*
X150225238Y-63412666D01*
X150177619Y-63317428D01*
X150130000Y-63269809D01*
X150034761Y-63222190D01*
X149844285Y-63174571D01*
X149749047Y-63126952D01*
X149701428Y-63079333D01*
X149653809Y-62984095D01*
X149653809Y-62888857D01*
X149701428Y-62793619D01*
X149749047Y-62746000D01*
X149844285Y-62698380D01*
X150082380Y-62698380D01*
X150225238Y-62746000D01*
X151082380Y-63650761D02*
X150987142Y-63698380D01*
X150796666Y-63698380D01*
X150701428Y-63650761D01*
X150653809Y-63603142D01*
X150606190Y-63507904D01*
X150606190Y-63222190D01*
X150653809Y-63126952D01*
X150701428Y-63079333D01*
X150796666Y-63031714D01*
X150987142Y-63031714D01*
X151082380Y-63079333D01*
X151653809Y-63698380D02*
X151558571Y-63650761D01*
X151510952Y-63603142D01*
X151463333Y-63507904D01*
X151463333Y-63222190D01*
X151510952Y-63126952D01*
X151558571Y-63079333D01*
X151653809Y-63031714D01*
X151796666Y-63031714D01*
X151891904Y-63079333D01*
X151939523Y-63126952D01*
X151987142Y-63222190D01*
X151987142Y-63507904D01*
X151939523Y-63603142D01*
X151891904Y-63650761D01*
X151796666Y-63698380D01*
X151653809Y-63698380D01*
X152415714Y-63698380D02*
X152415714Y-63031714D01*
X152415714Y-63222190D02*
X152463333Y-63126952D01*
X152510952Y-63079333D01*
X152606190Y-63031714D01*
X152701428Y-63031714D01*
X153415714Y-63650761D02*
X153320476Y-63698380D01*
X153130000Y-63698380D01*
X153034761Y-63650761D01*
X152987142Y-63555523D01*
X152987142Y-63174571D01*
X153034761Y-63079333D01*
X153130000Y-63031714D01*
X153320476Y-63031714D01*
X153415714Y-63079333D01*
X153463333Y-63174571D01*
X153463333Y-63269809D01*
X152987142Y-63365047D01*
X148701428Y-71842380D02*
X149034761Y-72842380D01*
X149368095Y-71842380D01*
X149653809Y-72794761D02*
X149796666Y-72842380D01*
X150034761Y-72842380D01*
X150130000Y-72794761D01*
X150177619Y-72747142D01*
X150225238Y-72651904D01*
X150225238Y-72556666D01*
X150177619Y-72461428D01*
X150130000Y-72413809D01*
X150034761Y-72366190D01*
X149844285Y-72318571D01*
X149749047Y-72270952D01*
X149701428Y-72223333D01*
X149653809Y-72128095D01*
X149653809Y-72032857D01*
X149701428Y-71937619D01*
X149749047Y-71890000D01*
X149844285Y-71842380D01*
X150082380Y-71842380D01*
X150225238Y-71890000D01*
X151082380Y-72794761D02*
X150987142Y-72842380D01*
X150796666Y-72842380D01*
X150701428Y-72794761D01*
X150653809Y-72747142D01*
X150606190Y-72651904D01*
X150606190Y-72366190D01*
X150653809Y-72270952D01*
X150701428Y-72223333D01*
X150796666Y-72175714D01*
X150987142Y-72175714D01*
X151082380Y-72223333D01*
X151653809Y-72842380D02*
X151558571Y-72794761D01*
X151510952Y-72747142D01*
X151463333Y-72651904D01*
X151463333Y-72366190D01*
X151510952Y-72270952D01*
X151558571Y-72223333D01*
X151653809Y-72175714D01*
X151796666Y-72175714D01*
X151891904Y-72223333D01*
X151939523Y-72270952D01*
X151987142Y-72366190D01*
X151987142Y-72651904D01*
X151939523Y-72747142D01*
X151891904Y-72794761D01*
X151796666Y-72842380D01*
X151653809Y-72842380D01*
X152415714Y-72842380D02*
X152415714Y-72175714D01*
X152415714Y-72366190D02*
X152463333Y-72270952D01*
X152510952Y-72223333D01*
X152606190Y-72175714D01*
X152701428Y-72175714D01*
X153415714Y-72794761D02*
X153320476Y-72842380D01*
X153130000Y-72842380D01*
X153034761Y-72794761D01*
X152987142Y-72699523D01*
X152987142Y-72318571D01*
X153034761Y-72223333D01*
X153130000Y-72175714D01*
X153320476Y-72175714D01*
X153415714Y-72223333D01*
X153463333Y-72318571D01*
X153463333Y-72413809D01*
X152987142Y-72509047D01*
X148701428Y-80986380D02*
X149034761Y-81986380D01*
X149368095Y-80986380D01*
X149653809Y-81938761D02*
X149796666Y-81986380D01*
X150034761Y-81986380D01*
X150130000Y-81938761D01*
X150177619Y-81891142D01*
X150225238Y-81795904D01*
X150225238Y-81700666D01*
X150177619Y-81605428D01*
X150130000Y-81557809D01*
X150034761Y-81510190D01*
X149844285Y-81462571D01*
X149749047Y-81414952D01*
X149701428Y-81367333D01*
X149653809Y-81272095D01*
X149653809Y-81176857D01*
X149701428Y-81081619D01*
X149749047Y-81034000D01*
X149844285Y-80986380D01*
X150082380Y-80986380D01*
X150225238Y-81034000D01*
X151082380Y-81938761D02*
X150987142Y-81986380D01*
X150796666Y-81986380D01*
X150701428Y-81938761D01*
X150653809Y-81891142D01*
X150606190Y-81795904D01*
X150606190Y-81510190D01*
X150653809Y-81414952D01*
X150701428Y-81367333D01*
X150796666Y-81319714D01*
X150987142Y-81319714D01*
X151082380Y-81367333D01*
X151653809Y-81986380D02*
X151558571Y-81938761D01*
X151510952Y-81891142D01*
X151463333Y-81795904D01*
X151463333Y-81510190D01*
X151510952Y-81414952D01*
X151558571Y-81367333D01*
X151653809Y-81319714D01*
X151796666Y-81319714D01*
X151891904Y-81367333D01*
X151939523Y-81414952D01*
X151987142Y-81510190D01*
X151987142Y-81795904D01*
X151939523Y-81891142D01*
X151891904Y-81938761D01*
X151796666Y-81986380D01*
X151653809Y-81986380D01*
X152415714Y-81986380D02*
X152415714Y-81319714D01*
X152415714Y-81510190D02*
X152463333Y-81414952D01*
X152510952Y-81367333D01*
X152606190Y-81319714D01*
X152701428Y-81319714D01*
X153415714Y-81938761D02*
X153320476Y-81986380D01*
X153130000Y-81986380D01*
X153034761Y-81938761D01*
X152987142Y-81843523D01*
X152987142Y-81462571D01*
X153034761Y-81367333D01*
X153130000Y-81319714D01*
X153320476Y-81319714D01*
X153415714Y-81367333D01*
X153463333Y-81462571D01*
X153463333Y-81557809D01*
X152987142Y-81653047D01*
X148701428Y-89876380D02*
X149034761Y-90876380D01*
X149368095Y-89876380D01*
X149653809Y-90828761D02*
X149796666Y-90876380D01*
X150034761Y-90876380D01*
X150130000Y-90828761D01*
X150177619Y-90781142D01*
X150225238Y-90685904D01*
X150225238Y-90590666D01*
X150177619Y-90495428D01*
X150130000Y-90447809D01*
X150034761Y-90400190D01*
X149844285Y-90352571D01*
X149749047Y-90304952D01*
X149701428Y-90257333D01*
X149653809Y-90162095D01*
X149653809Y-90066857D01*
X149701428Y-89971619D01*
X149749047Y-89924000D01*
X149844285Y-89876380D01*
X150082380Y-89876380D01*
X150225238Y-89924000D01*
X151082380Y-90828761D02*
X150987142Y-90876380D01*
X150796666Y-90876380D01*
X150701428Y-90828761D01*
X150653809Y-90781142D01*
X150606190Y-90685904D01*
X150606190Y-90400190D01*
X150653809Y-90304952D01*
X150701428Y-90257333D01*
X150796666Y-90209714D01*
X150987142Y-90209714D01*
X151082380Y-90257333D01*
X151653809Y-90876380D02*
X151558571Y-90828761D01*
X151510952Y-90781142D01*
X151463333Y-90685904D01*
X151463333Y-90400190D01*
X151510952Y-90304952D01*
X151558571Y-90257333D01*
X151653809Y-90209714D01*
X151796666Y-90209714D01*
X151891904Y-90257333D01*
X151939523Y-90304952D01*
X151987142Y-90400190D01*
X151987142Y-90685904D01*
X151939523Y-90781142D01*
X151891904Y-90828761D01*
X151796666Y-90876380D01*
X151653809Y-90876380D01*
X152415714Y-90876380D02*
X152415714Y-90209714D01*
X152415714Y-90400190D02*
X152463333Y-90304952D01*
X152510952Y-90257333D01*
X152606190Y-90209714D01*
X152701428Y-90209714D01*
X153415714Y-90828761D02*
X153320476Y-90876380D01*
X153130000Y-90876380D01*
X153034761Y-90828761D01*
X152987142Y-90733523D01*
X152987142Y-90352571D01*
X153034761Y-90257333D01*
X153130000Y-90209714D01*
X153320476Y-90209714D01*
X153415714Y-90257333D01*
X153463333Y-90352571D01*
X153463333Y-90447809D01*
X152987142Y-90543047D01*
X148701428Y-99274380D02*
X149034761Y-100274380D01*
X149368095Y-99274380D01*
X149653809Y-100226761D02*
X149796666Y-100274380D01*
X150034761Y-100274380D01*
X150130000Y-100226761D01*
X150177619Y-100179142D01*
X150225238Y-100083904D01*
X150225238Y-99988666D01*
X150177619Y-99893428D01*
X150130000Y-99845809D01*
X150034761Y-99798190D01*
X149844285Y-99750571D01*
X149749047Y-99702952D01*
X149701428Y-99655333D01*
X149653809Y-99560095D01*
X149653809Y-99464857D01*
X149701428Y-99369619D01*
X149749047Y-99322000D01*
X149844285Y-99274380D01*
X150082380Y-99274380D01*
X150225238Y-99322000D01*
X151082380Y-100226761D02*
X150987142Y-100274380D01*
X150796666Y-100274380D01*
X150701428Y-100226761D01*
X150653809Y-100179142D01*
X150606190Y-100083904D01*
X150606190Y-99798190D01*
X150653809Y-99702952D01*
X150701428Y-99655333D01*
X150796666Y-99607714D01*
X150987142Y-99607714D01*
X151082380Y-99655333D01*
X151653809Y-100274380D02*
X151558571Y-100226761D01*
X151510952Y-100179142D01*
X151463333Y-100083904D01*
X151463333Y-99798190D01*
X151510952Y-99702952D01*
X151558571Y-99655333D01*
X151653809Y-99607714D01*
X151796666Y-99607714D01*
X151891904Y-99655333D01*
X151939523Y-99702952D01*
X151987142Y-99798190D01*
X151987142Y-100083904D01*
X151939523Y-100179142D01*
X151891904Y-100226761D01*
X151796666Y-100274380D01*
X151653809Y-100274380D01*
X152415714Y-100274380D02*
X152415714Y-99607714D01*
X152415714Y-99798190D02*
X152463333Y-99702952D01*
X152510952Y-99655333D01*
X152606190Y-99607714D01*
X152701428Y-99607714D01*
X153415714Y-100226761D02*
X153320476Y-100274380D01*
X153130000Y-100274380D01*
X153034761Y-100226761D01*
X152987142Y-100131523D01*
X152987142Y-99750571D01*
X153034761Y-99655333D01*
X153130000Y-99607714D01*
X153320476Y-99607714D01*
X153415714Y-99655333D01*
X153463333Y-99750571D01*
X153463333Y-99845809D01*
X152987142Y-99941047D01*
X148701428Y-108926380D02*
X149034761Y-109926380D01*
X149368095Y-108926380D01*
X149653809Y-109878761D02*
X149796666Y-109926380D01*
X150034761Y-109926380D01*
X150130000Y-109878761D01*
X150177619Y-109831142D01*
X150225238Y-109735904D01*
X150225238Y-109640666D01*
X150177619Y-109545428D01*
X150130000Y-109497809D01*
X150034761Y-109450190D01*
X149844285Y-109402571D01*
X149749047Y-109354952D01*
X149701428Y-109307333D01*
X149653809Y-109212095D01*
X149653809Y-109116857D01*
X149701428Y-109021619D01*
X149749047Y-108974000D01*
X149844285Y-108926380D01*
X150082380Y-108926380D01*
X150225238Y-108974000D01*
X151082380Y-109878761D02*
X150987142Y-109926380D01*
X150796666Y-109926380D01*
X150701428Y-109878761D01*
X150653809Y-109831142D01*
X150606190Y-109735904D01*
X150606190Y-109450190D01*
X150653809Y-109354952D01*
X150701428Y-109307333D01*
X150796666Y-109259714D01*
X150987142Y-109259714D01*
X151082380Y-109307333D01*
X151653809Y-109926380D02*
X151558571Y-109878761D01*
X151510952Y-109831142D01*
X151463333Y-109735904D01*
X151463333Y-109450190D01*
X151510952Y-109354952D01*
X151558571Y-109307333D01*
X151653809Y-109259714D01*
X151796666Y-109259714D01*
X151891904Y-109307333D01*
X151939523Y-109354952D01*
X151987142Y-109450190D01*
X151987142Y-109735904D01*
X151939523Y-109831142D01*
X151891904Y-109878761D01*
X151796666Y-109926380D01*
X151653809Y-109926380D01*
X152415714Y-109926380D02*
X152415714Y-109259714D01*
X152415714Y-109450190D02*
X152463333Y-109354952D01*
X152510952Y-109307333D01*
X152606190Y-109259714D01*
X152701428Y-109259714D01*
X153415714Y-109878761D02*
X153320476Y-109926380D01*
X153130000Y-109926380D01*
X153034761Y-109878761D01*
X152987142Y-109783523D01*
X152987142Y-109402571D01*
X153034761Y-109307333D01*
X153130000Y-109259714D01*
X153320476Y-109259714D01*
X153415714Y-109307333D01*
X153463333Y-109402571D01*
X153463333Y-109497809D01*
X152987142Y-109593047D01*
X148701428Y-117562380D02*
X149034761Y-118562380D01*
X149368095Y-117562380D01*
X149653809Y-118514761D02*
X149796666Y-118562380D01*
X150034761Y-118562380D01*
X150130000Y-118514761D01*
X150177619Y-118467142D01*
X150225238Y-118371904D01*
X150225238Y-118276666D01*
X150177619Y-118181428D01*
X150130000Y-118133809D01*
X150034761Y-118086190D01*
X149844285Y-118038571D01*
X149749047Y-117990952D01*
X149701428Y-117943333D01*
X149653809Y-117848095D01*
X149653809Y-117752857D01*
X149701428Y-117657619D01*
X149749047Y-117610000D01*
X149844285Y-117562380D01*
X150082380Y-117562380D01*
X150225238Y-117610000D01*
X151082380Y-118514761D02*
X150987142Y-118562380D01*
X150796666Y-118562380D01*
X150701428Y-118514761D01*
X150653809Y-118467142D01*
X150606190Y-118371904D01*
X150606190Y-118086190D01*
X150653809Y-117990952D01*
X150701428Y-117943333D01*
X150796666Y-117895714D01*
X150987142Y-117895714D01*
X151082380Y-117943333D01*
X151653809Y-118562380D02*
X151558571Y-118514761D01*
X151510952Y-118467142D01*
X151463333Y-118371904D01*
X151463333Y-118086190D01*
X151510952Y-117990952D01*
X151558571Y-117943333D01*
X151653809Y-117895714D01*
X151796666Y-117895714D01*
X151891904Y-117943333D01*
X151939523Y-117990952D01*
X151987142Y-118086190D01*
X151987142Y-118371904D01*
X151939523Y-118467142D01*
X151891904Y-118514761D01*
X151796666Y-118562380D01*
X151653809Y-118562380D01*
X152415714Y-118562380D02*
X152415714Y-117895714D01*
X152415714Y-118086190D02*
X152463333Y-117990952D01*
X152510952Y-117943333D01*
X152606190Y-117895714D01*
X152701428Y-117895714D01*
X153415714Y-118514761D02*
X153320476Y-118562380D01*
X153130000Y-118562380D01*
X153034761Y-118514761D01*
X152987142Y-118419523D01*
X152987142Y-118038571D01*
X153034761Y-117943333D01*
X153130000Y-117895714D01*
X153320476Y-117895714D01*
X153415714Y-117943333D01*
X153463333Y-118038571D01*
X153463333Y-118133809D01*
X152987142Y-118229047D01*
X148955428Y-126706380D02*
X149288761Y-127706380D01*
X149622095Y-126706380D01*
X149907809Y-127658761D02*
X150050666Y-127706380D01*
X150288761Y-127706380D01*
X150384000Y-127658761D01*
X150431619Y-127611142D01*
X150479238Y-127515904D01*
X150479238Y-127420666D01*
X150431619Y-127325428D01*
X150384000Y-127277809D01*
X150288761Y-127230190D01*
X150098285Y-127182571D01*
X150003047Y-127134952D01*
X149955428Y-127087333D01*
X149907809Y-126992095D01*
X149907809Y-126896857D01*
X149955428Y-126801619D01*
X150003047Y-126754000D01*
X150098285Y-126706380D01*
X150336380Y-126706380D01*
X150479238Y-126754000D01*
X151336380Y-127658761D02*
X151241142Y-127706380D01*
X151050666Y-127706380D01*
X150955428Y-127658761D01*
X150907809Y-127611142D01*
X150860190Y-127515904D01*
X150860190Y-127230190D01*
X150907809Y-127134952D01*
X150955428Y-127087333D01*
X151050666Y-127039714D01*
X151241142Y-127039714D01*
X151336380Y-127087333D01*
X151907809Y-127706380D02*
X151812571Y-127658761D01*
X151764952Y-127611142D01*
X151717333Y-127515904D01*
X151717333Y-127230190D01*
X151764952Y-127134952D01*
X151812571Y-127087333D01*
X151907809Y-127039714D01*
X152050666Y-127039714D01*
X152145904Y-127087333D01*
X152193523Y-127134952D01*
X152241142Y-127230190D01*
X152241142Y-127515904D01*
X152193523Y-127611142D01*
X152145904Y-127658761D01*
X152050666Y-127706380D01*
X151907809Y-127706380D01*
X152669714Y-127706380D02*
X152669714Y-127039714D01*
X152669714Y-127230190D02*
X152717333Y-127134952D01*
X152764952Y-127087333D01*
X152860190Y-127039714D01*
X152955428Y-127039714D01*
X153669714Y-127658761D02*
X153574476Y-127706380D01*
X153384000Y-127706380D01*
X153288761Y-127658761D01*
X153241142Y-127563523D01*
X153241142Y-127182571D01*
X153288761Y-127087333D01*
X153384000Y-127039714D01*
X153574476Y-127039714D01*
X153669714Y-127087333D01*
X153717333Y-127182571D01*
X153717333Y-127277809D01*
X153241142Y-127373047D01*
X133715428Y-137628380D02*
X134048761Y-138628380D01*
X134382095Y-137628380D01*
X134667809Y-138580761D02*
X134810666Y-138628380D01*
X135048761Y-138628380D01*
X135144000Y-138580761D01*
X135191619Y-138533142D01*
X135239238Y-138437904D01*
X135239238Y-138342666D01*
X135191619Y-138247428D01*
X135144000Y-138199809D01*
X135048761Y-138152190D01*
X134858285Y-138104571D01*
X134763047Y-138056952D01*
X134715428Y-138009333D01*
X134667809Y-137914095D01*
X134667809Y-137818857D01*
X134715428Y-137723619D01*
X134763047Y-137676000D01*
X134858285Y-137628380D01*
X135096380Y-137628380D01*
X135239238Y-137676000D01*
X136096380Y-138580761D02*
X136001142Y-138628380D01*
X135810666Y-138628380D01*
X135715428Y-138580761D01*
X135667809Y-138533142D01*
X135620190Y-138437904D01*
X135620190Y-138152190D01*
X135667809Y-138056952D01*
X135715428Y-138009333D01*
X135810666Y-137961714D01*
X136001142Y-137961714D01*
X136096380Y-138009333D01*
X136667809Y-138628380D02*
X136572571Y-138580761D01*
X136524952Y-138533142D01*
X136477333Y-138437904D01*
X136477333Y-138152190D01*
X136524952Y-138056952D01*
X136572571Y-138009333D01*
X136667809Y-137961714D01*
X136810666Y-137961714D01*
X136905904Y-138009333D01*
X136953523Y-138056952D01*
X137001142Y-138152190D01*
X137001142Y-138437904D01*
X136953523Y-138533142D01*
X136905904Y-138580761D01*
X136810666Y-138628380D01*
X136667809Y-138628380D01*
X137429714Y-138628380D02*
X137429714Y-137961714D01*
X137429714Y-138152190D02*
X137477333Y-138056952D01*
X137524952Y-138009333D01*
X137620190Y-137961714D01*
X137715428Y-137961714D01*
X138429714Y-138580761D02*
X138334476Y-138628380D01*
X138144000Y-138628380D01*
X138048761Y-138580761D01*
X138001142Y-138485523D01*
X138001142Y-138104571D01*
X138048761Y-138009333D01*
X138144000Y-137961714D01*
X138334476Y-137961714D01*
X138429714Y-138009333D01*
X138477333Y-138104571D01*
X138477333Y-138199809D01*
X138001142Y-138295047D01*
X122031428Y-137628380D02*
X122364761Y-138628380D01*
X122698095Y-137628380D01*
X122983809Y-138580761D02*
X123126666Y-138628380D01*
X123364761Y-138628380D01*
X123460000Y-138580761D01*
X123507619Y-138533142D01*
X123555238Y-138437904D01*
X123555238Y-138342666D01*
X123507619Y-138247428D01*
X123460000Y-138199809D01*
X123364761Y-138152190D01*
X123174285Y-138104571D01*
X123079047Y-138056952D01*
X123031428Y-138009333D01*
X122983809Y-137914095D01*
X122983809Y-137818857D01*
X123031428Y-137723619D01*
X123079047Y-137676000D01*
X123174285Y-137628380D01*
X123412380Y-137628380D01*
X123555238Y-137676000D01*
X124412380Y-138580761D02*
X124317142Y-138628380D01*
X124126666Y-138628380D01*
X124031428Y-138580761D01*
X123983809Y-138533142D01*
X123936190Y-138437904D01*
X123936190Y-138152190D01*
X123983809Y-138056952D01*
X124031428Y-138009333D01*
X124126666Y-137961714D01*
X124317142Y-137961714D01*
X124412380Y-138009333D01*
X124983809Y-138628380D02*
X124888571Y-138580761D01*
X124840952Y-138533142D01*
X124793333Y-138437904D01*
X124793333Y-138152190D01*
X124840952Y-138056952D01*
X124888571Y-138009333D01*
X124983809Y-137961714D01*
X125126666Y-137961714D01*
X125221904Y-138009333D01*
X125269523Y-138056952D01*
X125317142Y-138152190D01*
X125317142Y-138437904D01*
X125269523Y-138533142D01*
X125221904Y-138580761D01*
X125126666Y-138628380D01*
X124983809Y-138628380D01*
X125745714Y-138628380D02*
X125745714Y-137961714D01*
X125745714Y-138152190D02*
X125793333Y-138056952D01*
X125840952Y-138009333D01*
X125936190Y-137961714D01*
X126031428Y-137961714D01*
X126745714Y-138580761D02*
X126650476Y-138628380D01*
X126460000Y-138628380D01*
X126364761Y-138580761D01*
X126317142Y-138485523D01*
X126317142Y-138104571D01*
X126364761Y-138009333D01*
X126460000Y-137961714D01*
X126650476Y-137961714D01*
X126745714Y-138009333D01*
X126793333Y-138104571D01*
X126793333Y-138199809D01*
X126317142Y-138295047D01*
X110347428Y-137628380D02*
X110680761Y-138628380D01*
X111014095Y-137628380D01*
X111299809Y-138580761D02*
X111442666Y-138628380D01*
X111680761Y-138628380D01*
X111776000Y-138580761D01*
X111823619Y-138533142D01*
X111871238Y-138437904D01*
X111871238Y-138342666D01*
X111823619Y-138247428D01*
X111776000Y-138199809D01*
X111680761Y-138152190D01*
X111490285Y-138104571D01*
X111395047Y-138056952D01*
X111347428Y-138009333D01*
X111299809Y-137914095D01*
X111299809Y-137818857D01*
X111347428Y-137723619D01*
X111395047Y-137676000D01*
X111490285Y-137628380D01*
X111728380Y-137628380D01*
X111871238Y-137676000D01*
X112728380Y-138580761D02*
X112633142Y-138628380D01*
X112442666Y-138628380D01*
X112347428Y-138580761D01*
X112299809Y-138533142D01*
X112252190Y-138437904D01*
X112252190Y-138152190D01*
X112299809Y-138056952D01*
X112347428Y-138009333D01*
X112442666Y-137961714D01*
X112633142Y-137961714D01*
X112728380Y-138009333D01*
X113299809Y-138628380D02*
X113204571Y-138580761D01*
X113156952Y-138533142D01*
X113109333Y-138437904D01*
X113109333Y-138152190D01*
X113156952Y-138056952D01*
X113204571Y-138009333D01*
X113299809Y-137961714D01*
X113442666Y-137961714D01*
X113537904Y-138009333D01*
X113585523Y-138056952D01*
X113633142Y-138152190D01*
X113633142Y-138437904D01*
X113585523Y-138533142D01*
X113537904Y-138580761D01*
X113442666Y-138628380D01*
X113299809Y-138628380D01*
X114061714Y-138628380D02*
X114061714Y-137961714D01*
X114061714Y-138152190D02*
X114109333Y-138056952D01*
X114156952Y-138009333D01*
X114252190Y-137961714D01*
X114347428Y-137961714D01*
X115061714Y-138580761D02*
X114966476Y-138628380D01*
X114776000Y-138628380D01*
X114680761Y-138580761D01*
X114633142Y-138485523D01*
X114633142Y-138104571D01*
X114680761Y-138009333D01*
X114776000Y-137961714D01*
X114966476Y-137961714D01*
X115061714Y-138009333D01*
X115109333Y-138104571D01*
X115109333Y-138199809D01*
X114633142Y-138295047D01*
X99171428Y-137628380D02*
X99504761Y-138628380D01*
X99838095Y-137628380D01*
X100123809Y-138580761D02*
X100266666Y-138628380D01*
X100504761Y-138628380D01*
X100600000Y-138580761D01*
X100647619Y-138533142D01*
X100695238Y-138437904D01*
X100695238Y-138342666D01*
X100647619Y-138247428D01*
X100600000Y-138199809D01*
X100504761Y-138152190D01*
X100314285Y-138104571D01*
X100219047Y-138056952D01*
X100171428Y-138009333D01*
X100123809Y-137914095D01*
X100123809Y-137818857D01*
X100171428Y-137723619D01*
X100219047Y-137676000D01*
X100314285Y-137628380D01*
X100552380Y-137628380D01*
X100695238Y-137676000D01*
X101552380Y-138580761D02*
X101457142Y-138628380D01*
X101266666Y-138628380D01*
X101171428Y-138580761D01*
X101123809Y-138533142D01*
X101076190Y-138437904D01*
X101076190Y-138152190D01*
X101123809Y-138056952D01*
X101171428Y-138009333D01*
X101266666Y-137961714D01*
X101457142Y-137961714D01*
X101552380Y-138009333D01*
X102123809Y-138628380D02*
X102028571Y-138580761D01*
X101980952Y-138533142D01*
X101933333Y-138437904D01*
X101933333Y-138152190D01*
X101980952Y-138056952D01*
X102028571Y-138009333D01*
X102123809Y-137961714D01*
X102266666Y-137961714D01*
X102361904Y-138009333D01*
X102409523Y-138056952D01*
X102457142Y-138152190D01*
X102457142Y-138437904D01*
X102409523Y-138533142D01*
X102361904Y-138580761D01*
X102266666Y-138628380D01*
X102123809Y-138628380D01*
X102885714Y-138628380D02*
X102885714Y-137961714D01*
X102885714Y-138152190D02*
X102933333Y-138056952D01*
X102980952Y-138009333D01*
X103076190Y-137961714D01*
X103171428Y-137961714D01*
X103885714Y-138580761D02*
X103790476Y-138628380D01*
X103600000Y-138628380D01*
X103504761Y-138580761D01*
X103457142Y-138485523D01*
X103457142Y-138104571D01*
X103504761Y-138009333D01*
X103600000Y-137961714D01*
X103790476Y-137961714D01*
X103885714Y-138009333D01*
X103933333Y-138104571D01*
X103933333Y-138199809D01*
X103457142Y-138295047D01*
X86979428Y-137374380D02*
X87312761Y-138374380D01*
X87646095Y-137374380D01*
X87931809Y-138326761D02*
X88074666Y-138374380D01*
X88312761Y-138374380D01*
X88408000Y-138326761D01*
X88455619Y-138279142D01*
X88503238Y-138183904D01*
X88503238Y-138088666D01*
X88455619Y-137993428D01*
X88408000Y-137945809D01*
X88312761Y-137898190D01*
X88122285Y-137850571D01*
X88027047Y-137802952D01*
X87979428Y-137755333D01*
X87931809Y-137660095D01*
X87931809Y-137564857D01*
X87979428Y-137469619D01*
X88027047Y-137422000D01*
X88122285Y-137374380D01*
X88360380Y-137374380D01*
X88503238Y-137422000D01*
X89360380Y-138326761D02*
X89265142Y-138374380D01*
X89074666Y-138374380D01*
X88979428Y-138326761D01*
X88931809Y-138279142D01*
X88884190Y-138183904D01*
X88884190Y-137898190D01*
X88931809Y-137802952D01*
X88979428Y-137755333D01*
X89074666Y-137707714D01*
X89265142Y-137707714D01*
X89360380Y-137755333D01*
X89931809Y-138374380D02*
X89836571Y-138326761D01*
X89788952Y-138279142D01*
X89741333Y-138183904D01*
X89741333Y-137898190D01*
X89788952Y-137802952D01*
X89836571Y-137755333D01*
X89931809Y-137707714D01*
X90074666Y-137707714D01*
X90169904Y-137755333D01*
X90217523Y-137802952D01*
X90265142Y-137898190D01*
X90265142Y-138183904D01*
X90217523Y-138279142D01*
X90169904Y-138326761D01*
X90074666Y-138374380D01*
X89931809Y-138374380D01*
X90693714Y-138374380D02*
X90693714Y-137707714D01*
X90693714Y-137898190D02*
X90741333Y-137802952D01*
X90788952Y-137755333D01*
X90884190Y-137707714D01*
X90979428Y-137707714D01*
X91693714Y-138326761D02*
X91598476Y-138374380D01*
X91408000Y-138374380D01*
X91312761Y-138326761D01*
X91265142Y-138231523D01*
X91265142Y-137850571D01*
X91312761Y-137755333D01*
X91408000Y-137707714D01*
X91598476Y-137707714D01*
X91693714Y-137755333D01*
X91741333Y-137850571D01*
X91741333Y-137945809D01*
X91265142Y-138041047D01*
X75041428Y-137374380D02*
X75374761Y-138374380D01*
X75708095Y-137374380D01*
X75993809Y-138326761D02*
X76136666Y-138374380D01*
X76374761Y-138374380D01*
X76470000Y-138326761D01*
X76517619Y-138279142D01*
X76565238Y-138183904D01*
X76565238Y-138088666D01*
X76517619Y-137993428D01*
X76470000Y-137945809D01*
X76374761Y-137898190D01*
X76184285Y-137850571D01*
X76089047Y-137802952D01*
X76041428Y-137755333D01*
X75993809Y-137660095D01*
X75993809Y-137564857D01*
X76041428Y-137469619D01*
X76089047Y-137422000D01*
X76184285Y-137374380D01*
X76422380Y-137374380D01*
X76565238Y-137422000D01*
X77422380Y-138326761D02*
X77327142Y-138374380D01*
X77136666Y-138374380D01*
X77041428Y-138326761D01*
X76993809Y-138279142D01*
X76946190Y-138183904D01*
X76946190Y-137898190D01*
X76993809Y-137802952D01*
X77041428Y-137755333D01*
X77136666Y-137707714D01*
X77327142Y-137707714D01*
X77422380Y-137755333D01*
X77993809Y-138374380D02*
X77898571Y-138326761D01*
X77850952Y-138279142D01*
X77803333Y-138183904D01*
X77803333Y-137898190D01*
X77850952Y-137802952D01*
X77898571Y-137755333D01*
X77993809Y-137707714D01*
X78136666Y-137707714D01*
X78231904Y-137755333D01*
X78279523Y-137802952D01*
X78327142Y-137898190D01*
X78327142Y-138183904D01*
X78279523Y-138279142D01*
X78231904Y-138326761D01*
X78136666Y-138374380D01*
X77993809Y-138374380D01*
X78755714Y-138374380D02*
X78755714Y-137707714D01*
X78755714Y-137898190D02*
X78803333Y-137802952D01*
X78850952Y-137755333D01*
X78946190Y-137707714D01*
X79041428Y-137707714D01*
X79755714Y-138326761D02*
X79660476Y-138374380D01*
X79470000Y-138374380D01*
X79374761Y-138326761D01*
X79327142Y-138231523D01*
X79327142Y-137850571D01*
X79374761Y-137755333D01*
X79470000Y-137707714D01*
X79660476Y-137707714D01*
X79755714Y-137755333D01*
X79803333Y-137850571D01*
X79803333Y-137945809D01*
X79327142Y-138041047D01*
X63865428Y-137374380D02*
X64198761Y-138374380D01*
X64532095Y-137374380D01*
X64817809Y-138326761D02*
X64960666Y-138374380D01*
X65198761Y-138374380D01*
X65294000Y-138326761D01*
X65341619Y-138279142D01*
X65389238Y-138183904D01*
X65389238Y-138088666D01*
X65341619Y-137993428D01*
X65294000Y-137945809D01*
X65198761Y-137898190D01*
X65008285Y-137850571D01*
X64913047Y-137802952D01*
X64865428Y-137755333D01*
X64817809Y-137660095D01*
X64817809Y-137564857D01*
X64865428Y-137469619D01*
X64913047Y-137422000D01*
X65008285Y-137374380D01*
X65246380Y-137374380D01*
X65389238Y-137422000D01*
X66246380Y-138326761D02*
X66151142Y-138374380D01*
X65960666Y-138374380D01*
X65865428Y-138326761D01*
X65817809Y-138279142D01*
X65770190Y-138183904D01*
X65770190Y-137898190D01*
X65817809Y-137802952D01*
X65865428Y-137755333D01*
X65960666Y-137707714D01*
X66151142Y-137707714D01*
X66246380Y-137755333D01*
X66817809Y-138374380D02*
X66722571Y-138326761D01*
X66674952Y-138279142D01*
X66627333Y-138183904D01*
X66627333Y-137898190D01*
X66674952Y-137802952D01*
X66722571Y-137755333D01*
X66817809Y-137707714D01*
X66960666Y-137707714D01*
X67055904Y-137755333D01*
X67103523Y-137802952D01*
X67151142Y-137898190D01*
X67151142Y-138183904D01*
X67103523Y-138279142D01*
X67055904Y-138326761D01*
X66960666Y-138374380D01*
X66817809Y-138374380D01*
X67579714Y-138374380D02*
X67579714Y-137707714D01*
X67579714Y-137898190D02*
X67627333Y-137802952D01*
X67674952Y-137755333D01*
X67770190Y-137707714D01*
X67865428Y-137707714D01*
X68579714Y-138326761D02*
X68484476Y-138374380D01*
X68294000Y-138374380D01*
X68198761Y-138326761D01*
X68151142Y-138231523D01*
X68151142Y-137850571D01*
X68198761Y-137755333D01*
X68294000Y-137707714D01*
X68484476Y-137707714D01*
X68579714Y-137755333D01*
X68627333Y-137850571D01*
X68627333Y-137945809D01*
X68151142Y-138041047D01*
M02*
