M48
; DRILL file {KiCad (5.1.4)-1} date 16/04/2020 14:38:54
; FORMAT={-:-/ absolute / inch / decimal}
; #@! TF.CreationDate,2020-04-16T14:38:54+01:00
; #@! TF.GenerationSoftware,Kicad,Pcbnew,(5.1.4)-1
; #@! TF.FileFunction,Plated,1,2,PTH
FMAT,2
INCH
T1C0.0157
T2C0.0394
%
G90
G05
T1
X2.38Y-1.82
X2.38Y-2.08
X2.38Y-2.18
X2.38Y-2.44
X2.38Y-2.54
X2.38Y-2.8
X2.38Y-2.9
X2.38Y-3.16
X2.38Y-3.26
X2.38Y-3.52
X2.38Y-3.62
X2.38Y-3.88
X2.38Y-3.98
X2.38Y-4.24
X2.38Y-4.34
X2.38Y-4.6
X2.38Y-4.7
X2.38Y-4.96
X2.38Y-5.06
X2.38Y-5.32
X2.8409Y-1.8203
X2.8409Y-2.0803
X2.8409Y-2.1803
X2.8409Y-2.4403
X2.8409Y-2.5403
X2.8409Y-2.8003
X2.8409Y-2.9003
X2.8409Y-3.1603
X2.8409Y-3.2603
X2.8409Y-3.5203
X2.8409Y-3.6203
X2.8409Y-3.8803
X2.8409Y-3.9803
X2.8409Y-4.2403
X2.8409Y-4.3403
X2.8409Y-4.6003
X2.8409Y-4.7003
X2.8409Y-4.9603
X2.8409Y-5.0603
X2.8409Y-5.3203
X3.3Y-1.82
X3.3Y-2.08
X3.3Y-2.18
X3.3Y-2.44
X3.3Y-2.54
X3.3Y-2.8
X3.3Y-2.9
X3.3Y-3.16
X3.3Y-3.26
X3.3Y-3.52
X3.3Y-3.62
X3.3Y-3.88
X3.3Y-3.98
X3.3Y-4.24
X3.3Y-4.34
X3.3Y-4.6
X3.3Y-4.7
X3.3Y-4.96
X3.3Y-5.06
X3.3Y-5.32
X3.7609Y-1.8203
X3.7609Y-2.0803
X3.7609Y-2.1803
X3.7609Y-2.4403
X3.7609Y-2.5403
X3.7609Y-2.8003
X3.7609Y-2.9003
X3.7609Y-3.1603
X3.7609Y-3.2603
X3.7609Y-3.5203
X3.7609Y-3.6203
X3.7609Y-3.8803
X3.7609Y-3.9803
X3.7609Y-4.2403
X3.7609Y-4.3403
X3.7609Y-4.6003
X3.7609Y-4.7003
X3.7609Y-4.9603
X3.7609Y-5.0603
X3.7609Y-5.3203
X4.22Y-1.82
X4.22Y-2.08
X4.22Y-2.18
X4.22Y-2.44
X4.22Y-2.54
X4.22Y-2.8
X4.22Y-2.9
X4.22Y-3.16
X4.22Y-3.26
X4.22Y-3.52
X4.22Y-3.62
X4.22Y-3.88
X4.22Y-3.98
X4.22Y-4.24
X4.22Y-4.34
X4.22Y-4.6
X4.22Y-4.7
X4.22Y-4.96
X4.22Y-5.06
X4.22Y-5.32
X4.6809Y-1.8203
X4.6809Y-2.0803
X4.6809Y-2.1803
X4.6809Y-2.4403
X4.6809Y-2.5403
X4.6809Y-2.8003
X4.6809Y-2.9003
X4.6809Y-3.1603
X4.6809Y-3.2603
X4.6809Y-3.5203
X4.6809Y-3.6203
X4.6809Y-3.8803
X4.6809Y-3.9803
X4.6809Y-4.2403
X4.6809Y-4.3403
X4.6809Y-4.6003
X4.6809Y-4.7003
X4.6809Y-4.9603
X4.6809Y-5.0603
X4.6809Y-5.3203
X5.14Y-1.82
X5.14Y-2.08
X5.14Y-2.18
X5.14Y-2.44
X5.14Y-2.54
X5.14Y-2.8
X5.14Y-2.9
X5.14Y-3.16
X5.14Y-3.26
X5.14Y-3.52
X5.14Y-3.62
X5.14Y-3.88
X5.14Y-3.98
X5.14Y-4.24
X5.14Y-4.34
X5.14Y-4.6
X5.14Y-4.7
X5.14Y-4.96
X5.14Y-5.06
X5.14Y-5.32
X5.6009Y-1.8203
X5.6009Y-2.0803
X5.6009Y-2.1803
X5.6009Y-2.4403
X5.6009Y-2.5403
X5.6009Y-2.8003
X5.6009Y-2.9003
X5.6009Y-3.1603
X5.6009Y-3.2603
X5.6009Y-3.5203
X5.6009Y-3.6203
X5.6009Y-3.8803
X5.6009Y-3.9803
X5.6009Y-4.2403
X5.6009Y-4.3403
X5.6009Y-4.6003
X5.6009Y-4.7003
X5.6009Y-4.9603
X5.6009Y-5.0603
X5.6009Y-5.3203
T2
X4.99Y-2.57
X4.99Y-2.67
X4.99Y-2.77
X4.07Y-2.57
X4.07Y-2.67
X4.07Y-2.77
X4.99Y-1.85
X4.99Y-1.95
X4.99Y-2.05
X4.8309Y-4.0103
X4.8309Y-4.1103
X4.8309Y-4.2103
X3.9109Y-2.9303
X3.9109Y-3.0303
X3.9109Y-3.1303
X2.9909Y-4.3703
X2.9909Y-4.4703
X2.9909Y-4.5703
X4.5309Y-2.9303
X4.5309Y-3.0303
X4.5309Y-3.1303
X2.53Y-2.21
X2.53Y-2.31
X2.53Y-2.41
X3.45Y-4.01
X3.45Y-4.11
X3.45Y-4.21
X5.7509Y-2.9303
X5.7509Y-3.0303
X5.7509Y-3.1303
X2.6909Y-4.3703
X2.6909Y-4.4703
X2.6909Y-4.5703
X4.8309Y-2.2103
X4.8309Y-2.3103
X4.8309Y-2.4103
X5.4509Y-4.0103
X5.4509Y-4.1103
X5.4509Y-4.2103
X5.4509Y-3.6503
X5.4509Y-3.7503
X5.4509Y-3.8503
X3.6109Y-4.3703
X3.6109Y-4.4703
X3.6109Y-4.5703
X4.07Y-4.37
X4.07Y-4.47
X4.07Y-4.57
X3.45Y-3.29
X3.45Y-3.39
X3.45Y-3.49
X4.37Y-2.57
X4.37Y-2.67
X4.37Y-2.77
X2.23Y-1.85
X2.23Y-1.95
X2.23Y-2.05
X5.4509Y-2.9303
X5.4509Y-3.0303
X5.4509Y-3.1303
X2.6909Y-3.2903
X2.6909Y-3.3903
X2.6909Y-3.4903
X4.99Y-4.37
X4.99Y-4.47
X4.99Y-4.57
X3.15Y-1.85
X3.15Y-1.95
X3.15Y-2.05
X3.15Y-4.37
X3.15Y-4.47
X3.15Y-4.57
X2.6909Y-3.6503
X2.6909Y-3.7503
X2.6909Y-3.8503
X2.9909Y-1.8503
X2.9909Y-1.9503
X2.9909Y-2.0503
X3.6109Y-2.9303
X3.6109Y-3.0303
X3.6109Y-3.1303
X5.7509Y-4.3703
X5.7509Y-4.4703
X5.7509Y-4.5703
X3.9109Y-3.6503
X3.9109Y-3.7503
X3.9109Y-3.8503
X2.6909Y-2.2103
X2.6909Y-2.3103
X2.6909Y-2.4103
X4.99Y-2.93
X4.99Y-3.03
X4.99Y-3.13
X5.4509Y-4.7303
X5.4509Y-4.8303
X5.4509Y-4.9303
X3.9109Y-1.8503
X3.9109Y-1.9503
X3.9109Y-2.0503
X3.6109Y-4.7303
X3.6109Y-4.8303
X3.6109Y-4.9303
X5.7509Y-5.0903
X5.7509Y-5.1903
X5.7509Y-5.2903
X2.23Y-4.37
X2.23Y-4.47
X2.23Y-4.57
X4.8309Y-3.6503
X4.8309Y-3.7503
X4.8309Y-3.8503
X5.29Y-1.85
X5.29Y-1.95
X5.29Y-2.05
X3.6109Y-5.0903
X3.6109Y-5.1903
X3.6109Y-5.2903
X2.23Y-3.29
X2.23Y-3.39
X2.23Y-3.49
X3.15Y-4.01
X3.15Y-4.11
X3.15Y-4.21
X2.9909Y-3.6503
X2.9909Y-3.7503
X2.9909Y-3.8503
X3.6109Y-1.8503
X3.6109Y-1.9503
X3.6109Y-2.0503
X3.45Y-5.09
X3.45Y-5.19
X3.45Y-5.29
X3.45Y-2.93
X3.45Y-3.03
X3.45Y-3.13
X2.53Y-4.73
X2.53Y-4.83
X2.53Y-4.93
X3.9109Y-4.7303
X3.9109Y-4.8303
X3.9109Y-4.9303
X5.4509Y-2.5703
X5.4509Y-2.6703
X5.4509Y-2.7703
X3.9109Y-2.2103
X3.9109Y-2.3103
X3.9109Y-2.4103
X4.8309Y-5.0903
X4.8309Y-5.1903
X4.8309Y-5.2903
X4.37Y-2.93
X4.37Y-3.03
X4.37Y-3.13
X2.9909Y-2.9303
X2.9909Y-3.0303
X2.9909Y-3.1303
X2.6909Y-4.7303
X2.6909Y-4.8303
X2.6909Y-4.9303
X4.07Y-2.21
X4.07Y-2.31
X4.07Y-2.41
X5.7509Y-3.2903
X5.7509Y-3.3903
X5.7509Y-3.4903
X4.5309Y-2.2103
X4.5309Y-2.3103
X4.5309Y-2.4103
X2.23Y-2.93
X2.23Y-3.03
X2.23Y-3.13
X3.45Y-4.73
X3.45Y-4.83
X3.45Y-4.93
X2.23Y-2.21
X2.23Y-2.31
X2.23Y-2.41
X5.29Y-4.01
X5.29Y-4.11
X5.29Y-4.21
X2.9909Y-3.2903
X2.9909Y-3.3903
X2.9909Y-3.4903
X5.4509Y-2.2103
X5.4509Y-2.3103
X5.4509Y-2.4103
X4.5309Y-3.2903
X4.5309Y-3.3903
X4.5309Y-3.4903
X4.07Y-4.73
X4.07Y-4.83
X4.07Y-4.93
X4.07Y-4.01
X4.07Y-4.11
X4.07Y-4.21
X3.15Y-2.57
X3.15Y-2.67
X3.15Y-2.77
X2.23Y-4.01
X2.23Y-4.11
X2.23Y-4.21
X3.9109Y-2.5703
X3.9109Y-2.6703
X3.9109Y-2.7703
X2.53Y-3.29
X2.53Y-3.39
X2.53Y-3.49
X3.9109Y-4.0103
X3.9109Y-4.1103
X3.9109Y-4.2103
X3.6109Y-3.2903
X3.6109Y-3.3903
X3.6109Y-3.4903
X3.6109Y-2.2103
X3.6109Y-2.3103
X3.6109Y-2.4103
X4.37Y-3.65
X4.37Y-3.75
X4.37Y-3.85
X3.9109Y-4.3703
X3.9109Y-4.4703
X3.9109Y-4.5703
X2.53Y-5.09
X2.53Y-5.19
X2.53Y-5.29
X3.6109Y-4.0103
X3.6109Y-4.1103
X3.6109Y-4.2103
X5.29Y-3.65
X5.29Y-3.75
X5.29Y-3.85
X5.29Y-2.21
X5.29Y-2.31
X5.29Y-2.41
X4.99Y-3.29
X4.99Y-3.39
X4.99Y-3.49
X5.7509Y-2.2103
X5.7509Y-2.3103
X5.7509Y-2.4103
X4.99Y-4.01
X4.99Y-4.11
X4.99Y-4.21
X3.45Y-1.85
X3.45Y-1.95
X3.45Y-2.05
X4.5309Y-5.0903
X4.5309Y-5.1903
X4.5309Y-5.2903
X2.23Y-4.73
X2.23Y-4.83
X2.23Y-4.93
X4.07Y-5.09
X4.07Y-5.19
X4.07Y-5.29
X5.4509Y-5.0903
X5.4509Y-5.1903
X5.4509Y-5.2903
X3.45Y-2.21
X3.45Y-2.31
X3.45Y-2.41
X5.7509Y-3.6503
X5.7509Y-3.7503
X5.7509Y-3.8503
X3.45Y-2.57
X3.45Y-2.67
X3.45Y-2.77
X4.8309Y-4.7303
X4.8309Y-4.8303
X4.8309Y-4.9303
X4.37Y-5.09
X4.37Y-5.19
X4.37Y-5.29
X2.53Y-4.01
X2.53Y-4.11
X2.53Y-4.21
X5.29Y-4.37
X5.29Y-4.47
X5.29Y-4.57
X3.6109Y-3.6503
X3.6109Y-3.7503
X3.6109Y-3.8503
X4.8309Y-1.8503
X4.8309Y-1.9503
X4.8309Y-2.0503
X4.5309Y-2.5703
X4.5309Y-2.6703
X4.5309Y-2.7703
X2.6909Y-2.5703
X2.6909Y-2.6703
X2.6909Y-2.7703
X4.37Y-4.01
X4.37Y-4.11
X4.37Y-4.21
X2.9909Y-2.5703
X2.9909Y-2.6703
X2.9909Y-2.7703
X2.53Y-1.85
X2.53Y-1.95
X2.53Y-2.05
X5.29Y-5.09
X5.29Y-5.19
X5.29Y-5.29
X4.8309Y-2.9303
X4.8309Y-3.0303
X4.8309Y-3.1303
X3.15Y-4.73
X3.15Y-4.83
X3.15Y-4.93
X4.37Y-2.21
X4.37Y-2.31
X4.37Y-2.41
X2.6909Y-4.0103
X2.6909Y-4.1103
X2.6909Y-4.2103
X5.29Y-2.93
X5.29Y-3.03
X5.29Y-3.13
X4.07Y-1.85
X4.07Y-1.95
X4.07Y-2.05
X3.15Y-5.09
X3.15Y-5.19
X3.15Y-5.29
X2.23Y-3.65
X2.23Y-3.75
X2.23Y-3.85
X5.4509Y-3.2903
X5.4509Y-3.3903
X5.4509Y-3.4903
X5.29Y-4.73
X5.29Y-4.83
X5.29Y-4.93
X5.7509Y-4.0103
X5.7509Y-4.1103
X5.7509Y-4.2103
X5.29Y-2.57
X5.29Y-2.67
X5.29Y-2.77
X3.45Y-4.37
X3.45Y-4.47
X3.45Y-4.57
X5.4509Y-1.8503
X5.4509Y-1.9503
X5.4509Y-2.0503
X2.53Y-2.57
X2.53Y-2.67
X2.53Y-2.77
X4.8309Y-3.2903
X4.8309Y-3.3903
X4.8309Y-3.4903
X4.8309Y-4.3703
X4.8309Y-4.4703
X4.8309Y-4.5703
X4.5309Y-4.0103
X4.5309Y-4.1103
X4.5309Y-4.2103
X2.53Y-2.93
X2.53Y-3.03
X2.53Y-3.13
X5.7509Y-1.8503
X5.7509Y-1.9503
X5.7509Y-2.0503
X2.9909Y-4.0103
X2.9909Y-4.1103
X2.9909Y-4.2103
X3.6109Y-2.5703
X3.6109Y-2.6703
X3.6109Y-2.7703
X4.37Y-3.29
X4.37Y-3.39
X4.37Y-3.49
X4.07Y-3.65
X4.07Y-3.75
X4.07Y-3.85
X4.99Y-2.21
X4.99Y-2.31
X4.99Y-2.41
X3.9109Y-3.2903
X3.9109Y-3.3903
X3.9109Y-3.4903
X2.23Y-2.57
X2.23Y-2.67
X2.23Y-2.77
X4.37Y-4.37
X4.37Y-4.47
X4.37Y-4.57
X4.07Y-3.29
X4.07Y-3.39
X4.07Y-3.49
X4.99Y-3.65
X4.99Y-3.75
X4.99Y-3.85
X3.15Y-3.29
X3.15Y-3.39
X3.15Y-3.49
X5.7509Y-4.7303
X5.7509Y-4.8303
X5.7509Y-4.9303
X5.4509Y-4.3703
X5.4509Y-4.4703
X5.4509Y-4.5703
X3.45Y-3.65
X3.45Y-3.75
X3.45Y-3.85
X3.9109Y-5.0903
X3.9109Y-5.1903
X3.9109Y-5.2903
X2.53Y-3.65
X2.53Y-3.75
X2.53Y-3.85
X2.6909Y-2.9303
X2.6909Y-3.0303
X2.6909Y-3.1303
X2.9909Y-4.7303
X2.9909Y-4.8303
X2.9909Y-4.9303
X4.5309Y-4.7303
X4.5309Y-4.8303
X4.5309Y-4.9303
X2.23Y-5.09
X2.23Y-5.19
X2.23Y-5.29
X4.5309Y-3.6503
X4.5309Y-3.7503
X4.5309Y-3.8503
X2.6909Y-1.8503
X2.6909Y-1.9503
X2.6909Y-2.0503
X2.9909Y-5.0903
X2.9909Y-5.1903
X2.9909Y-5.2903
X3.15Y-2.93
X3.15Y-3.03
X3.15Y-3.13
X3.15Y-2.21
X3.15Y-2.31
X3.15Y-2.41
X4.99Y-4.73
X4.99Y-4.83
X4.99Y-4.93
X2.53Y-4.37
X2.53Y-4.47
X2.53Y-4.57
X5.7509Y-2.5703
X5.7509Y-2.6703
X5.7509Y-2.7703
X4.5309Y-4.3703
X4.5309Y-4.4703
X4.5309Y-4.5703
X3.15Y-3.65
X3.15Y-3.75
X3.15Y-3.85
X4.37Y-1.85
X4.37Y-1.95
X4.37Y-2.05
X2.9909Y-2.2103
X2.9909Y-2.3103
X2.9909Y-2.4103
X2.6909Y-5.0903
X2.6909Y-5.1903
X2.6909Y-5.2903
X4.07Y-2.93
X4.07Y-3.03
X4.07Y-3.13
X4.8309Y-2.5703
X4.8309Y-2.6703
X4.8309Y-2.7703
X4.37Y-4.73
X4.37Y-4.83
X4.37Y-4.93
X4.5309Y-1.8503
X4.5309Y-1.9503
X4.5309Y-2.0503
X4.99Y-5.09
X4.99Y-5.19
X4.99Y-5.29
X5.29Y-3.29
X5.29Y-3.39
X5.29Y-3.49
T0
M30
