G04 #@! TF.GenerationSoftware,KiCad,Pcbnew,(5.1.4)-1*
G04 #@! TF.CreationDate,2020-04-16T14:38:51+01:00*
G04 #@! TF.ProjectId,sot23Breakout,736f7432-3342-4726-9561-6b6f75742e6b,rev?*
G04 #@! TF.SameCoordinates,Original*
G04 #@! TF.FileFunction,Legend,Top*
G04 #@! TF.FilePolarity,Positive*
%FSLAX46Y46*%
G04 Gerber Fmt 4.6, Leading zero omitted, Abs format (unit mm)*
G04 Created by KiCad (PCBNEW (5.1.4)-1) date 2020-04-16 14:38:51*
%MOMM*%
%LPD*%
G04 APERTURE LIST*
%ADD10C,0.120000*%
%ADD11C,0.150000*%
G04 APERTURE END LIST*
D10*
X113754000Y-62552000D02*
X116414000Y-62552000D01*
X113754000Y-57412000D02*
X113754000Y-62552000D01*
X116414000Y-57412000D02*
X116414000Y-62552000D01*
X113754000Y-57412000D02*
X116414000Y-57412000D01*
X113754000Y-56142000D02*
X113754000Y-54812000D01*
X113754000Y-54812000D02*
X115084000Y-54812000D01*
X102048000Y-53400000D02*
X104708000Y-53400000D01*
X102048000Y-48260000D02*
X102048000Y-53400000D01*
X104708000Y-48260000D02*
X104708000Y-53400000D01*
X102048000Y-48260000D02*
X104708000Y-48260000D01*
X102048000Y-46990000D02*
X102048000Y-45660000D01*
X102048000Y-45660000D02*
X103378000Y-45660000D01*
X121374000Y-54812000D02*
X122704000Y-54812000D01*
X121374000Y-56142000D02*
X121374000Y-54812000D01*
X121374000Y-57412000D02*
X124034000Y-57412000D01*
X124034000Y-57412000D02*
X124034000Y-62552000D01*
X121374000Y-57412000D02*
X121374000Y-62552000D01*
X121374000Y-62552000D02*
X124034000Y-62552000D01*
X74638000Y-62552000D02*
X77298000Y-62552000D01*
X74638000Y-57412000D02*
X74638000Y-62552000D01*
X77298000Y-57412000D02*
X77298000Y-62552000D01*
X74638000Y-57412000D02*
X77298000Y-57412000D01*
X74638000Y-56142000D02*
X74638000Y-54812000D01*
X74638000Y-54812000D02*
X75968000Y-54812000D01*
X121374000Y-53408000D02*
X124034000Y-53408000D01*
X121374000Y-48268000D02*
X121374000Y-53408000D01*
X124034000Y-48268000D02*
X124034000Y-53408000D01*
X121374000Y-48268000D02*
X124034000Y-48268000D01*
X121374000Y-46998000D02*
X121374000Y-45668000D01*
X121374000Y-45668000D02*
X122704000Y-45668000D01*
X67018000Y-53408000D02*
X69678000Y-53408000D01*
X67018000Y-48268000D02*
X67018000Y-53408000D01*
X69678000Y-48268000D02*
X69678000Y-53408000D01*
X67018000Y-48268000D02*
X69678000Y-48268000D01*
X67018000Y-46998000D02*
X67018000Y-45668000D01*
X67018000Y-45668000D02*
X68348000Y-45668000D01*
X86300000Y-62544000D02*
X88960000Y-62544000D01*
X86300000Y-57404000D02*
X86300000Y-62544000D01*
X88960000Y-57404000D02*
X88960000Y-62544000D01*
X86300000Y-57404000D02*
X88960000Y-57404000D01*
X86300000Y-56134000D02*
X86300000Y-54804000D01*
X86300000Y-54804000D02*
X87630000Y-54804000D01*
X96426000Y-57072000D02*
X93976000Y-57072000D01*
X94626000Y-60292000D02*
X96426000Y-60292000D01*
X86300000Y-45660000D02*
X87630000Y-45660000D01*
X86300000Y-46990000D02*
X86300000Y-45660000D01*
X86300000Y-48260000D02*
X88960000Y-48260000D01*
X88960000Y-48260000D02*
X88960000Y-53400000D01*
X86300000Y-48260000D02*
X86300000Y-53400000D01*
X86300000Y-53400000D02*
X88960000Y-53400000D01*
X67018000Y-54812000D02*
X68348000Y-54812000D01*
X67018000Y-56142000D02*
X67018000Y-54812000D01*
X67018000Y-57412000D02*
X69678000Y-57412000D01*
X69678000Y-57412000D02*
X69678000Y-62552000D01*
X67018000Y-57412000D02*
X67018000Y-62552000D01*
X67018000Y-62552000D02*
X69678000Y-62552000D01*
X125416000Y-62544000D02*
X128076000Y-62544000D01*
X125416000Y-57404000D02*
X125416000Y-62544000D01*
X128076000Y-57404000D02*
X128076000Y-62544000D01*
X125416000Y-57404000D02*
X128076000Y-57404000D01*
X125416000Y-56134000D02*
X125416000Y-54804000D01*
X125416000Y-54804000D02*
X126746000Y-54804000D01*
X84720000Y-47920000D02*
X82270000Y-47920000D01*
X82920000Y-51140000D02*
X84720000Y-51140000D01*
X90386000Y-62552000D02*
X93046000Y-62552000D01*
X90386000Y-57412000D02*
X90386000Y-62552000D01*
X93046000Y-57412000D02*
X93046000Y-62552000D01*
X90386000Y-57412000D02*
X93046000Y-57412000D01*
X90386000Y-56142000D02*
X90386000Y-54812000D01*
X90386000Y-54812000D02*
X91716000Y-54812000D01*
X55312000Y-45660000D02*
X56642000Y-45660000D01*
X55312000Y-46990000D02*
X55312000Y-45660000D01*
X55312000Y-48260000D02*
X57972000Y-48260000D01*
X57972000Y-48260000D02*
X57972000Y-53400000D01*
X55312000Y-48260000D02*
X55312000Y-53400000D01*
X55312000Y-53400000D02*
X57972000Y-53400000D01*
X73058000Y-47928000D02*
X70608000Y-47928000D01*
X71258000Y-51148000D02*
X73058000Y-51148000D01*
X117994000Y-51148000D02*
X119794000Y-51148000D01*
X119794000Y-47928000D02*
X117344000Y-47928000D01*
X133036000Y-53400000D02*
X135696000Y-53400000D01*
X133036000Y-48260000D02*
X133036000Y-53400000D01*
X135696000Y-48260000D02*
X135696000Y-53400000D01*
X133036000Y-48260000D02*
X135696000Y-48260000D01*
X133036000Y-46990000D02*
X133036000Y-45660000D01*
X133036000Y-45660000D02*
X134366000Y-45660000D01*
X98006000Y-54812000D02*
X99336000Y-54812000D01*
X98006000Y-56142000D02*
X98006000Y-54812000D01*
X98006000Y-57412000D02*
X100666000Y-57412000D01*
X100666000Y-57412000D02*
X100666000Y-62552000D01*
X98006000Y-57412000D02*
X98006000Y-62552000D01*
X98006000Y-62552000D02*
X100666000Y-62552000D01*
X133036000Y-54804000D02*
X134366000Y-54804000D01*
X133036000Y-56134000D02*
X133036000Y-54804000D01*
X133036000Y-57404000D02*
X135696000Y-57404000D01*
X135696000Y-57404000D02*
X135696000Y-62544000D01*
X133036000Y-57404000D02*
X133036000Y-62544000D01*
X133036000Y-62544000D02*
X135696000Y-62544000D01*
X131456000Y-57064000D02*
X129006000Y-57064000D01*
X129656000Y-60284000D02*
X131456000Y-60284000D01*
X74638000Y-45668000D02*
X75968000Y-45668000D01*
X74638000Y-46998000D02*
X74638000Y-45668000D01*
X74638000Y-48268000D02*
X77298000Y-48268000D01*
X77298000Y-48268000D02*
X77298000Y-53408000D01*
X74638000Y-48268000D02*
X74638000Y-53408000D01*
X74638000Y-53408000D02*
X77298000Y-53408000D01*
X137122000Y-53408000D02*
X139782000Y-53408000D01*
X137122000Y-48268000D02*
X137122000Y-53408000D01*
X139782000Y-48268000D02*
X139782000Y-53408000D01*
X137122000Y-48268000D02*
X139782000Y-48268000D01*
X137122000Y-46998000D02*
X137122000Y-45668000D01*
X137122000Y-45668000D02*
X138452000Y-45668000D01*
X144742000Y-45668000D02*
X146072000Y-45668000D01*
X144742000Y-46998000D02*
X144742000Y-45668000D01*
X144742000Y-48268000D02*
X147402000Y-48268000D01*
X147402000Y-48268000D02*
X147402000Y-53408000D01*
X144742000Y-48268000D02*
X144742000Y-53408000D01*
X144742000Y-53408000D02*
X147402000Y-53408000D01*
X71258000Y-60292000D02*
X73058000Y-60292000D01*
X73058000Y-57072000D02*
X70608000Y-57072000D01*
X109668000Y-45660000D02*
X110998000Y-45660000D01*
X109668000Y-46990000D02*
X109668000Y-45660000D01*
X109668000Y-48260000D02*
X112328000Y-48260000D01*
X112328000Y-48260000D02*
X112328000Y-53400000D01*
X109668000Y-48260000D02*
X109668000Y-53400000D01*
X109668000Y-53400000D02*
X112328000Y-53400000D01*
X62932000Y-54804000D02*
X64262000Y-54804000D01*
X62932000Y-56134000D02*
X62932000Y-54804000D01*
X62932000Y-57404000D02*
X65592000Y-57404000D01*
X65592000Y-57404000D02*
X65592000Y-62544000D01*
X62932000Y-57404000D02*
X62932000Y-62544000D01*
X62932000Y-62544000D02*
X65592000Y-62544000D01*
X141362000Y-60292000D02*
X143162000Y-60292000D01*
X143162000Y-57072000D02*
X140712000Y-57072000D01*
X119794000Y-57072000D02*
X117344000Y-57072000D01*
X117994000Y-60292000D02*
X119794000Y-60292000D01*
X129656000Y-51140000D02*
X131456000Y-51140000D01*
X131456000Y-47920000D02*
X129006000Y-47920000D01*
X55312000Y-62544000D02*
X57972000Y-62544000D01*
X55312000Y-57404000D02*
X55312000Y-62544000D01*
X57972000Y-57404000D02*
X57972000Y-62544000D01*
X55312000Y-57404000D02*
X57972000Y-57404000D01*
X55312000Y-56134000D02*
X55312000Y-54804000D01*
X55312000Y-54804000D02*
X56642000Y-54804000D01*
X125416000Y-45660000D02*
X126746000Y-45660000D01*
X125416000Y-46990000D02*
X125416000Y-45660000D01*
X125416000Y-48260000D02*
X128076000Y-48260000D01*
X128076000Y-48260000D02*
X128076000Y-53400000D01*
X125416000Y-48260000D02*
X125416000Y-53400000D01*
X125416000Y-53400000D02*
X128076000Y-53400000D01*
X109668000Y-62544000D02*
X112328000Y-62544000D01*
X109668000Y-57404000D02*
X109668000Y-62544000D01*
X112328000Y-57404000D02*
X112328000Y-62544000D01*
X109668000Y-57404000D02*
X112328000Y-57404000D01*
X109668000Y-56134000D02*
X109668000Y-54804000D01*
X109668000Y-54804000D02*
X110998000Y-54804000D01*
X102048000Y-54804000D02*
X103378000Y-54804000D01*
X102048000Y-56134000D02*
X102048000Y-54804000D01*
X102048000Y-57404000D02*
X104708000Y-57404000D01*
X104708000Y-57404000D02*
X104708000Y-62544000D01*
X102048000Y-57404000D02*
X102048000Y-62544000D01*
X102048000Y-62544000D02*
X104708000Y-62544000D01*
X113754000Y-45668000D02*
X115084000Y-45668000D01*
X113754000Y-46998000D02*
X113754000Y-45668000D01*
X113754000Y-48268000D02*
X116414000Y-48268000D01*
X116414000Y-48268000D02*
X116414000Y-53408000D01*
X113754000Y-48268000D02*
X113754000Y-53408000D01*
X113754000Y-53408000D02*
X116414000Y-53408000D01*
X61352000Y-57064000D02*
X58902000Y-57064000D01*
X59552000Y-60284000D02*
X61352000Y-60284000D01*
X78680000Y-54804000D02*
X80010000Y-54804000D01*
X78680000Y-56134000D02*
X78680000Y-54804000D01*
X78680000Y-57404000D02*
X81340000Y-57404000D01*
X81340000Y-57404000D02*
X81340000Y-62544000D01*
X78680000Y-57404000D02*
X78680000Y-62544000D01*
X78680000Y-62544000D02*
X81340000Y-62544000D01*
X108088000Y-47920000D02*
X105638000Y-47920000D01*
X106288000Y-51140000D02*
X108088000Y-51140000D01*
X94626000Y-51148000D02*
X96426000Y-51148000D01*
X96426000Y-47928000D02*
X93976000Y-47928000D01*
X143162000Y-47928000D02*
X140712000Y-47928000D01*
X141362000Y-51148000D02*
X143162000Y-51148000D01*
X106288000Y-60284000D02*
X108088000Y-60284000D01*
X108088000Y-57064000D02*
X105638000Y-57064000D01*
X82920000Y-60284000D02*
X84720000Y-60284000D01*
X84720000Y-57064000D02*
X82270000Y-57064000D01*
X137122000Y-54812000D02*
X138452000Y-54812000D01*
X137122000Y-56142000D02*
X137122000Y-54812000D01*
X137122000Y-57412000D02*
X139782000Y-57412000D01*
X139782000Y-57412000D02*
X139782000Y-62552000D01*
X137122000Y-57412000D02*
X137122000Y-62552000D01*
X137122000Y-62552000D02*
X139782000Y-62552000D01*
X90386000Y-45668000D02*
X91716000Y-45668000D01*
X90386000Y-46998000D02*
X90386000Y-45668000D01*
X90386000Y-48268000D02*
X93046000Y-48268000D01*
X93046000Y-48268000D02*
X93046000Y-53408000D01*
X90386000Y-48268000D02*
X90386000Y-53408000D01*
X90386000Y-53408000D02*
X93046000Y-53408000D01*
X98006000Y-53408000D02*
X100666000Y-53408000D01*
X98006000Y-48268000D02*
X98006000Y-53408000D01*
X100666000Y-48268000D02*
X100666000Y-53408000D01*
X98006000Y-48268000D02*
X100666000Y-48268000D01*
X98006000Y-46998000D02*
X98006000Y-45668000D01*
X98006000Y-45668000D02*
X99336000Y-45668000D01*
X62932000Y-53400000D02*
X65592000Y-53400000D01*
X62932000Y-48260000D02*
X62932000Y-53400000D01*
X65592000Y-48260000D02*
X65592000Y-53400000D01*
X62932000Y-48260000D02*
X65592000Y-48260000D01*
X62932000Y-46990000D02*
X62932000Y-45660000D01*
X62932000Y-45660000D02*
X64262000Y-45660000D01*
X78680000Y-53400000D02*
X81340000Y-53400000D01*
X78680000Y-48260000D02*
X78680000Y-53400000D01*
X81340000Y-48260000D02*
X81340000Y-53400000D01*
X78680000Y-48260000D02*
X81340000Y-48260000D01*
X78680000Y-46990000D02*
X78680000Y-45660000D01*
X78680000Y-45660000D02*
X80010000Y-45660000D01*
X144742000Y-62552000D02*
X147402000Y-62552000D01*
X144742000Y-57412000D02*
X144742000Y-62552000D01*
X147402000Y-57412000D02*
X147402000Y-62552000D01*
X144742000Y-57412000D02*
X147402000Y-57412000D01*
X144742000Y-56142000D02*
X144742000Y-54812000D01*
X144742000Y-54812000D02*
X146072000Y-54812000D01*
X59552000Y-51140000D02*
X61352000Y-51140000D01*
X61352000Y-47920000D02*
X58902000Y-47920000D01*
X61352000Y-66208000D02*
X58902000Y-66208000D01*
X59552000Y-69428000D02*
X61352000Y-69428000D01*
X59552000Y-87716000D02*
X61352000Y-87716000D01*
X61352000Y-84496000D02*
X58902000Y-84496000D01*
X102048000Y-89976000D02*
X104708000Y-89976000D01*
X102048000Y-84836000D02*
X102048000Y-89976000D01*
X104708000Y-84836000D02*
X104708000Y-89976000D01*
X102048000Y-84836000D02*
X104708000Y-84836000D01*
X102048000Y-83566000D02*
X102048000Y-82236000D01*
X102048000Y-82236000D02*
X103378000Y-82236000D01*
X108088000Y-84496000D02*
X105638000Y-84496000D01*
X106288000Y-87716000D02*
X108088000Y-87716000D01*
X133036000Y-89976000D02*
X135696000Y-89976000D01*
X133036000Y-84836000D02*
X133036000Y-89976000D01*
X135696000Y-84836000D02*
X135696000Y-89976000D01*
X133036000Y-84836000D02*
X135696000Y-84836000D01*
X133036000Y-83566000D02*
X133036000Y-82236000D01*
X133036000Y-82236000D02*
X134366000Y-82236000D01*
X86300000Y-82236000D02*
X87630000Y-82236000D01*
X86300000Y-83566000D02*
X86300000Y-82236000D01*
X86300000Y-84836000D02*
X88960000Y-84836000D01*
X88960000Y-84836000D02*
X88960000Y-89976000D01*
X86300000Y-84836000D02*
X86300000Y-89976000D01*
X86300000Y-89976000D02*
X88960000Y-89976000D01*
X73058000Y-84504000D02*
X70608000Y-84504000D01*
X71258000Y-87724000D02*
X73058000Y-87724000D01*
X78680000Y-89976000D02*
X81340000Y-89976000D01*
X78680000Y-84836000D02*
X78680000Y-89976000D01*
X81340000Y-84836000D02*
X81340000Y-89976000D01*
X78680000Y-84836000D02*
X81340000Y-84836000D01*
X78680000Y-83566000D02*
X78680000Y-82236000D01*
X78680000Y-82236000D02*
X80010000Y-82236000D01*
X67018000Y-89984000D02*
X69678000Y-89984000D01*
X67018000Y-84844000D02*
X67018000Y-89984000D01*
X69678000Y-84844000D02*
X69678000Y-89984000D01*
X67018000Y-84844000D02*
X69678000Y-84844000D01*
X67018000Y-83574000D02*
X67018000Y-82244000D01*
X67018000Y-82244000D02*
X68348000Y-82244000D01*
X109668000Y-82236000D02*
X110998000Y-82236000D01*
X109668000Y-83566000D02*
X109668000Y-82236000D01*
X109668000Y-84836000D02*
X112328000Y-84836000D01*
X112328000Y-84836000D02*
X112328000Y-89976000D01*
X109668000Y-84836000D02*
X109668000Y-89976000D01*
X109668000Y-89976000D02*
X112328000Y-89976000D01*
X117994000Y-87724000D02*
X119794000Y-87724000D01*
X119794000Y-84504000D02*
X117344000Y-84504000D01*
X62932000Y-89976000D02*
X65592000Y-89976000D01*
X62932000Y-84836000D02*
X62932000Y-89976000D01*
X65592000Y-84836000D02*
X65592000Y-89976000D01*
X62932000Y-84836000D02*
X65592000Y-84836000D01*
X62932000Y-83566000D02*
X62932000Y-82236000D01*
X62932000Y-82236000D02*
X64262000Y-82236000D01*
X84720000Y-84496000D02*
X82270000Y-84496000D01*
X82920000Y-87716000D02*
X84720000Y-87716000D01*
X121374000Y-89984000D02*
X124034000Y-89984000D01*
X121374000Y-84844000D02*
X121374000Y-89984000D01*
X124034000Y-84844000D02*
X124034000Y-89984000D01*
X121374000Y-84844000D02*
X124034000Y-84844000D01*
X121374000Y-83574000D02*
X121374000Y-82244000D01*
X121374000Y-82244000D02*
X122704000Y-82244000D01*
X94626000Y-87724000D02*
X96426000Y-87724000D01*
X96426000Y-84504000D02*
X93976000Y-84504000D01*
X74638000Y-82244000D02*
X75968000Y-82244000D01*
X74638000Y-83574000D02*
X74638000Y-82244000D01*
X74638000Y-84844000D02*
X77298000Y-84844000D01*
X77298000Y-84844000D02*
X77298000Y-89984000D01*
X74638000Y-84844000D02*
X74638000Y-89984000D01*
X74638000Y-89984000D02*
X77298000Y-89984000D01*
X55312000Y-82236000D02*
X56642000Y-82236000D01*
X55312000Y-83566000D02*
X55312000Y-82236000D01*
X55312000Y-84836000D02*
X57972000Y-84836000D01*
X57972000Y-84836000D02*
X57972000Y-89976000D01*
X55312000Y-84836000D02*
X55312000Y-89976000D01*
X55312000Y-89976000D02*
X57972000Y-89976000D01*
X137122000Y-89984000D02*
X139782000Y-89984000D01*
X137122000Y-84844000D02*
X137122000Y-89984000D01*
X139782000Y-84844000D02*
X139782000Y-89984000D01*
X137122000Y-84844000D02*
X139782000Y-84844000D01*
X137122000Y-83574000D02*
X137122000Y-82244000D01*
X137122000Y-82244000D02*
X138452000Y-82244000D01*
X144742000Y-82244000D02*
X146072000Y-82244000D01*
X144742000Y-83574000D02*
X144742000Y-82244000D01*
X144742000Y-84844000D02*
X147402000Y-84844000D01*
X147402000Y-84844000D02*
X147402000Y-89984000D01*
X144742000Y-84844000D02*
X144742000Y-89984000D01*
X144742000Y-89984000D02*
X147402000Y-89984000D01*
X98006000Y-80840000D02*
X100666000Y-80840000D01*
X98006000Y-75700000D02*
X98006000Y-80840000D01*
X100666000Y-75700000D02*
X100666000Y-80840000D01*
X98006000Y-75700000D02*
X100666000Y-75700000D01*
X98006000Y-74430000D02*
X98006000Y-73100000D01*
X98006000Y-73100000D02*
X99336000Y-73100000D01*
X125416000Y-73092000D02*
X126746000Y-73092000D01*
X125416000Y-74422000D02*
X125416000Y-73092000D01*
X125416000Y-75692000D02*
X128076000Y-75692000D01*
X128076000Y-75692000D02*
X128076000Y-80832000D01*
X125416000Y-75692000D02*
X125416000Y-80832000D01*
X125416000Y-80832000D02*
X128076000Y-80832000D01*
X90386000Y-73100000D02*
X91716000Y-73100000D01*
X90386000Y-74430000D02*
X90386000Y-73100000D01*
X90386000Y-75700000D02*
X93046000Y-75700000D01*
X93046000Y-75700000D02*
X93046000Y-80840000D01*
X90386000Y-75700000D02*
X90386000Y-80840000D01*
X90386000Y-80840000D02*
X93046000Y-80840000D01*
X121374000Y-80840000D02*
X124034000Y-80840000D01*
X121374000Y-75700000D02*
X121374000Y-80840000D01*
X124034000Y-75700000D02*
X124034000Y-80840000D01*
X121374000Y-75700000D02*
X124034000Y-75700000D01*
X121374000Y-74430000D02*
X121374000Y-73100000D01*
X121374000Y-73100000D02*
X122704000Y-73100000D01*
X67018000Y-80840000D02*
X69678000Y-80840000D01*
X67018000Y-75700000D02*
X67018000Y-80840000D01*
X69678000Y-75700000D02*
X69678000Y-80840000D01*
X67018000Y-75700000D02*
X69678000Y-75700000D01*
X67018000Y-74430000D02*
X67018000Y-73100000D01*
X67018000Y-73100000D02*
X68348000Y-73100000D01*
X86300000Y-73092000D02*
X87630000Y-73092000D01*
X86300000Y-74422000D02*
X86300000Y-73092000D01*
X86300000Y-75692000D02*
X88960000Y-75692000D01*
X88960000Y-75692000D02*
X88960000Y-80832000D01*
X86300000Y-75692000D02*
X86300000Y-80832000D01*
X86300000Y-80832000D02*
X88960000Y-80832000D01*
X74638000Y-73100000D02*
X75968000Y-73100000D01*
X74638000Y-74430000D02*
X74638000Y-73100000D01*
X74638000Y-75700000D02*
X77298000Y-75700000D01*
X77298000Y-75700000D02*
X77298000Y-80840000D01*
X74638000Y-75700000D02*
X74638000Y-80840000D01*
X74638000Y-80840000D02*
X77298000Y-80840000D01*
X94626000Y-78580000D02*
X96426000Y-78580000D01*
X96426000Y-75360000D02*
X93976000Y-75360000D01*
X129656000Y-78572000D02*
X131456000Y-78572000D01*
X131456000Y-75352000D02*
X129006000Y-75352000D01*
X113754000Y-73100000D02*
X115084000Y-73100000D01*
X113754000Y-74430000D02*
X113754000Y-73100000D01*
X113754000Y-75700000D02*
X116414000Y-75700000D01*
X116414000Y-75700000D02*
X116414000Y-80840000D01*
X113754000Y-75700000D02*
X113754000Y-80840000D01*
X113754000Y-80840000D02*
X116414000Y-80840000D01*
X133036000Y-80832000D02*
X135696000Y-80832000D01*
X133036000Y-75692000D02*
X133036000Y-80832000D01*
X135696000Y-75692000D02*
X135696000Y-80832000D01*
X133036000Y-75692000D02*
X135696000Y-75692000D01*
X133036000Y-74422000D02*
X133036000Y-73092000D01*
X133036000Y-73092000D02*
X134366000Y-73092000D01*
X143162000Y-84504000D02*
X140712000Y-84504000D01*
X141362000Y-87724000D02*
X143162000Y-87724000D01*
X74638000Y-71696000D02*
X77298000Y-71696000D01*
X74638000Y-66556000D02*
X74638000Y-71696000D01*
X77298000Y-66556000D02*
X77298000Y-71696000D01*
X74638000Y-66556000D02*
X77298000Y-66556000D01*
X74638000Y-65286000D02*
X74638000Y-63956000D01*
X74638000Y-63956000D02*
X75968000Y-63956000D01*
X55312000Y-71688000D02*
X57972000Y-71688000D01*
X55312000Y-66548000D02*
X55312000Y-71688000D01*
X57972000Y-66548000D02*
X57972000Y-71688000D01*
X55312000Y-66548000D02*
X57972000Y-66548000D01*
X55312000Y-65278000D02*
X55312000Y-63948000D01*
X55312000Y-63948000D02*
X56642000Y-63948000D01*
X137122000Y-63956000D02*
X138452000Y-63956000D01*
X137122000Y-65286000D02*
X137122000Y-63956000D01*
X137122000Y-66556000D02*
X139782000Y-66556000D01*
X139782000Y-66556000D02*
X139782000Y-71696000D01*
X137122000Y-66556000D02*
X137122000Y-71696000D01*
X137122000Y-71696000D02*
X139782000Y-71696000D01*
X119794000Y-66216000D02*
X117344000Y-66216000D01*
X117994000Y-69436000D02*
X119794000Y-69436000D01*
X102048000Y-63948000D02*
X103378000Y-63948000D01*
X102048000Y-65278000D02*
X102048000Y-63948000D01*
X102048000Y-66548000D02*
X104708000Y-66548000D01*
X104708000Y-66548000D02*
X104708000Y-71688000D01*
X102048000Y-66548000D02*
X102048000Y-71688000D01*
X102048000Y-71688000D02*
X104708000Y-71688000D01*
X86300000Y-71688000D02*
X88960000Y-71688000D01*
X86300000Y-66548000D02*
X86300000Y-71688000D01*
X88960000Y-66548000D02*
X88960000Y-71688000D01*
X86300000Y-66548000D02*
X88960000Y-66548000D01*
X86300000Y-65278000D02*
X86300000Y-63948000D01*
X86300000Y-63948000D02*
X87630000Y-63948000D01*
X144742000Y-71696000D02*
X147402000Y-71696000D01*
X144742000Y-66556000D02*
X144742000Y-71696000D01*
X147402000Y-66556000D02*
X147402000Y-71696000D01*
X144742000Y-66556000D02*
X147402000Y-66556000D01*
X144742000Y-65286000D02*
X144742000Y-63956000D01*
X144742000Y-63956000D02*
X146072000Y-63956000D01*
X133036000Y-63948000D02*
X134366000Y-63948000D01*
X133036000Y-65278000D02*
X133036000Y-63948000D01*
X133036000Y-66548000D02*
X135696000Y-66548000D01*
X135696000Y-66548000D02*
X135696000Y-71688000D01*
X133036000Y-66548000D02*
X133036000Y-71688000D01*
X133036000Y-71688000D02*
X135696000Y-71688000D01*
X121374000Y-63956000D02*
X122704000Y-63956000D01*
X121374000Y-65286000D02*
X121374000Y-63956000D01*
X121374000Y-66556000D02*
X124034000Y-66556000D01*
X124034000Y-66556000D02*
X124034000Y-71696000D01*
X121374000Y-66556000D02*
X121374000Y-71696000D01*
X121374000Y-71696000D02*
X124034000Y-71696000D01*
X67018000Y-63956000D02*
X68348000Y-63956000D01*
X67018000Y-65286000D02*
X67018000Y-63956000D01*
X67018000Y-66556000D02*
X69678000Y-66556000D01*
X69678000Y-66556000D02*
X69678000Y-71696000D01*
X67018000Y-66556000D02*
X67018000Y-71696000D01*
X67018000Y-71696000D02*
X69678000Y-71696000D01*
X71258000Y-69436000D02*
X73058000Y-69436000D01*
X73058000Y-66216000D02*
X70608000Y-66216000D01*
X82920000Y-69428000D02*
X84720000Y-69428000D01*
X84720000Y-66208000D02*
X82270000Y-66208000D01*
X109668000Y-71688000D02*
X112328000Y-71688000D01*
X109668000Y-66548000D02*
X109668000Y-71688000D01*
X112328000Y-66548000D02*
X112328000Y-71688000D01*
X109668000Y-66548000D02*
X112328000Y-66548000D01*
X109668000Y-65278000D02*
X109668000Y-63948000D01*
X109668000Y-63948000D02*
X110998000Y-63948000D01*
X141362000Y-69436000D02*
X143162000Y-69436000D01*
X143162000Y-66216000D02*
X140712000Y-66216000D01*
X106288000Y-69428000D02*
X108088000Y-69428000D01*
X108088000Y-66208000D02*
X105638000Y-66208000D01*
X62932000Y-63948000D02*
X64262000Y-63948000D01*
X62932000Y-65278000D02*
X62932000Y-63948000D01*
X62932000Y-66548000D02*
X65592000Y-66548000D01*
X65592000Y-66548000D02*
X65592000Y-71688000D01*
X62932000Y-66548000D02*
X62932000Y-71688000D01*
X62932000Y-71688000D02*
X65592000Y-71688000D01*
X78680000Y-63948000D02*
X80010000Y-63948000D01*
X78680000Y-65278000D02*
X78680000Y-63948000D01*
X78680000Y-66548000D02*
X81340000Y-66548000D01*
X81340000Y-66548000D02*
X81340000Y-71688000D01*
X78680000Y-66548000D02*
X78680000Y-71688000D01*
X78680000Y-71688000D02*
X81340000Y-71688000D01*
X96426000Y-66216000D02*
X93976000Y-66216000D01*
X94626000Y-69436000D02*
X96426000Y-69436000D01*
X62932000Y-80832000D02*
X65592000Y-80832000D01*
X62932000Y-75692000D02*
X62932000Y-80832000D01*
X65592000Y-75692000D02*
X65592000Y-80832000D01*
X62932000Y-75692000D02*
X65592000Y-75692000D01*
X62932000Y-74422000D02*
X62932000Y-73092000D01*
X62932000Y-73092000D02*
X64262000Y-73092000D01*
X108088000Y-75352000D02*
X105638000Y-75352000D01*
X106288000Y-78572000D02*
X108088000Y-78572000D01*
X73058000Y-75360000D02*
X70608000Y-75360000D01*
X71258000Y-78580000D02*
X73058000Y-78580000D01*
X131456000Y-66208000D02*
X129006000Y-66208000D01*
X129656000Y-69428000D02*
X131456000Y-69428000D01*
X143162000Y-75360000D02*
X140712000Y-75360000D01*
X141362000Y-78580000D02*
X143162000Y-78580000D01*
X55312000Y-73092000D02*
X56642000Y-73092000D01*
X55312000Y-74422000D02*
X55312000Y-73092000D01*
X55312000Y-75692000D02*
X57972000Y-75692000D01*
X57972000Y-75692000D02*
X57972000Y-80832000D01*
X55312000Y-75692000D02*
X55312000Y-80832000D01*
X55312000Y-80832000D02*
X57972000Y-80832000D01*
X137122000Y-80840000D02*
X139782000Y-80840000D01*
X137122000Y-75700000D02*
X137122000Y-80840000D01*
X139782000Y-75700000D02*
X139782000Y-80840000D01*
X137122000Y-75700000D02*
X139782000Y-75700000D01*
X137122000Y-74430000D02*
X137122000Y-73100000D01*
X137122000Y-73100000D02*
X138452000Y-73100000D01*
X125416000Y-71688000D02*
X128076000Y-71688000D01*
X125416000Y-66548000D02*
X125416000Y-71688000D01*
X128076000Y-66548000D02*
X128076000Y-71688000D01*
X125416000Y-66548000D02*
X128076000Y-66548000D01*
X125416000Y-65278000D02*
X125416000Y-63948000D01*
X125416000Y-63948000D02*
X126746000Y-63948000D01*
X144742000Y-73100000D02*
X146072000Y-73100000D01*
X144742000Y-74430000D02*
X144742000Y-73100000D01*
X144742000Y-75700000D02*
X147402000Y-75700000D01*
X147402000Y-75700000D02*
X147402000Y-80840000D01*
X144742000Y-75700000D02*
X144742000Y-80840000D01*
X144742000Y-80840000D02*
X147402000Y-80840000D01*
X109668000Y-73092000D02*
X110998000Y-73092000D01*
X109668000Y-74422000D02*
X109668000Y-73092000D01*
X109668000Y-75692000D02*
X112328000Y-75692000D01*
X112328000Y-75692000D02*
X112328000Y-80832000D01*
X109668000Y-75692000D02*
X109668000Y-80832000D01*
X109668000Y-80832000D02*
X112328000Y-80832000D01*
X90386000Y-71696000D02*
X93046000Y-71696000D01*
X90386000Y-66556000D02*
X90386000Y-71696000D01*
X93046000Y-66556000D02*
X93046000Y-71696000D01*
X90386000Y-66556000D02*
X93046000Y-66556000D01*
X90386000Y-65286000D02*
X90386000Y-63956000D01*
X90386000Y-63956000D02*
X91716000Y-63956000D01*
X78680000Y-80832000D02*
X81340000Y-80832000D01*
X78680000Y-75692000D02*
X78680000Y-80832000D01*
X81340000Y-75692000D02*
X81340000Y-80832000D01*
X78680000Y-75692000D02*
X81340000Y-75692000D01*
X78680000Y-74422000D02*
X78680000Y-73092000D01*
X78680000Y-73092000D02*
X80010000Y-73092000D01*
X84720000Y-75352000D02*
X82270000Y-75352000D01*
X82920000Y-78572000D02*
X84720000Y-78572000D01*
X98006000Y-63956000D02*
X99336000Y-63956000D01*
X98006000Y-65286000D02*
X98006000Y-63956000D01*
X98006000Y-66556000D02*
X100666000Y-66556000D01*
X100666000Y-66556000D02*
X100666000Y-71696000D01*
X98006000Y-66556000D02*
X98006000Y-71696000D01*
X98006000Y-71696000D02*
X100666000Y-71696000D01*
X102048000Y-80832000D02*
X104708000Y-80832000D01*
X102048000Y-75692000D02*
X102048000Y-80832000D01*
X104708000Y-75692000D02*
X104708000Y-80832000D01*
X102048000Y-75692000D02*
X104708000Y-75692000D01*
X102048000Y-74422000D02*
X102048000Y-73092000D01*
X102048000Y-73092000D02*
X103378000Y-73092000D01*
X113754000Y-71696000D02*
X116414000Y-71696000D01*
X113754000Y-66556000D02*
X113754000Y-71696000D01*
X116414000Y-66556000D02*
X116414000Y-71696000D01*
X113754000Y-66556000D02*
X116414000Y-66556000D01*
X113754000Y-65286000D02*
X113754000Y-63956000D01*
X113754000Y-63956000D02*
X115084000Y-63956000D01*
X59552000Y-78572000D02*
X61352000Y-78572000D01*
X61352000Y-75352000D02*
X58902000Y-75352000D01*
X117994000Y-78580000D02*
X119794000Y-78580000D01*
X119794000Y-75360000D02*
X117344000Y-75360000D01*
X141362000Y-96868000D02*
X143162000Y-96868000D01*
X143162000Y-93648000D02*
X140712000Y-93648000D01*
X55312000Y-99120000D02*
X57972000Y-99120000D01*
X55312000Y-93980000D02*
X55312000Y-99120000D01*
X57972000Y-93980000D02*
X57972000Y-99120000D01*
X55312000Y-93980000D02*
X57972000Y-93980000D01*
X55312000Y-92710000D02*
X55312000Y-91380000D01*
X55312000Y-91380000D02*
X56642000Y-91380000D01*
X137122000Y-91388000D02*
X138452000Y-91388000D01*
X137122000Y-92718000D02*
X137122000Y-91388000D01*
X137122000Y-93988000D02*
X139782000Y-93988000D01*
X139782000Y-93988000D02*
X139782000Y-99128000D01*
X137122000Y-93988000D02*
X137122000Y-99128000D01*
X137122000Y-99128000D02*
X139782000Y-99128000D01*
X144742000Y-99128000D02*
X147402000Y-99128000D01*
X144742000Y-93988000D02*
X144742000Y-99128000D01*
X147402000Y-93988000D02*
X147402000Y-99128000D01*
X144742000Y-93988000D02*
X147402000Y-93988000D01*
X144742000Y-92718000D02*
X144742000Y-91388000D01*
X144742000Y-91388000D02*
X146072000Y-91388000D01*
X61352000Y-93640000D02*
X58902000Y-93640000D01*
X59552000Y-96860000D02*
X61352000Y-96860000D01*
X62932000Y-91380000D02*
X64262000Y-91380000D01*
X62932000Y-92710000D02*
X62932000Y-91380000D01*
X62932000Y-93980000D02*
X65592000Y-93980000D01*
X65592000Y-93980000D02*
X65592000Y-99120000D01*
X62932000Y-93980000D02*
X62932000Y-99120000D01*
X62932000Y-99120000D02*
X65592000Y-99120000D01*
X119794000Y-93648000D02*
X117344000Y-93648000D01*
X117994000Y-96868000D02*
X119794000Y-96868000D01*
X98006000Y-89984000D02*
X100666000Y-89984000D01*
X98006000Y-84844000D02*
X98006000Y-89984000D01*
X100666000Y-84844000D02*
X100666000Y-89984000D01*
X98006000Y-84844000D02*
X100666000Y-84844000D01*
X98006000Y-83574000D02*
X98006000Y-82244000D01*
X98006000Y-82244000D02*
X99336000Y-82244000D01*
X125416000Y-82236000D02*
X126746000Y-82236000D01*
X125416000Y-83566000D02*
X125416000Y-82236000D01*
X125416000Y-84836000D02*
X128076000Y-84836000D01*
X128076000Y-84836000D02*
X128076000Y-89976000D01*
X125416000Y-84836000D02*
X125416000Y-89976000D01*
X125416000Y-89976000D02*
X128076000Y-89976000D01*
X109668000Y-99120000D02*
X112328000Y-99120000D01*
X109668000Y-93980000D02*
X109668000Y-99120000D01*
X112328000Y-93980000D02*
X112328000Y-99120000D01*
X109668000Y-93980000D02*
X112328000Y-93980000D01*
X109668000Y-92710000D02*
X109668000Y-91380000D01*
X109668000Y-91380000D02*
X110998000Y-91380000D01*
X129656000Y-87716000D02*
X131456000Y-87716000D01*
X131456000Y-84496000D02*
X129006000Y-84496000D01*
X113754000Y-82244000D02*
X115084000Y-82244000D01*
X113754000Y-83574000D02*
X113754000Y-82244000D01*
X113754000Y-84844000D02*
X116414000Y-84844000D01*
X116414000Y-84844000D02*
X116414000Y-89984000D01*
X113754000Y-84844000D02*
X113754000Y-89984000D01*
X113754000Y-89984000D02*
X116414000Y-89984000D01*
X102048000Y-91380000D02*
X103378000Y-91380000D01*
X102048000Y-92710000D02*
X102048000Y-91380000D01*
X102048000Y-93980000D02*
X104708000Y-93980000D01*
X104708000Y-93980000D02*
X104708000Y-99120000D01*
X102048000Y-93980000D02*
X102048000Y-99120000D01*
X102048000Y-99120000D02*
X104708000Y-99120000D01*
X90386000Y-82244000D02*
X91716000Y-82244000D01*
X90386000Y-83574000D02*
X90386000Y-82244000D01*
X90386000Y-84844000D02*
X93046000Y-84844000D01*
X93046000Y-84844000D02*
X93046000Y-89984000D01*
X90386000Y-84844000D02*
X90386000Y-89984000D01*
X90386000Y-89984000D02*
X93046000Y-89984000D01*
X106288000Y-96860000D02*
X108088000Y-96860000D01*
X108088000Y-93640000D02*
X105638000Y-93640000D01*
X71258000Y-96868000D02*
X73058000Y-96868000D01*
X73058000Y-93648000D02*
X70608000Y-93648000D01*
X78680000Y-91380000D02*
X80010000Y-91380000D01*
X78680000Y-92710000D02*
X78680000Y-91380000D01*
X78680000Y-93980000D02*
X81340000Y-93980000D01*
X81340000Y-93980000D02*
X81340000Y-99120000D01*
X78680000Y-93980000D02*
X78680000Y-99120000D01*
X78680000Y-99120000D02*
X81340000Y-99120000D01*
X82920000Y-96860000D02*
X84720000Y-96860000D01*
X84720000Y-93640000D02*
X82270000Y-93640000D01*
X133036000Y-91380000D02*
X134366000Y-91380000D01*
X133036000Y-92710000D02*
X133036000Y-91380000D01*
X133036000Y-93980000D02*
X135696000Y-93980000D01*
X135696000Y-93980000D02*
X135696000Y-99120000D01*
X133036000Y-93980000D02*
X133036000Y-99120000D01*
X133036000Y-99120000D02*
X135696000Y-99120000D01*
X121374000Y-91388000D02*
X122704000Y-91388000D01*
X121374000Y-92718000D02*
X121374000Y-91388000D01*
X121374000Y-93988000D02*
X124034000Y-93988000D01*
X124034000Y-93988000D02*
X124034000Y-99128000D01*
X121374000Y-93988000D02*
X121374000Y-99128000D01*
X121374000Y-99128000D02*
X124034000Y-99128000D01*
X67018000Y-91388000D02*
X68348000Y-91388000D01*
X67018000Y-92718000D02*
X67018000Y-91388000D01*
X67018000Y-93988000D02*
X69678000Y-93988000D01*
X69678000Y-93988000D02*
X69678000Y-99128000D01*
X67018000Y-93988000D02*
X67018000Y-99128000D01*
X67018000Y-99128000D02*
X69678000Y-99128000D01*
X86300000Y-99120000D02*
X88960000Y-99120000D01*
X86300000Y-93980000D02*
X86300000Y-99120000D01*
X88960000Y-93980000D02*
X88960000Y-99120000D01*
X86300000Y-93980000D02*
X88960000Y-93980000D01*
X86300000Y-92710000D02*
X86300000Y-91380000D01*
X86300000Y-91380000D02*
X87630000Y-91380000D01*
X74638000Y-99128000D02*
X77298000Y-99128000D01*
X74638000Y-93988000D02*
X74638000Y-99128000D01*
X77298000Y-93988000D02*
X77298000Y-99128000D01*
X74638000Y-93988000D02*
X77298000Y-93988000D01*
X74638000Y-92718000D02*
X74638000Y-91388000D01*
X74638000Y-91388000D02*
X75968000Y-91388000D01*
X96426000Y-93648000D02*
X93976000Y-93648000D01*
X94626000Y-96868000D02*
X96426000Y-96868000D01*
X90386000Y-99128000D02*
X93046000Y-99128000D01*
X90386000Y-93988000D02*
X90386000Y-99128000D01*
X93046000Y-93988000D02*
X93046000Y-99128000D01*
X90386000Y-93988000D02*
X93046000Y-93988000D01*
X90386000Y-92718000D02*
X90386000Y-91388000D01*
X90386000Y-91388000D02*
X91716000Y-91388000D01*
X98006000Y-91388000D02*
X99336000Y-91388000D01*
X98006000Y-92718000D02*
X98006000Y-91388000D01*
X98006000Y-93988000D02*
X100666000Y-93988000D01*
X100666000Y-93988000D02*
X100666000Y-99128000D01*
X98006000Y-93988000D02*
X98006000Y-99128000D01*
X98006000Y-99128000D02*
X100666000Y-99128000D01*
X113754000Y-99128000D02*
X116414000Y-99128000D01*
X113754000Y-93988000D02*
X113754000Y-99128000D01*
X116414000Y-93988000D02*
X116414000Y-99128000D01*
X113754000Y-93988000D02*
X116414000Y-93988000D01*
X113754000Y-92718000D02*
X113754000Y-91388000D01*
X113754000Y-91388000D02*
X115084000Y-91388000D01*
X131456000Y-93640000D02*
X129006000Y-93640000D01*
X129656000Y-96860000D02*
X131456000Y-96860000D01*
X125416000Y-99120000D02*
X128076000Y-99120000D01*
X125416000Y-93980000D02*
X125416000Y-99120000D01*
X128076000Y-93980000D02*
X128076000Y-99120000D01*
X125416000Y-93980000D02*
X128076000Y-93980000D01*
X125416000Y-92710000D02*
X125416000Y-91380000D01*
X125416000Y-91380000D02*
X126746000Y-91380000D01*
X59552000Y-106004000D02*
X61352000Y-106004000D01*
X61352000Y-102784000D02*
X58902000Y-102784000D01*
X102048000Y-108264000D02*
X104708000Y-108264000D01*
X102048000Y-103124000D02*
X102048000Y-108264000D01*
X104708000Y-103124000D02*
X104708000Y-108264000D01*
X102048000Y-103124000D02*
X104708000Y-103124000D01*
X102048000Y-101854000D02*
X102048000Y-100524000D01*
X102048000Y-100524000D02*
X103378000Y-100524000D01*
X108088000Y-102784000D02*
X105638000Y-102784000D01*
X106288000Y-106004000D02*
X108088000Y-106004000D01*
X133036000Y-108264000D02*
X135696000Y-108264000D01*
X133036000Y-103124000D02*
X133036000Y-108264000D01*
X135696000Y-103124000D02*
X135696000Y-108264000D01*
X133036000Y-103124000D02*
X135696000Y-103124000D01*
X133036000Y-101854000D02*
X133036000Y-100524000D01*
X133036000Y-100524000D02*
X134366000Y-100524000D01*
X86300000Y-100524000D02*
X87630000Y-100524000D01*
X86300000Y-101854000D02*
X86300000Y-100524000D01*
X86300000Y-103124000D02*
X88960000Y-103124000D01*
X88960000Y-103124000D02*
X88960000Y-108264000D01*
X86300000Y-103124000D02*
X86300000Y-108264000D01*
X86300000Y-108264000D02*
X88960000Y-108264000D01*
X73058000Y-102792000D02*
X70608000Y-102792000D01*
X71258000Y-106012000D02*
X73058000Y-106012000D01*
X78680000Y-108264000D02*
X81340000Y-108264000D01*
X78680000Y-103124000D02*
X78680000Y-108264000D01*
X81340000Y-103124000D02*
X81340000Y-108264000D01*
X78680000Y-103124000D02*
X81340000Y-103124000D01*
X78680000Y-101854000D02*
X78680000Y-100524000D01*
X78680000Y-100524000D02*
X80010000Y-100524000D01*
X67018000Y-108272000D02*
X69678000Y-108272000D01*
X67018000Y-103132000D02*
X67018000Y-108272000D01*
X69678000Y-103132000D02*
X69678000Y-108272000D01*
X67018000Y-103132000D02*
X69678000Y-103132000D01*
X67018000Y-101862000D02*
X67018000Y-100532000D01*
X67018000Y-100532000D02*
X68348000Y-100532000D01*
X109668000Y-100524000D02*
X110998000Y-100524000D01*
X109668000Y-101854000D02*
X109668000Y-100524000D01*
X109668000Y-103124000D02*
X112328000Y-103124000D01*
X112328000Y-103124000D02*
X112328000Y-108264000D01*
X109668000Y-103124000D02*
X109668000Y-108264000D01*
X109668000Y-108264000D02*
X112328000Y-108264000D01*
X117994000Y-106012000D02*
X119794000Y-106012000D01*
X119794000Y-102792000D02*
X117344000Y-102792000D01*
X62932000Y-108264000D02*
X65592000Y-108264000D01*
X62932000Y-103124000D02*
X62932000Y-108264000D01*
X65592000Y-103124000D02*
X65592000Y-108264000D01*
X62932000Y-103124000D02*
X65592000Y-103124000D01*
X62932000Y-101854000D02*
X62932000Y-100524000D01*
X62932000Y-100524000D02*
X64262000Y-100524000D01*
X84720000Y-102784000D02*
X82270000Y-102784000D01*
X82920000Y-106004000D02*
X84720000Y-106004000D01*
X121374000Y-108272000D02*
X124034000Y-108272000D01*
X121374000Y-103132000D02*
X121374000Y-108272000D01*
X124034000Y-103132000D02*
X124034000Y-108272000D01*
X121374000Y-103132000D02*
X124034000Y-103132000D01*
X121374000Y-101862000D02*
X121374000Y-100532000D01*
X121374000Y-100532000D02*
X122704000Y-100532000D01*
X94626000Y-106012000D02*
X96426000Y-106012000D01*
X96426000Y-102792000D02*
X93976000Y-102792000D01*
X74638000Y-100532000D02*
X75968000Y-100532000D01*
X74638000Y-101862000D02*
X74638000Y-100532000D01*
X74638000Y-103132000D02*
X77298000Y-103132000D01*
X77298000Y-103132000D02*
X77298000Y-108272000D01*
X74638000Y-103132000D02*
X74638000Y-108272000D01*
X74638000Y-108272000D02*
X77298000Y-108272000D01*
X55312000Y-100524000D02*
X56642000Y-100524000D01*
X55312000Y-101854000D02*
X55312000Y-100524000D01*
X55312000Y-103124000D02*
X57972000Y-103124000D01*
X57972000Y-103124000D02*
X57972000Y-108264000D01*
X55312000Y-103124000D02*
X55312000Y-108264000D01*
X55312000Y-108264000D02*
X57972000Y-108264000D01*
X137122000Y-108272000D02*
X139782000Y-108272000D01*
X137122000Y-103132000D02*
X137122000Y-108272000D01*
X139782000Y-103132000D02*
X139782000Y-108272000D01*
X137122000Y-103132000D02*
X139782000Y-103132000D01*
X137122000Y-101862000D02*
X137122000Y-100532000D01*
X137122000Y-100532000D02*
X138452000Y-100532000D01*
X144742000Y-100532000D02*
X146072000Y-100532000D01*
X144742000Y-101862000D02*
X144742000Y-100532000D01*
X144742000Y-103132000D02*
X147402000Y-103132000D01*
X147402000Y-103132000D02*
X147402000Y-108272000D01*
X144742000Y-103132000D02*
X144742000Y-108272000D01*
X144742000Y-108272000D02*
X147402000Y-108272000D01*
X143162000Y-102792000D02*
X140712000Y-102792000D01*
X141362000Y-106012000D02*
X143162000Y-106012000D01*
X141362000Y-115156000D02*
X143162000Y-115156000D01*
X143162000Y-111936000D02*
X140712000Y-111936000D01*
X55312000Y-117408000D02*
X57972000Y-117408000D01*
X55312000Y-112268000D02*
X55312000Y-117408000D01*
X57972000Y-112268000D02*
X57972000Y-117408000D01*
X55312000Y-112268000D02*
X57972000Y-112268000D01*
X55312000Y-110998000D02*
X55312000Y-109668000D01*
X55312000Y-109668000D02*
X56642000Y-109668000D01*
X137122000Y-109676000D02*
X138452000Y-109676000D01*
X137122000Y-111006000D02*
X137122000Y-109676000D01*
X137122000Y-112276000D02*
X139782000Y-112276000D01*
X139782000Y-112276000D02*
X139782000Y-117416000D01*
X137122000Y-112276000D02*
X137122000Y-117416000D01*
X137122000Y-117416000D02*
X139782000Y-117416000D01*
X144742000Y-117416000D02*
X147402000Y-117416000D01*
X144742000Y-112276000D02*
X144742000Y-117416000D01*
X147402000Y-112276000D02*
X147402000Y-117416000D01*
X144742000Y-112276000D02*
X147402000Y-112276000D01*
X144742000Y-111006000D02*
X144742000Y-109676000D01*
X144742000Y-109676000D02*
X146072000Y-109676000D01*
X61352000Y-111928000D02*
X58902000Y-111928000D01*
X59552000Y-115148000D02*
X61352000Y-115148000D01*
X62932000Y-109668000D02*
X64262000Y-109668000D01*
X62932000Y-110998000D02*
X62932000Y-109668000D01*
X62932000Y-112268000D02*
X65592000Y-112268000D01*
X65592000Y-112268000D02*
X65592000Y-117408000D01*
X62932000Y-112268000D02*
X62932000Y-117408000D01*
X62932000Y-117408000D02*
X65592000Y-117408000D01*
X119794000Y-111936000D02*
X117344000Y-111936000D01*
X117994000Y-115156000D02*
X119794000Y-115156000D01*
X98006000Y-108272000D02*
X100666000Y-108272000D01*
X98006000Y-103132000D02*
X98006000Y-108272000D01*
X100666000Y-103132000D02*
X100666000Y-108272000D01*
X98006000Y-103132000D02*
X100666000Y-103132000D01*
X98006000Y-101862000D02*
X98006000Y-100532000D01*
X98006000Y-100532000D02*
X99336000Y-100532000D01*
X125416000Y-100524000D02*
X126746000Y-100524000D01*
X125416000Y-101854000D02*
X125416000Y-100524000D01*
X125416000Y-103124000D02*
X128076000Y-103124000D01*
X128076000Y-103124000D02*
X128076000Y-108264000D01*
X125416000Y-103124000D02*
X125416000Y-108264000D01*
X125416000Y-108264000D02*
X128076000Y-108264000D01*
X109668000Y-117408000D02*
X112328000Y-117408000D01*
X109668000Y-112268000D02*
X109668000Y-117408000D01*
X112328000Y-112268000D02*
X112328000Y-117408000D01*
X109668000Y-112268000D02*
X112328000Y-112268000D01*
X109668000Y-110998000D02*
X109668000Y-109668000D01*
X109668000Y-109668000D02*
X110998000Y-109668000D01*
X129656000Y-106004000D02*
X131456000Y-106004000D01*
X131456000Y-102784000D02*
X129006000Y-102784000D01*
X113754000Y-100532000D02*
X115084000Y-100532000D01*
X113754000Y-101862000D02*
X113754000Y-100532000D01*
X113754000Y-103132000D02*
X116414000Y-103132000D01*
X116414000Y-103132000D02*
X116414000Y-108272000D01*
X113754000Y-103132000D02*
X113754000Y-108272000D01*
X113754000Y-108272000D02*
X116414000Y-108272000D01*
X102048000Y-109668000D02*
X103378000Y-109668000D01*
X102048000Y-110998000D02*
X102048000Y-109668000D01*
X102048000Y-112268000D02*
X104708000Y-112268000D01*
X104708000Y-112268000D02*
X104708000Y-117408000D01*
X102048000Y-112268000D02*
X102048000Y-117408000D01*
X102048000Y-117408000D02*
X104708000Y-117408000D01*
X90386000Y-100532000D02*
X91716000Y-100532000D01*
X90386000Y-101862000D02*
X90386000Y-100532000D01*
X90386000Y-103132000D02*
X93046000Y-103132000D01*
X93046000Y-103132000D02*
X93046000Y-108272000D01*
X90386000Y-103132000D02*
X90386000Y-108272000D01*
X90386000Y-108272000D02*
X93046000Y-108272000D01*
X106288000Y-115148000D02*
X108088000Y-115148000D01*
X108088000Y-111928000D02*
X105638000Y-111928000D01*
X71258000Y-115156000D02*
X73058000Y-115156000D01*
X73058000Y-111936000D02*
X70608000Y-111936000D01*
X78680000Y-109668000D02*
X80010000Y-109668000D01*
X78680000Y-110998000D02*
X78680000Y-109668000D01*
X78680000Y-112268000D02*
X81340000Y-112268000D01*
X81340000Y-112268000D02*
X81340000Y-117408000D01*
X78680000Y-112268000D02*
X78680000Y-117408000D01*
X78680000Y-117408000D02*
X81340000Y-117408000D01*
X82920000Y-115148000D02*
X84720000Y-115148000D01*
X84720000Y-111928000D02*
X82270000Y-111928000D01*
X133036000Y-109668000D02*
X134366000Y-109668000D01*
X133036000Y-110998000D02*
X133036000Y-109668000D01*
X133036000Y-112268000D02*
X135696000Y-112268000D01*
X135696000Y-112268000D02*
X135696000Y-117408000D01*
X133036000Y-112268000D02*
X133036000Y-117408000D01*
X133036000Y-117408000D02*
X135696000Y-117408000D01*
X121374000Y-109676000D02*
X122704000Y-109676000D01*
X121374000Y-111006000D02*
X121374000Y-109676000D01*
X121374000Y-112276000D02*
X124034000Y-112276000D01*
X124034000Y-112276000D02*
X124034000Y-117416000D01*
X121374000Y-112276000D02*
X121374000Y-117416000D01*
X121374000Y-117416000D02*
X124034000Y-117416000D01*
X67018000Y-109676000D02*
X68348000Y-109676000D01*
X67018000Y-111006000D02*
X67018000Y-109676000D01*
X67018000Y-112276000D02*
X69678000Y-112276000D01*
X69678000Y-112276000D02*
X69678000Y-117416000D01*
X67018000Y-112276000D02*
X67018000Y-117416000D01*
X67018000Y-117416000D02*
X69678000Y-117416000D01*
X86300000Y-117408000D02*
X88960000Y-117408000D01*
X86300000Y-112268000D02*
X86300000Y-117408000D01*
X88960000Y-112268000D02*
X88960000Y-117408000D01*
X86300000Y-112268000D02*
X88960000Y-112268000D01*
X86300000Y-110998000D02*
X86300000Y-109668000D01*
X86300000Y-109668000D02*
X87630000Y-109668000D01*
X74638000Y-117416000D02*
X77298000Y-117416000D01*
X74638000Y-112276000D02*
X74638000Y-117416000D01*
X77298000Y-112276000D02*
X77298000Y-117416000D01*
X74638000Y-112276000D02*
X77298000Y-112276000D01*
X74638000Y-111006000D02*
X74638000Y-109676000D01*
X74638000Y-109676000D02*
X75968000Y-109676000D01*
X96426000Y-111936000D02*
X93976000Y-111936000D01*
X94626000Y-115156000D02*
X96426000Y-115156000D01*
X90386000Y-117416000D02*
X93046000Y-117416000D01*
X90386000Y-112276000D02*
X90386000Y-117416000D01*
X93046000Y-112276000D02*
X93046000Y-117416000D01*
X90386000Y-112276000D02*
X93046000Y-112276000D01*
X90386000Y-111006000D02*
X90386000Y-109676000D01*
X90386000Y-109676000D02*
X91716000Y-109676000D01*
X98006000Y-109676000D02*
X99336000Y-109676000D01*
X98006000Y-111006000D02*
X98006000Y-109676000D01*
X98006000Y-112276000D02*
X100666000Y-112276000D01*
X100666000Y-112276000D02*
X100666000Y-117416000D01*
X98006000Y-112276000D02*
X98006000Y-117416000D01*
X98006000Y-117416000D02*
X100666000Y-117416000D01*
X113754000Y-117416000D02*
X116414000Y-117416000D01*
X113754000Y-112276000D02*
X113754000Y-117416000D01*
X116414000Y-112276000D02*
X116414000Y-117416000D01*
X113754000Y-112276000D02*
X116414000Y-112276000D01*
X113754000Y-111006000D02*
X113754000Y-109676000D01*
X113754000Y-109676000D02*
X115084000Y-109676000D01*
X131456000Y-111928000D02*
X129006000Y-111928000D01*
X129656000Y-115148000D02*
X131456000Y-115148000D01*
X125416000Y-117408000D02*
X128076000Y-117408000D01*
X125416000Y-112268000D02*
X125416000Y-117408000D01*
X128076000Y-112268000D02*
X128076000Y-117408000D01*
X125416000Y-112268000D02*
X128076000Y-112268000D01*
X125416000Y-110998000D02*
X125416000Y-109668000D01*
X125416000Y-109668000D02*
X126746000Y-109668000D01*
X141362000Y-124300000D02*
X143162000Y-124300000D01*
X143162000Y-121080000D02*
X140712000Y-121080000D01*
X55312000Y-126552000D02*
X57972000Y-126552000D01*
X55312000Y-121412000D02*
X55312000Y-126552000D01*
X57972000Y-121412000D02*
X57972000Y-126552000D01*
X55312000Y-121412000D02*
X57972000Y-121412000D01*
X55312000Y-120142000D02*
X55312000Y-118812000D01*
X55312000Y-118812000D02*
X56642000Y-118812000D01*
X137122000Y-118820000D02*
X138452000Y-118820000D01*
X137122000Y-120150000D02*
X137122000Y-118820000D01*
X137122000Y-121420000D02*
X139782000Y-121420000D01*
X139782000Y-121420000D02*
X139782000Y-126560000D01*
X137122000Y-121420000D02*
X137122000Y-126560000D01*
X137122000Y-126560000D02*
X139782000Y-126560000D01*
X144742000Y-126560000D02*
X147402000Y-126560000D01*
X144742000Y-121420000D02*
X144742000Y-126560000D01*
X147402000Y-121420000D02*
X147402000Y-126560000D01*
X144742000Y-121420000D02*
X147402000Y-121420000D01*
X144742000Y-120150000D02*
X144742000Y-118820000D01*
X144742000Y-118820000D02*
X146072000Y-118820000D01*
X61352000Y-121072000D02*
X58902000Y-121072000D01*
X59552000Y-124292000D02*
X61352000Y-124292000D01*
X62932000Y-118812000D02*
X64262000Y-118812000D01*
X62932000Y-120142000D02*
X62932000Y-118812000D01*
X62932000Y-121412000D02*
X65592000Y-121412000D01*
X65592000Y-121412000D02*
X65592000Y-126552000D01*
X62932000Y-121412000D02*
X62932000Y-126552000D01*
X62932000Y-126552000D02*
X65592000Y-126552000D01*
X119794000Y-121080000D02*
X117344000Y-121080000D01*
X117994000Y-124300000D02*
X119794000Y-124300000D01*
X109668000Y-126552000D02*
X112328000Y-126552000D01*
X109668000Y-121412000D02*
X109668000Y-126552000D01*
X112328000Y-121412000D02*
X112328000Y-126552000D01*
X109668000Y-121412000D02*
X112328000Y-121412000D01*
X109668000Y-120142000D02*
X109668000Y-118812000D01*
X109668000Y-118812000D02*
X110998000Y-118812000D01*
X102048000Y-118812000D02*
X103378000Y-118812000D01*
X102048000Y-120142000D02*
X102048000Y-118812000D01*
X102048000Y-121412000D02*
X104708000Y-121412000D01*
X104708000Y-121412000D02*
X104708000Y-126552000D01*
X102048000Y-121412000D02*
X102048000Y-126552000D01*
X102048000Y-126552000D02*
X104708000Y-126552000D01*
X106288000Y-124292000D02*
X108088000Y-124292000D01*
X108088000Y-121072000D02*
X105638000Y-121072000D01*
X71258000Y-124300000D02*
X73058000Y-124300000D01*
X73058000Y-121080000D02*
X70608000Y-121080000D01*
X78680000Y-118812000D02*
X80010000Y-118812000D01*
X78680000Y-120142000D02*
X78680000Y-118812000D01*
X78680000Y-121412000D02*
X81340000Y-121412000D01*
X81340000Y-121412000D02*
X81340000Y-126552000D01*
X78680000Y-121412000D02*
X78680000Y-126552000D01*
X78680000Y-126552000D02*
X81340000Y-126552000D01*
X82920000Y-124292000D02*
X84720000Y-124292000D01*
X84720000Y-121072000D02*
X82270000Y-121072000D01*
X133036000Y-118812000D02*
X134366000Y-118812000D01*
X133036000Y-120142000D02*
X133036000Y-118812000D01*
X133036000Y-121412000D02*
X135696000Y-121412000D01*
X135696000Y-121412000D02*
X135696000Y-126552000D01*
X133036000Y-121412000D02*
X133036000Y-126552000D01*
X133036000Y-126552000D02*
X135696000Y-126552000D01*
X121374000Y-118820000D02*
X122704000Y-118820000D01*
X121374000Y-120150000D02*
X121374000Y-118820000D01*
X121374000Y-121420000D02*
X124034000Y-121420000D01*
X124034000Y-121420000D02*
X124034000Y-126560000D01*
X121374000Y-121420000D02*
X121374000Y-126560000D01*
X121374000Y-126560000D02*
X124034000Y-126560000D01*
X67018000Y-118820000D02*
X68348000Y-118820000D01*
X67018000Y-120150000D02*
X67018000Y-118820000D01*
X67018000Y-121420000D02*
X69678000Y-121420000D01*
X69678000Y-121420000D02*
X69678000Y-126560000D01*
X67018000Y-121420000D02*
X67018000Y-126560000D01*
X67018000Y-126560000D02*
X69678000Y-126560000D01*
X86300000Y-126552000D02*
X88960000Y-126552000D01*
X86300000Y-121412000D02*
X86300000Y-126552000D01*
X88960000Y-121412000D02*
X88960000Y-126552000D01*
X86300000Y-121412000D02*
X88960000Y-121412000D01*
X86300000Y-120142000D02*
X86300000Y-118812000D01*
X86300000Y-118812000D02*
X87630000Y-118812000D01*
X74638000Y-126560000D02*
X77298000Y-126560000D01*
X74638000Y-121420000D02*
X74638000Y-126560000D01*
X77298000Y-121420000D02*
X77298000Y-126560000D01*
X74638000Y-121420000D02*
X77298000Y-121420000D01*
X74638000Y-120150000D02*
X74638000Y-118820000D01*
X74638000Y-118820000D02*
X75968000Y-118820000D01*
X96426000Y-121080000D02*
X93976000Y-121080000D01*
X94626000Y-124300000D02*
X96426000Y-124300000D01*
X90386000Y-126560000D02*
X93046000Y-126560000D01*
X90386000Y-121420000D02*
X90386000Y-126560000D01*
X93046000Y-121420000D02*
X93046000Y-126560000D01*
X90386000Y-121420000D02*
X93046000Y-121420000D01*
X90386000Y-120150000D02*
X90386000Y-118820000D01*
X90386000Y-118820000D02*
X91716000Y-118820000D01*
X98006000Y-118820000D02*
X99336000Y-118820000D01*
X98006000Y-120150000D02*
X98006000Y-118820000D01*
X98006000Y-121420000D02*
X100666000Y-121420000D01*
X100666000Y-121420000D02*
X100666000Y-126560000D01*
X98006000Y-121420000D02*
X98006000Y-126560000D01*
X98006000Y-126560000D02*
X100666000Y-126560000D01*
X113754000Y-126560000D02*
X116414000Y-126560000D01*
X113754000Y-121420000D02*
X113754000Y-126560000D01*
X116414000Y-121420000D02*
X116414000Y-126560000D01*
X113754000Y-121420000D02*
X116414000Y-121420000D01*
X113754000Y-120150000D02*
X113754000Y-118820000D01*
X113754000Y-118820000D02*
X115084000Y-118820000D01*
X131456000Y-121072000D02*
X129006000Y-121072000D01*
X129656000Y-124292000D02*
X131456000Y-124292000D01*
X125416000Y-126552000D02*
X128076000Y-126552000D01*
X125416000Y-121412000D02*
X125416000Y-126552000D01*
X128076000Y-121412000D02*
X128076000Y-126552000D01*
X125416000Y-121412000D02*
X128076000Y-121412000D01*
X125416000Y-120142000D02*
X125416000Y-118812000D01*
X125416000Y-118812000D02*
X126746000Y-118812000D01*
X102048000Y-135696000D02*
X104708000Y-135696000D01*
X102048000Y-130556000D02*
X102048000Y-135696000D01*
X104708000Y-130556000D02*
X104708000Y-135696000D01*
X102048000Y-130556000D02*
X104708000Y-130556000D01*
X102048000Y-129286000D02*
X102048000Y-127956000D01*
X102048000Y-127956000D02*
X103378000Y-127956000D01*
X108088000Y-130216000D02*
X105638000Y-130216000D01*
X106288000Y-133436000D02*
X108088000Y-133436000D01*
X109668000Y-127956000D02*
X110998000Y-127956000D01*
X109668000Y-129286000D02*
X109668000Y-127956000D01*
X109668000Y-130556000D02*
X112328000Y-130556000D01*
X112328000Y-130556000D02*
X112328000Y-135696000D01*
X109668000Y-130556000D02*
X109668000Y-135696000D01*
X109668000Y-135696000D02*
X112328000Y-135696000D01*
X117994000Y-133444000D02*
X119794000Y-133444000D01*
X119794000Y-130224000D02*
X117344000Y-130224000D01*
X125416000Y-127956000D02*
X126746000Y-127956000D01*
X125416000Y-129286000D02*
X125416000Y-127956000D01*
X125416000Y-130556000D02*
X128076000Y-130556000D01*
X128076000Y-130556000D02*
X128076000Y-135696000D01*
X125416000Y-130556000D02*
X125416000Y-135696000D01*
X125416000Y-135696000D02*
X128076000Y-135696000D01*
X129656000Y-133436000D02*
X131456000Y-133436000D01*
X131456000Y-130216000D02*
X129006000Y-130216000D01*
X113754000Y-127964000D02*
X115084000Y-127964000D01*
X113754000Y-129294000D02*
X113754000Y-127964000D01*
X113754000Y-130564000D02*
X116414000Y-130564000D01*
X116414000Y-130564000D02*
X116414000Y-135704000D01*
X113754000Y-130564000D02*
X113754000Y-135704000D01*
X113754000Y-135704000D02*
X116414000Y-135704000D01*
X133036000Y-135696000D02*
X135696000Y-135696000D01*
X133036000Y-130556000D02*
X133036000Y-135696000D01*
X135696000Y-130556000D02*
X135696000Y-135696000D01*
X133036000Y-130556000D02*
X135696000Y-130556000D01*
X133036000Y-129286000D02*
X133036000Y-127956000D01*
X133036000Y-127956000D02*
X134366000Y-127956000D01*
X121374000Y-135704000D02*
X124034000Y-135704000D01*
X121374000Y-130564000D02*
X121374000Y-135704000D01*
X124034000Y-130564000D02*
X124034000Y-135704000D01*
X121374000Y-130564000D02*
X124034000Y-130564000D01*
X121374000Y-129294000D02*
X121374000Y-127964000D01*
X121374000Y-127964000D02*
X122704000Y-127964000D01*
X143162000Y-130224000D02*
X140712000Y-130224000D01*
X141362000Y-133444000D02*
X143162000Y-133444000D01*
X137122000Y-135704000D02*
X139782000Y-135704000D01*
X137122000Y-130564000D02*
X137122000Y-135704000D01*
X139782000Y-130564000D02*
X139782000Y-135704000D01*
X137122000Y-130564000D02*
X139782000Y-130564000D01*
X137122000Y-129294000D02*
X137122000Y-127964000D01*
X137122000Y-127964000D02*
X138452000Y-127964000D01*
X144742000Y-127964000D02*
X146072000Y-127964000D01*
X144742000Y-129294000D02*
X144742000Y-127964000D01*
X144742000Y-130564000D02*
X147402000Y-130564000D01*
X147402000Y-130564000D02*
X147402000Y-135704000D01*
X144742000Y-130564000D02*
X144742000Y-135704000D01*
X144742000Y-135704000D02*
X147402000Y-135704000D01*
X78680000Y-135696000D02*
X81340000Y-135696000D01*
X78680000Y-130556000D02*
X78680000Y-135696000D01*
X81340000Y-130556000D02*
X81340000Y-135696000D01*
X78680000Y-130556000D02*
X81340000Y-130556000D01*
X78680000Y-129286000D02*
X78680000Y-127956000D01*
X78680000Y-127956000D02*
X80010000Y-127956000D01*
X84720000Y-130216000D02*
X82270000Y-130216000D01*
X82920000Y-133436000D02*
X84720000Y-133436000D01*
X86300000Y-127956000D02*
X87630000Y-127956000D01*
X86300000Y-129286000D02*
X86300000Y-127956000D01*
X86300000Y-130556000D02*
X88960000Y-130556000D01*
X88960000Y-130556000D02*
X88960000Y-135696000D01*
X86300000Y-130556000D02*
X86300000Y-135696000D01*
X86300000Y-135696000D02*
X88960000Y-135696000D01*
X94626000Y-133444000D02*
X96426000Y-133444000D01*
X96426000Y-130224000D02*
X93976000Y-130224000D01*
X90386000Y-127964000D02*
X91716000Y-127964000D01*
X90386000Y-129294000D02*
X90386000Y-127964000D01*
X90386000Y-130564000D02*
X93046000Y-130564000D01*
X93046000Y-130564000D02*
X93046000Y-135704000D01*
X90386000Y-130564000D02*
X90386000Y-135704000D01*
X90386000Y-135704000D02*
X93046000Y-135704000D01*
X98006000Y-135704000D02*
X100666000Y-135704000D01*
X98006000Y-130564000D02*
X98006000Y-135704000D01*
X100666000Y-130564000D02*
X100666000Y-135704000D01*
X98006000Y-130564000D02*
X100666000Y-130564000D01*
X98006000Y-129294000D02*
X98006000Y-127964000D01*
X98006000Y-127964000D02*
X99336000Y-127964000D01*
X67018000Y-135704000D02*
X69678000Y-135704000D01*
X67018000Y-130564000D02*
X67018000Y-135704000D01*
X69678000Y-130564000D02*
X69678000Y-135704000D01*
X67018000Y-130564000D02*
X69678000Y-130564000D01*
X67018000Y-129294000D02*
X67018000Y-127964000D01*
X67018000Y-127964000D02*
X68348000Y-127964000D01*
X73058000Y-130224000D02*
X70608000Y-130224000D01*
X71258000Y-133444000D02*
X73058000Y-133444000D01*
X74638000Y-127964000D02*
X75968000Y-127964000D01*
X74638000Y-129294000D02*
X74638000Y-127964000D01*
X74638000Y-130564000D02*
X77298000Y-130564000D01*
X77298000Y-130564000D02*
X77298000Y-135704000D01*
X74638000Y-130564000D02*
X74638000Y-135704000D01*
X74638000Y-135704000D02*
X77298000Y-135704000D01*
X55312000Y-127956000D02*
X56642000Y-127956000D01*
X55312000Y-129286000D02*
X55312000Y-127956000D01*
X55312000Y-130556000D02*
X57972000Y-130556000D01*
X57972000Y-130556000D02*
X57972000Y-135696000D01*
X55312000Y-130556000D02*
X55312000Y-135696000D01*
X55312000Y-135696000D02*
X57972000Y-135696000D01*
X62932000Y-135696000D02*
X65592000Y-135696000D01*
X62932000Y-130556000D02*
X62932000Y-135696000D01*
X65592000Y-130556000D02*
X65592000Y-135696000D01*
X62932000Y-130556000D02*
X65592000Y-130556000D01*
X62932000Y-129286000D02*
X62932000Y-127956000D01*
X62932000Y-127956000D02*
X64262000Y-127956000D01*
X59552000Y-133436000D02*
X61352000Y-133436000D01*
X61352000Y-130216000D02*
X58902000Y-130216000D01*
D11*
X116782666Y-55594380D02*
X116782666Y-56308666D01*
X116735047Y-56451523D01*
X116639809Y-56546761D01*
X116496952Y-56594380D01*
X116401714Y-56594380D01*
X117782666Y-56594380D02*
X117211238Y-56594380D01*
X117496952Y-56594380D02*
X117496952Y-55594380D01*
X117401714Y-55737238D01*
X117306476Y-55832476D01*
X117211238Y-55880095D01*
X105076666Y-46442380D02*
X105076666Y-47156666D01*
X105029047Y-47299523D01*
X104933809Y-47394761D01*
X104790952Y-47442380D01*
X104695714Y-47442380D01*
X106076666Y-47442380D02*
X105505238Y-47442380D01*
X105790952Y-47442380D02*
X105790952Y-46442380D01*
X105695714Y-46585238D01*
X105600476Y-46680476D01*
X105505238Y-46728095D01*
X120338666Y-55594380D02*
X120338666Y-56308666D01*
X120291047Y-56451523D01*
X120195809Y-56546761D01*
X120052952Y-56594380D01*
X119957714Y-56594380D01*
X120767238Y-55689619D02*
X120814857Y-55642000D01*
X120910095Y-55594380D01*
X121148190Y-55594380D01*
X121243428Y-55642000D01*
X121291047Y-55689619D01*
X121338666Y-55784857D01*
X121338666Y-55880095D01*
X121291047Y-56022952D01*
X120719619Y-56594380D01*
X121338666Y-56594380D01*
X73602666Y-55594380D02*
X73602666Y-56308666D01*
X73555047Y-56451523D01*
X73459809Y-56546761D01*
X73316952Y-56594380D01*
X73221714Y-56594380D01*
X74031238Y-55689619D02*
X74078857Y-55642000D01*
X74174095Y-55594380D01*
X74412190Y-55594380D01*
X74507428Y-55642000D01*
X74555047Y-55689619D01*
X74602666Y-55784857D01*
X74602666Y-55880095D01*
X74555047Y-56022952D01*
X73983619Y-56594380D01*
X74602666Y-56594380D01*
X120338666Y-46450380D02*
X120338666Y-47164666D01*
X120291047Y-47307523D01*
X120195809Y-47402761D01*
X120052952Y-47450380D01*
X119957714Y-47450380D01*
X120767238Y-46545619D02*
X120814857Y-46498000D01*
X120910095Y-46450380D01*
X121148190Y-46450380D01*
X121243428Y-46498000D01*
X121291047Y-46545619D01*
X121338666Y-46640857D01*
X121338666Y-46736095D01*
X121291047Y-46878952D01*
X120719619Y-47450380D01*
X121338666Y-47450380D01*
X70046666Y-46450380D02*
X70046666Y-47164666D01*
X69999047Y-47307523D01*
X69903809Y-47402761D01*
X69760952Y-47450380D01*
X69665714Y-47450380D01*
X71046666Y-47450380D02*
X70475238Y-47450380D01*
X70760952Y-47450380D02*
X70760952Y-46450380D01*
X70665714Y-46593238D01*
X70570476Y-46688476D01*
X70475238Y-46736095D01*
X85264666Y-55586380D02*
X85264666Y-56300666D01*
X85217047Y-56443523D01*
X85121809Y-56538761D01*
X84978952Y-56586380D01*
X84883714Y-56586380D01*
X85693238Y-55681619D02*
X85740857Y-55634000D01*
X85836095Y-55586380D01*
X86074190Y-55586380D01*
X86169428Y-55634000D01*
X86217047Y-55681619D01*
X86264666Y-55776857D01*
X86264666Y-55872095D01*
X86217047Y-56014952D01*
X85645619Y-56586380D01*
X86264666Y-56586380D01*
X94764095Y-55234380D02*
X94764095Y-56043904D01*
X94811714Y-56139142D01*
X94859333Y-56186761D01*
X94954571Y-56234380D01*
X95145047Y-56234380D01*
X95240285Y-56186761D01*
X95287904Y-56139142D01*
X95335523Y-56043904D01*
X95335523Y-55234380D01*
X96335523Y-56234380D02*
X95764095Y-56234380D01*
X96049809Y-56234380D02*
X96049809Y-55234380D01*
X95954571Y-55377238D01*
X95859333Y-55472476D01*
X95764095Y-55520095D01*
X85264666Y-46442380D02*
X85264666Y-47156666D01*
X85217047Y-47299523D01*
X85121809Y-47394761D01*
X84978952Y-47442380D01*
X84883714Y-47442380D01*
X85693238Y-46537619D02*
X85740857Y-46490000D01*
X85836095Y-46442380D01*
X86074190Y-46442380D01*
X86169428Y-46490000D01*
X86217047Y-46537619D01*
X86264666Y-46632857D01*
X86264666Y-46728095D01*
X86217047Y-46870952D01*
X85645619Y-47442380D01*
X86264666Y-47442380D01*
X70046666Y-55594380D02*
X70046666Y-56308666D01*
X69999047Y-56451523D01*
X69903809Y-56546761D01*
X69760952Y-56594380D01*
X69665714Y-56594380D01*
X71046666Y-56594380D02*
X70475238Y-56594380D01*
X70760952Y-56594380D02*
X70760952Y-55594380D01*
X70665714Y-55737238D01*
X70570476Y-55832476D01*
X70475238Y-55880095D01*
X128444666Y-55586380D02*
X128444666Y-56300666D01*
X128397047Y-56443523D01*
X128301809Y-56538761D01*
X128158952Y-56586380D01*
X128063714Y-56586380D01*
X129444666Y-56586380D02*
X128873238Y-56586380D01*
X129158952Y-56586380D02*
X129158952Y-55586380D01*
X129063714Y-55729238D01*
X128968476Y-55824476D01*
X128873238Y-55872095D01*
X83058095Y-46082380D02*
X83058095Y-46891904D01*
X83105714Y-46987142D01*
X83153333Y-47034761D01*
X83248571Y-47082380D01*
X83439047Y-47082380D01*
X83534285Y-47034761D01*
X83581904Y-46987142D01*
X83629523Y-46891904D01*
X83629523Y-46082380D01*
X84629523Y-47082380D02*
X84058095Y-47082380D01*
X84343809Y-47082380D02*
X84343809Y-46082380D01*
X84248571Y-46225238D01*
X84153333Y-46320476D01*
X84058095Y-46368095D01*
X93414666Y-55594380D02*
X93414666Y-56308666D01*
X93367047Y-56451523D01*
X93271809Y-56546761D01*
X93128952Y-56594380D01*
X93033714Y-56594380D01*
X94414666Y-56594380D02*
X93843238Y-56594380D01*
X94128952Y-56594380D02*
X94128952Y-55594380D01*
X94033714Y-55737238D01*
X93938476Y-55832476D01*
X93843238Y-55880095D01*
X58340666Y-46442380D02*
X58340666Y-47156666D01*
X58293047Y-47299523D01*
X58197809Y-47394761D01*
X58054952Y-47442380D01*
X57959714Y-47442380D01*
X59340666Y-47442380D02*
X58769238Y-47442380D01*
X59054952Y-47442380D02*
X59054952Y-46442380D01*
X58959714Y-46585238D01*
X58864476Y-46680476D01*
X58769238Y-46728095D01*
X71396095Y-46090380D02*
X71396095Y-46899904D01*
X71443714Y-46995142D01*
X71491333Y-47042761D01*
X71586571Y-47090380D01*
X71777047Y-47090380D01*
X71872285Y-47042761D01*
X71919904Y-46995142D01*
X71967523Y-46899904D01*
X71967523Y-46090380D01*
X72967523Y-47090380D02*
X72396095Y-47090380D01*
X72681809Y-47090380D02*
X72681809Y-46090380D01*
X72586571Y-46233238D01*
X72491333Y-46328476D01*
X72396095Y-46376095D01*
X118132095Y-46090380D02*
X118132095Y-46899904D01*
X118179714Y-46995142D01*
X118227333Y-47042761D01*
X118322571Y-47090380D01*
X118513047Y-47090380D01*
X118608285Y-47042761D01*
X118655904Y-46995142D01*
X118703523Y-46899904D01*
X118703523Y-46090380D01*
X119703523Y-47090380D02*
X119132095Y-47090380D01*
X119417809Y-47090380D02*
X119417809Y-46090380D01*
X119322571Y-46233238D01*
X119227333Y-46328476D01*
X119132095Y-46376095D01*
X132000666Y-46442380D02*
X132000666Y-47156666D01*
X131953047Y-47299523D01*
X131857809Y-47394761D01*
X131714952Y-47442380D01*
X131619714Y-47442380D01*
X132429238Y-46537619D02*
X132476857Y-46490000D01*
X132572095Y-46442380D01*
X132810190Y-46442380D01*
X132905428Y-46490000D01*
X132953047Y-46537619D01*
X133000666Y-46632857D01*
X133000666Y-46728095D01*
X132953047Y-46870952D01*
X132381619Y-47442380D01*
X133000666Y-47442380D01*
X96970666Y-55594380D02*
X96970666Y-56308666D01*
X96923047Y-56451523D01*
X96827809Y-56546761D01*
X96684952Y-56594380D01*
X96589714Y-56594380D01*
X97399238Y-55689619D02*
X97446857Y-55642000D01*
X97542095Y-55594380D01*
X97780190Y-55594380D01*
X97875428Y-55642000D01*
X97923047Y-55689619D01*
X97970666Y-55784857D01*
X97970666Y-55880095D01*
X97923047Y-56022952D01*
X97351619Y-56594380D01*
X97970666Y-56594380D01*
X132000666Y-55586380D02*
X132000666Y-56300666D01*
X131953047Y-56443523D01*
X131857809Y-56538761D01*
X131714952Y-56586380D01*
X131619714Y-56586380D01*
X132429238Y-55681619D02*
X132476857Y-55634000D01*
X132572095Y-55586380D01*
X132810190Y-55586380D01*
X132905428Y-55634000D01*
X132953047Y-55681619D01*
X133000666Y-55776857D01*
X133000666Y-55872095D01*
X132953047Y-56014952D01*
X132381619Y-56586380D01*
X133000666Y-56586380D01*
X129794095Y-55226380D02*
X129794095Y-56035904D01*
X129841714Y-56131142D01*
X129889333Y-56178761D01*
X129984571Y-56226380D01*
X130175047Y-56226380D01*
X130270285Y-56178761D01*
X130317904Y-56131142D01*
X130365523Y-56035904D01*
X130365523Y-55226380D01*
X131365523Y-56226380D02*
X130794095Y-56226380D01*
X131079809Y-56226380D02*
X131079809Y-55226380D01*
X130984571Y-55369238D01*
X130889333Y-55464476D01*
X130794095Y-55512095D01*
X73602666Y-46450380D02*
X73602666Y-47164666D01*
X73555047Y-47307523D01*
X73459809Y-47402761D01*
X73316952Y-47450380D01*
X73221714Y-47450380D01*
X74031238Y-46545619D02*
X74078857Y-46498000D01*
X74174095Y-46450380D01*
X74412190Y-46450380D01*
X74507428Y-46498000D01*
X74555047Y-46545619D01*
X74602666Y-46640857D01*
X74602666Y-46736095D01*
X74555047Y-46878952D01*
X73983619Y-47450380D01*
X74602666Y-47450380D01*
X140150666Y-46450380D02*
X140150666Y-47164666D01*
X140103047Y-47307523D01*
X140007809Y-47402761D01*
X139864952Y-47450380D01*
X139769714Y-47450380D01*
X141150666Y-47450380D02*
X140579238Y-47450380D01*
X140864952Y-47450380D02*
X140864952Y-46450380D01*
X140769714Y-46593238D01*
X140674476Y-46688476D01*
X140579238Y-46736095D01*
X143706666Y-46450380D02*
X143706666Y-47164666D01*
X143659047Y-47307523D01*
X143563809Y-47402761D01*
X143420952Y-47450380D01*
X143325714Y-47450380D01*
X144135238Y-46545619D02*
X144182857Y-46498000D01*
X144278095Y-46450380D01*
X144516190Y-46450380D01*
X144611428Y-46498000D01*
X144659047Y-46545619D01*
X144706666Y-46640857D01*
X144706666Y-46736095D01*
X144659047Y-46878952D01*
X144087619Y-47450380D01*
X144706666Y-47450380D01*
X71396095Y-55234380D02*
X71396095Y-56043904D01*
X71443714Y-56139142D01*
X71491333Y-56186761D01*
X71586571Y-56234380D01*
X71777047Y-56234380D01*
X71872285Y-56186761D01*
X71919904Y-56139142D01*
X71967523Y-56043904D01*
X71967523Y-55234380D01*
X72967523Y-56234380D02*
X72396095Y-56234380D01*
X72681809Y-56234380D02*
X72681809Y-55234380D01*
X72586571Y-55377238D01*
X72491333Y-55472476D01*
X72396095Y-55520095D01*
X108632666Y-46442380D02*
X108632666Y-47156666D01*
X108585047Y-47299523D01*
X108489809Y-47394761D01*
X108346952Y-47442380D01*
X108251714Y-47442380D01*
X109061238Y-46537619D02*
X109108857Y-46490000D01*
X109204095Y-46442380D01*
X109442190Y-46442380D01*
X109537428Y-46490000D01*
X109585047Y-46537619D01*
X109632666Y-46632857D01*
X109632666Y-46728095D01*
X109585047Y-46870952D01*
X109013619Y-47442380D01*
X109632666Y-47442380D01*
X61896666Y-55586380D02*
X61896666Y-56300666D01*
X61849047Y-56443523D01*
X61753809Y-56538761D01*
X61610952Y-56586380D01*
X61515714Y-56586380D01*
X62325238Y-55681619D02*
X62372857Y-55634000D01*
X62468095Y-55586380D01*
X62706190Y-55586380D01*
X62801428Y-55634000D01*
X62849047Y-55681619D01*
X62896666Y-55776857D01*
X62896666Y-55872095D01*
X62849047Y-56014952D01*
X62277619Y-56586380D01*
X62896666Y-56586380D01*
X141500095Y-55234380D02*
X141500095Y-56043904D01*
X141547714Y-56139142D01*
X141595333Y-56186761D01*
X141690571Y-56234380D01*
X141881047Y-56234380D01*
X141976285Y-56186761D01*
X142023904Y-56139142D01*
X142071523Y-56043904D01*
X142071523Y-55234380D01*
X143071523Y-56234380D02*
X142500095Y-56234380D01*
X142785809Y-56234380D02*
X142785809Y-55234380D01*
X142690571Y-55377238D01*
X142595333Y-55472476D01*
X142500095Y-55520095D01*
X118132095Y-55234380D02*
X118132095Y-56043904D01*
X118179714Y-56139142D01*
X118227333Y-56186761D01*
X118322571Y-56234380D01*
X118513047Y-56234380D01*
X118608285Y-56186761D01*
X118655904Y-56139142D01*
X118703523Y-56043904D01*
X118703523Y-55234380D01*
X119703523Y-56234380D02*
X119132095Y-56234380D01*
X119417809Y-56234380D02*
X119417809Y-55234380D01*
X119322571Y-55377238D01*
X119227333Y-55472476D01*
X119132095Y-55520095D01*
X129794095Y-46082380D02*
X129794095Y-46891904D01*
X129841714Y-46987142D01*
X129889333Y-47034761D01*
X129984571Y-47082380D01*
X130175047Y-47082380D01*
X130270285Y-47034761D01*
X130317904Y-46987142D01*
X130365523Y-46891904D01*
X130365523Y-46082380D01*
X131365523Y-47082380D02*
X130794095Y-47082380D01*
X131079809Y-47082380D02*
X131079809Y-46082380D01*
X130984571Y-46225238D01*
X130889333Y-46320476D01*
X130794095Y-46368095D01*
X58340666Y-55586380D02*
X58340666Y-56300666D01*
X58293047Y-56443523D01*
X58197809Y-56538761D01*
X58054952Y-56586380D01*
X57959714Y-56586380D01*
X59340666Y-56586380D02*
X58769238Y-56586380D01*
X59054952Y-56586380D02*
X59054952Y-55586380D01*
X58959714Y-55729238D01*
X58864476Y-55824476D01*
X58769238Y-55872095D01*
X128444666Y-46442380D02*
X128444666Y-47156666D01*
X128397047Y-47299523D01*
X128301809Y-47394761D01*
X128158952Y-47442380D01*
X128063714Y-47442380D01*
X129444666Y-47442380D02*
X128873238Y-47442380D01*
X129158952Y-47442380D02*
X129158952Y-46442380D01*
X129063714Y-46585238D01*
X128968476Y-46680476D01*
X128873238Y-46728095D01*
X108632666Y-55586380D02*
X108632666Y-56300666D01*
X108585047Y-56443523D01*
X108489809Y-56538761D01*
X108346952Y-56586380D01*
X108251714Y-56586380D01*
X109061238Y-55681619D02*
X109108857Y-55634000D01*
X109204095Y-55586380D01*
X109442190Y-55586380D01*
X109537428Y-55634000D01*
X109585047Y-55681619D01*
X109632666Y-55776857D01*
X109632666Y-55872095D01*
X109585047Y-56014952D01*
X109013619Y-56586380D01*
X109632666Y-56586380D01*
X105076666Y-55586380D02*
X105076666Y-56300666D01*
X105029047Y-56443523D01*
X104933809Y-56538761D01*
X104790952Y-56586380D01*
X104695714Y-56586380D01*
X106076666Y-56586380D02*
X105505238Y-56586380D01*
X105790952Y-56586380D02*
X105790952Y-55586380D01*
X105695714Y-55729238D01*
X105600476Y-55824476D01*
X105505238Y-55872095D01*
X116782666Y-46450380D02*
X116782666Y-47164666D01*
X116735047Y-47307523D01*
X116639809Y-47402761D01*
X116496952Y-47450380D01*
X116401714Y-47450380D01*
X117782666Y-47450380D02*
X117211238Y-47450380D01*
X117496952Y-47450380D02*
X117496952Y-46450380D01*
X117401714Y-46593238D01*
X117306476Y-46688476D01*
X117211238Y-46736095D01*
X59690095Y-55226380D02*
X59690095Y-56035904D01*
X59737714Y-56131142D01*
X59785333Y-56178761D01*
X59880571Y-56226380D01*
X60071047Y-56226380D01*
X60166285Y-56178761D01*
X60213904Y-56131142D01*
X60261523Y-56035904D01*
X60261523Y-55226380D01*
X61261523Y-56226380D02*
X60690095Y-56226380D01*
X60975809Y-56226380D02*
X60975809Y-55226380D01*
X60880571Y-55369238D01*
X60785333Y-55464476D01*
X60690095Y-55512095D01*
X81708666Y-55586380D02*
X81708666Y-56300666D01*
X81661047Y-56443523D01*
X81565809Y-56538761D01*
X81422952Y-56586380D01*
X81327714Y-56586380D01*
X82708666Y-56586380D02*
X82137238Y-56586380D01*
X82422952Y-56586380D02*
X82422952Y-55586380D01*
X82327714Y-55729238D01*
X82232476Y-55824476D01*
X82137238Y-55872095D01*
X106426095Y-46082380D02*
X106426095Y-46891904D01*
X106473714Y-46987142D01*
X106521333Y-47034761D01*
X106616571Y-47082380D01*
X106807047Y-47082380D01*
X106902285Y-47034761D01*
X106949904Y-46987142D01*
X106997523Y-46891904D01*
X106997523Y-46082380D01*
X107997523Y-47082380D02*
X107426095Y-47082380D01*
X107711809Y-47082380D02*
X107711809Y-46082380D01*
X107616571Y-46225238D01*
X107521333Y-46320476D01*
X107426095Y-46368095D01*
X94764095Y-46090380D02*
X94764095Y-46899904D01*
X94811714Y-46995142D01*
X94859333Y-47042761D01*
X94954571Y-47090380D01*
X95145047Y-47090380D01*
X95240285Y-47042761D01*
X95287904Y-46995142D01*
X95335523Y-46899904D01*
X95335523Y-46090380D01*
X96335523Y-47090380D02*
X95764095Y-47090380D01*
X96049809Y-47090380D02*
X96049809Y-46090380D01*
X95954571Y-46233238D01*
X95859333Y-46328476D01*
X95764095Y-46376095D01*
X141500095Y-46090380D02*
X141500095Y-46899904D01*
X141547714Y-46995142D01*
X141595333Y-47042761D01*
X141690571Y-47090380D01*
X141881047Y-47090380D01*
X141976285Y-47042761D01*
X142023904Y-46995142D01*
X142071523Y-46899904D01*
X142071523Y-46090380D01*
X143071523Y-47090380D02*
X142500095Y-47090380D01*
X142785809Y-47090380D02*
X142785809Y-46090380D01*
X142690571Y-46233238D01*
X142595333Y-46328476D01*
X142500095Y-46376095D01*
X106426095Y-55226380D02*
X106426095Y-56035904D01*
X106473714Y-56131142D01*
X106521333Y-56178761D01*
X106616571Y-56226380D01*
X106807047Y-56226380D01*
X106902285Y-56178761D01*
X106949904Y-56131142D01*
X106997523Y-56035904D01*
X106997523Y-55226380D01*
X107997523Y-56226380D02*
X107426095Y-56226380D01*
X107711809Y-56226380D02*
X107711809Y-55226380D01*
X107616571Y-55369238D01*
X107521333Y-55464476D01*
X107426095Y-55512095D01*
X83058095Y-55226380D02*
X83058095Y-56035904D01*
X83105714Y-56131142D01*
X83153333Y-56178761D01*
X83248571Y-56226380D01*
X83439047Y-56226380D01*
X83534285Y-56178761D01*
X83581904Y-56131142D01*
X83629523Y-56035904D01*
X83629523Y-55226380D01*
X84629523Y-56226380D02*
X84058095Y-56226380D01*
X84343809Y-56226380D02*
X84343809Y-55226380D01*
X84248571Y-55369238D01*
X84153333Y-55464476D01*
X84058095Y-55512095D01*
X140150666Y-55594380D02*
X140150666Y-56308666D01*
X140103047Y-56451523D01*
X140007809Y-56546761D01*
X139864952Y-56594380D01*
X139769714Y-56594380D01*
X141150666Y-56594380D02*
X140579238Y-56594380D01*
X140864952Y-56594380D02*
X140864952Y-55594380D01*
X140769714Y-55737238D01*
X140674476Y-55832476D01*
X140579238Y-55880095D01*
X93414666Y-46450380D02*
X93414666Y-47164666D01*
X93367047Y-47307523D01*
X93271809Y-47402761D01*
X93128952Y-47450380D01*
X93033714Y-47450380D01*
X94414666Y-47450380D02*
X93843238Y-47450380D01*
X94128952Y-47450380D02*
X94128952Y-46450380D01*
X94033714Y-46593238D01*
X93938476Y-46688476D01*
X93843238Y-46736095D01*
X96970666Y-46450380D02*
X96970666Y-47164666D01*
X96923047Y-47307523D01*
X96827809Y-47402761D01*
X96684952Y-47450380D01*
X96589714Y-47450380D01*
X97399238Y-46545619D02*
X97446857Y-46498000D01*
X97542095Y-46450380D01*
X97780190Y-46450380D01*
X97875428Y-46498000D01*
X97923047Y-46545619D01*
X97970666Y-46640857D01*
X97970666Y-46736095D01*
X97923047Y-46878952D01*
X97351619Y-47450380D01*
X97970666Y-47450380D01*
X61896666Y-46442380D02*
X61896666Y-47156666D01*
X61849047Y-47299523D01*
X61753809Y-47394761D01*
X61610952Y-47442380D01*
X61515714Y-47442380D01*
X62325238Y-46537619D02*
X62372857Y-46490000D01*
X62468095Y-46442380D01*
X62706190Y-46442380D01*
X62801428Y-46490000D01*
X62849047Y-46537619D01*
X62896666Y-46632857D01*
X62896666Y-46728095D01*
X62849047Y-46870952D01*
X62277619Y-47442380D01*
X62896666Y-47442380D01*
X81708666Y-46442380D02*
X81708666Y-47156666D01*
X81661047Y-47299523D01*
X81565809Y-47394761D01*
X81422952Y-47442380D01*
X81327714Y-47442380D01*
X82708666Y-47442380D02*
X82137238Y-47442380D01*
X82422952Y-47442380D02*
X82422952Y-46442380D01*
X82327714Y-46585238D01*
X82232476Y-46680476D01*
X82137238Y-46728095D01*
X143706666Y-55594380D02*
X143706666Y-56308666D01*
X143659047Y-56451523D01*
X143563809Y-56546761D01*
X143420952Y-56594380D01*
X143325714Y-56594380D01*
X144135238Y-55689619D02*
X144182857Y-55642000D01*
X144278095Y-55594380D01*
X144516190Y-55594380D01*
X144611428Y-55642000D01*
X144659047Y-55689619D01*
X144706666Y-55784857D01*
X144706666Y-55880095D01*
X144659047Y-56022952D01*
X144087619Y-56594380D01*
X144706666Y-56594380D01*
X59690095Y-46082380D02*
X59690095Y-46891904D01*
X59737714Y-46987142D01*
X59785333Y-47034761D01*
X59880571Y-47082380D01*
X60071047Y-47082380D01*
X60166285Y-47034761D01*
X60213904Y-46987142D01*
X60261523Y-46891904D01*
X60261523Y-46082380D01*
X61261523Y-47082380D02*
X60690095Y-47082380D01*
X60975809Y-47082380D02*
X60975809Y-46082380D01*
X60880571Y-46225238D01*
X60785333Y-46320476D01*
X60690095Y-46368095D01*
X59690095Y-64370380D02*
X59690095Y-65179904D01*
X59737714Y-65275142D01*
X59785333Y-65322761D01*
X59880571Y-65370380D01*
X60071047Y-65370380D01*
X60166285Y-65322761D01*
X60213904Y-65275142D01*
X60261523Y-65179904D01*
X60261523Y-64370380D01*
X61261523Y-65370380D02*
X60690095Y-65370380D01*
X60975809Y-65370380D02*
X60975809Y-64370380D01*
X60880571Y-64513238D01*
X60785333Y-64608476D01*
X60690095Y-64656095D01*
X59690095Y-82658380D02*
X59690095Y-83467904D01*
X59737714Y-83563142D01*
X59785333Y-83610761D01*
X59880571Y-83658380D01*
X60071047Y-83658380D01*
X60166285Y-83610761D01*
X60213904Y-83563142D01*
X60261523Y-83467904D01*
X60261523Y-82658380D01*
X61261523Y-83658380D02*
X60690095Y-83658380D01*
X60975809Y-83658380D02*
X60975809Y-82658380D01*
X60880571Y-82801238D01*
X60785333Y-82896476D01*
X60690095Y-82944095D01*
X105076666Y-83018380D02*
X105076666Y-83732666D01*
X105029047Y-83875523D01*
X104933809Y-83970761D01*
X104790952Y-84018380D01*
X104695714Y-84018380D01*
X106076666Y-84018380D02*
X105505238Y-84018380D01*
X105790952Y-84018380D02*
X105790952Y-83018380D01*
X105695714Y-83161238D01*
X105600476Y-83256476D01*
X105505238Y-83304095D01*
X106426095Y-82658380D02*
X106426095Y-83467904D01*
X106473714Y-83563142D01*
X106521333Y-83610761D01*
X106616571Y-83658380D01*
X106807047Y-83658380D01*
X106902285Y-83610761D01*
X106949904Y-83563142D01*
X106997523Y-83467904D01*
X106997523Y-82658380D01*
X107997523Y-83658380D02*
X107426095Y-83658380D01*
X107711809Y-83658380D02*
X107711809Y-82658380D01*
X107616571Y-82801238D01*
X107521333Y-82896476D01*
X107426095Y-82944095D01*
X132000666Y-83018380D02*
X132000666Y-83732666D01*
X131953047Y-83875523D01*
X131857809Y-83970761D01*
X131714952Y-84018380D01*
X131619714Y-84018380D01*
X132429238Y-83113619D02*
X132476857Y-83066000D01*
X132572095Y-83018380D01*
X132810190Y-83018380D01*
X132905428Y-83066000D01*
X132953047Y-83113619D01*
X133000666Y-83208857D01*
X133000666Y-83304095D01*
X132953047Y-83446952D01*
X132381619Y-84018380D01*
X133000666Y-84018380D01*
X85264666Y-83018380D02*
X85264666Y-83732666D01*
X85217047Y-83875523D01*
X85121809Y-83970761D01*
X84978952Y-84018380D01*
X84883714Y-84018380D01*
X85693238Y-83113619D02*
X85740857Y-83066000D01*
X85836095Y-83018380D01*
X86074190Y-83018380D01*
X86169428Y-83066000D01*
X86217047Y-83113619D01*
X86264666Y-83208857D01*
X86264666Y-83304095D01*
X86217047Y-83446952D01*
X85645619Y-84018380D01*
X86264666Y-84018380D01*
X71396095Y-82666380D02*
X71396095Y-83475904D01*
X71443714Y-83571142D01*
X71491333Y-83618761D01*
X71586571Y-83666380D01*
X71777047Y-83666380D01*
X71872285Y-83618761D01*
X71919904Y-83571142D01*
X71967523Y-83475904D01*
X71967523Y-82666380D01*
X72967523Y-83666380D02*
X72396095Y-83666380D01*
X72681809Y-83666380D02*
X72681809Y-82666380D01*
X72586571Y-82809238D01*
X72491333Y-82904476D01*
X72396095Y-82952095D01*
X81708666Y-83018380D02*
X81708666Y-83732666D01*
X81661047Y-83875523D01*
X81565809Y-83970761D01*
X81422952Y-84018380D01*
X81327714Y-84018380D01*
X82708666Y-84018380D02*
X82137238Y-84018380D01*
X82422952Y-84018380D02*
X82422952Y-83018380D01*
X82327714Y-83161238D01*
X82232476Y-83256476D01*
X82137238Y-83304095D01*
X70046666Y-83026380D02*
X70046666Y-83740666D01*
X69999047Y-83883523D01*
X69903809Y-83978761D01*
X69760952Y-84026380D01*
X69665714Y-84026380D01*
X71046666Y-84026380D02*
X70475238Y-84026380D01*
X70760952Y-84026380D02*
X70760952Y-83026380D01*
X70665714Y-83169238D01*
X70570476Y-83264476D01*
X70475238Y-83312095D01*
X108632666Y-83018380D02*
X108632666Y-83732666D01*
X108585047Y-83875523D01*
X108489809Y-83970761D01*
X108346952Y-84018380D01*
X108251714Y-84018380D01*
X109061238Y-83113619D02*
X109108857Y-83066000D01*
X109204095Y-83018380D01*
X109442190Y-83018380D01*
X109537428Y-83066000D01*
X109585047Y-83113619D01*
X109632666Y-83208857D01*
X109632666Y-83304095D01*
X109585047Y-83446952D01*
X109013619Y-84018380D01*
X109632666Y-84018380D01*
X118132095Y-82666380D02*
X118132095Y-83475904D01*
X118179714Y-83571142D01*
X118227333Y-83618761D01*
X118322571Y-83666380D01*
X118513047Y-83666380D01*
X118608285Y-83618761D01*
X118655904Y-83571142D01*
X118703523Y-83475904D01*
X118703523Y-82666380D01*
X119703523Y-83666380D02*
X119132095Y-83666380D01*
X119417809Y-83666380D02*
X119417809Y-82666380D01*
X119322571Y-82809238D01*
X119227333Y-82904476D01*
X119132095Y-82952095D01*
X61896666Y-83018380D02*
X61896666Y-83732666D01*
X61849047Y-83875523D01*
X61753809Y-83970761D01*
X61610952Y-84018380D01*
X61515714Y-84018380D01*
X62325238Y-83113619D02*
X62372857Y-83066000D01*
X62468095Y-83018380D01*
X62706190Y-83018380D01*
X62801428Y-83066000D01*
X62849047Y-83113619D01*
X62896666Y-83208857D01*
X62896666Y-83304095D01*
X62849047Y-83446952D01*
X62277619Y-84018380D01*
X62896666Y-84018380D01*
X83058095Y-82658380D02*
X83058095Y-83467904D01*
X83105714Y-83563142D01*
X83153333Y-83610761D01*
X83248571Y-83658380D01*
X83439047Y-83658380D01*
X83534285Y-83610761D01*
X83581904Y-83563142D01*
X83629523Y-83467904D01*
X83629523Y-82658380D01*
X84629523Y-83658380D02*
X84058095Y-83658380D01*
X84343809Y-83658380D02*
X84343809Y-82658380D01*
X84248571Y-82801238D01*
X84153333Y-82896476D01*
X84058095Y-82944095D01*
X120338666Y-83026380D02*
X120338666Y-83740666D01*
X120291047Y-83883523D01*
X120195809Y-83978761D01*
X120052952Y-84026380D01*
X119957714Y-84026380D01*
X120767238Y-83121619D02*
X120814857Y-83074000D01*
X120910095Y-83026380D01*
X121148190Y-83026380D01*
X121243428Y-83074000D01*
X121291047Y-83121619D01*
X121338666Y-83216857D01*
X121338666Y-83312095D01*
X121291047Y-83454952D01*
X120719619Y-84026380D01*
X121338666Y-84026380D01*
X94764095Y-82666380D02*
X94764095Y-83475904D01*
X94811714Y-83571142D01*
X94859333Y-83618761D01*
X94954571Y-83666380D01*
X95145047Y-83666380D01*
X95240285Y-83618761D01*
X95287904Y-83571142D01*
X95335523Y-83475904D01*
X95335523Y-82666380D01*
X96335523Y-83666380D02*
X95764095Y-83666380D01*
X96049809Y-83666380D02*
X96049809Y-82666380D01*
X95954571Y-82809238D01*
X95859333Y-82904476D01*
X95764095Y-82952095D01*
X73602666Y-83026380D02*
X73602666Y-83740666D01*
X73555047Y-83883523D01*
X73459809Y-83978761D01*
X73316952Y-84026380D01*
X73221714Y-84026380D01*
X74031238Y-83121619D02*
X74078857Y-83074000D01*
X74174095Y-83026380D01*
X74412190Y-83026380D01*
X74507428Y-83074000D01*
X74555047Y-83121619D01*
X74602666Y-83216857D01*
X74602666Y-83312095D01*
X74555047Y-83454952D01*
X73983619Y-84026380D01*
X74602666Y-84026380D01*
X58340666Y-83018380D02*
X58340666Y-83732666D01*
X58293047Y-83875523D01*
X58197809Y-83970761D01*
X58054952Y-84018380D01*
X57959714Y-84018380D01*
X59340666Y-84018380D02*
X58769238Y-84018380D01*
X59054952Y-84018380D02*
X59054952Y-83018380D01*
X58959714Y-83161238D01*
X58864476Y-83256476D01*
X58769238Y-83304095D01*
X140150666Y-83026380D02*
X140150666Y-83740666D01*
X140103047Y-83883523D01*
X140007809Y-83978761D01*
X139864952Y-84026380D01*
X139769714Y-84026380D01*
X141150666Y-84026380D02*
X140579238Y-84026380D01*
X140864952Y-84026380D02*
X140864952Y-83026380D01*
X140769714Y-83169238D01*
X140674476Y-83264476D01*
X140579238Y-83312095D01*
X143706666Y-83026380D02*
X143706666Y-83740666D01*
X143659047Y-83883523D01*
X143563809Y-83978761D01*
X143420952Y-84026380D01*
X143325714Y-84026380D01*
X144135238Y-83121619D02*
X144182857Y-83074000D01*
X144278095Y-83026380D01*
X144516190Y-83026380D01*
X144611428Y-83074000D01*
X144659047Y-83121619D01*
X144706666Y-83216857D01*
X144706666Y-83312095D01*
X144659047Y-83454952D01*
X144087619Y-84026380D01*
X144706666Y-84026380D01*
X96970666Y-73882380D02*
X96970666Y-74596666D01*
X96923047Y-74739523D01*
X96827809Y-74834761D01*
X96684952Y-74882380D01*
X96589714Y-74882380D01*
X97399238Y-73977619D02*
X97446857Y-73930000D01*
X97542095Y-73882380D01*
X97780190Y-73882380D01*
X97875428Y-73930000D01*
X97923047Y-73977619D01*
X97970666Y-74072857D01*
X97970666Y-74168095D01*
X97923047Y-74310952D01*
X97351619Y-74882380D01*
X97970666Y-74882380D01*
X128444666Y-73874380D02*
X128444666Y-74588666D01*
X128397047Y-74731523D01*
X128301809Y-74826761D01*
X128158952Y-74874380D01*
X128063714Y-74874380D01*
X129444666Y-74874380D02*
X128873238Y-74874380D01*
X129158952Y-74874380D02*
X129158952Y-73874380D01*
X129063714Y-74017238D01*
X128968476Y-74112476D01*
X128873238Y-74160095D01*
X93414666Y-73882380D02*
X93414666Y-74596666D01*
X93367047Y-74739523D01*
X93271809Y-74834761D01*
X93128952Y-74882380D01*
X93033714Y-74882380D01*
X94414666Y-74882380D02*
X93843238Y-74882380D01*
X94128952Y-74882380D02*
X94128952Y-73882380D01*
X94033714Y-74025238D01*
X93938476Y-74120476D01*
X93843238Y-74168095D01*
X120338666Y-73882380D02*
X120338666Y-74596666D01*
X120291047Y-74739523D01*
X120195809Y-74834761D01*
X120052952Y-74882380D01*
X119957714Y-74882380D01*
X120767238Y-73977619D02*
X120814857Y-73930000D01*
X120910095Y-73882380D01*
X121148190Y-73882380D01*
X121243428Y-73930000D01*
X121291047Y-73977619D01*
X121338666Y-74072857D01*
X121338666Y-74168095D01*
X121291047Y-74310952D01*
X120719619Y-74882380D01*
X121338666Y-74882380D01*
X70046666Y-73882380D02*
X70046666Y-74596666D01*
X69999047Y-74739523D01*
X69903809Y-74834761D01*
X69760952Y-74882380D01*
X69665714Y-74882380D01*
X71046666Y-74882380D02*
X70475238Y-74882380D01*
X70760952Y-74882380D02*
X70760952Y-73882380D01*
X70665714Y-74025238D01*
X70570476Y-74120476D01*
X70475238Y-74168095D01*
X85264666Y-73874380D02*
X85264666Y-74588666D01*
X85217047Y-74731523D01*
X85121809Y-74826761D01*
X84978952Y-74874380D01*
X84883714Y-74874380D01*
X85693238Y-73969619D02*
X85740857Y-73922000D01*
X85836095Y-73874380D01*
X86074190Y-73874380D01*
X86169428Y-73922000D01*
X86217047Y-73969619D01*
X86264666Y-74064857D01*
X86264666Y-74160095D01*
X86217047Y-74302952D01*
X85645619Y-74874380D01*
X86264666Y-74874380D01*
X73602666Y-73882380D02*
X73602666Y-74596666D01*
X73555047Y-74739523D01*
X73459809Y-74834761D01*
X73316952Y-74882380D01*
X73221714Y-74882380D01*
X74031238Y-73977619D02*
X74078857Y-73930000D01*
X74174095Y-73882380D01*
X74412190Y-73882380D01*
X74507428Y-73930000D01*
X74555047Y-73977619D01*
X74602666Y-74072857D01*
X74602666Y-74168095D01*
X74555047Y-74310952D01*
X73983619Y-74882380D01*
X74602666Y-74882380D01*
X94764095Y-73522380D02*
X94764095Y-74331904D01*
X94811714Y-74427142D01*
X94859333Y-74474761D01*
X94954571Y-74522380D01*
X95145047Y-74522380D01*
X95240285Y-74474761D01*
X95287904Y-74427142D01*
X95335523Y-74331904D01*
X95335523Y-73522380D01*
X96335523Y-74522380D02*
X95764095Y-74522380D01*
X96049809Y-74522380D02*
X96049809Y-73522380D01*
X95954571Y-73665238D01*
X95859333Y-73760476D01*
X95764095Y-73808095D01*
X129794095Y-73514380D02*
X129794095Y-74323904D01*
X129841714Y-74419142D01*
X129889333Y-74466761D01*
X129984571Y-74514380D01*
X130175047Y-74514380D01*
X130270285Y-74466761D01*
X130317904Y-74419142D01*
X130365523Y-74323904D01*
X130365523Y-73514380D01*
X131365523Y-74514380D02*
X130794095Y-74514380D01*
X131079809Y-74514380D02*
X131079809Y-73514380D01*
X130984571Y-73657238D01*
X130889333Y-73752476D01*
X130794095Y-73800095D01*
X116782666Y-73882380D02*
X116782666Y-74596666D01*
X116735047Y-74739523D01*
X116639809Y-74834761D01*
X116496952Y-74882380D01*
X116401714Y-74882380D01*
X117782666Y-74882380D02*
X117211238Y-74882380D01*
X117496952Y-74882380D02*
X117496952Y-73882380D01*
X117401714Y-74025238D01*
X117306476Y-74120476D01*
X117211238Y-74168095D01*
X132000666Y-73874380D02*
X132000666Y-74588666D01*
X131953047Y-74731523D01*
X131857809Y-74826761D01*
X131714952Y-74874380D01*
X131619714Y-74874380D01*
X132429238Y-73969619D02*
X132476857Y-73922000D01*
X132572095Y-73874380D01*
X132810190Y-73874380D01*
X132905428Y-73922000D01*
X132953047Y-73969619D01*
X133000666Y-74064857D01*
X133000666Y-74160095D01*
X132953047Y-74302952D01*
X132381619Y-74874380D01*
X133000666Y-74874380D01*
X141500095Y-82666380D02*
X141500095Y-83475904D01*
X141547714Y-83571142D01*
X141595333Y-83618761D01*
X141690571Y-83666380D01*
X141881047Y-83666380D01*
X141976285Y-83618761D01*
X142023904Y-83571142D01*
X142071523Y-83475904D01*
X142071523Y-82666380D01*
X143071523Y-83666380D02*
X142500095Y-83666380D01*
X142785809Y-83666380D02*
X142785809Y-82666380D01*
X142690571Y-82809238D01*
X142595333Y-82904476D01*
X142500095Y-82952095D01*
X73602666Y-64738380D02*
X73602666Y-65452666D01*
X73555047Y-65595523D01*
X73459809Y-65690761D01*
X73316952Y-65738380D01*
X73221714Y-65738380D01*
X74031238Y-64833619D02*
X74078857Y-64786000D01*
X74174095Y-64738380D01*
X74412190Y-64738380D01*
X74507428Y-64786000D01*
X74555047Y-64833619D01*
X74602666Y-64928857D01*
X74602666Y-65024095D01*
X74555047Y-65166952D01*
X73983619Y-65738380D01*
X74602666Y-65738380D01*
X58340666Y-64730380D02*
X58340666Y-65444666D01*
X58293047Y-65587523D01*
X58197809Y-65682761D01*
X58054952Y-65730380D01*
X57959714Y-65730380D01*
X59340666Y-65730380D02*
X58769238Y-65730380D01*
X59054952Y-65730380D02*
X59054952Y-64730380D01*
X58959714Y-64873238D01*
X58864476Y-64968476D01*
X58769238Y-65016095D01*
X140150666Y-64738380D02*
X140150666Y-65452666D01*
X140103047Y-65595523D01*
X140007809Y-65690761D01*
X139864952Y-65738380D01*
X139769714Y-65738380D01*
X141150666Y-65738380D02*
X140579238Y-65738380D01*
X140864952Y-65738380D02*
X140864952Y-64738380D01*
X140769714Y-64881238D01*
X140674476Y-64976476D01*
X140579238Y-65024095D01*
X118132095Y-64378380D02*
X118132095Y-65187904D01*
X118179714Y-65283142D01*
X118227333Y-65330761D01*
X118322571Y-65378380D01*
X118513047Y-65378380D01*
X118608285Y-65330761D01*
X118655904Y-65283142D01*
X118703523Y-65187904D01*
X118703523Y-64378380D01*
X119703523Y-65378380D02*
X119132095Y-65378380D01*
X119417809Y-65378380D02*
X119417809Y-64378380D01*
X119322571Y-64521238D01*
X119227333Y-64616476D01*
X119132095Y-64664095D01*
X105076666Y-64730380D02*
X105076666Y-65444666D01*
X105029047Y-65587523D01*
X104933809Y-65682761D01*
X104790952Y-65730380D01*
X104695714Y-65730380D01*
X106076666Y-65730380D02*
X105505238Y-65730380D01*
X105790952Y-65730380D02*
X105790952Y-64730380D01*
X105695714Y-64873238D01*
X105600476Y-64968476D01*
X105505238Y-65016095D01*
X85264666Y-64730380D02*
X85264666Y-65444666D01*
X85217047Y-65587523D01*
X85121809Y-65682761D01*
X84978952Y-65730380D01*
X84883714Y-65730380D01*
X85693238Y-64825619D02*
X85740857Y-64778000D01*
X85836095Y-64730380D01*
X86074190Y-64730380D01*
X86169428Y-64778000D01*
X86217047Y-64825619D01*
X86264666Y-64920857D01*
X86264666Y-65016095D01*
X86217047Y-65158952D01*
X85645619Y-65730380D01*
X86264666Y-65730380D01*
X143706666Y-64738380D02*
X143706666Y-65452666D01*
X143659047Y-65595523D01*
X143563809Y-65690761D01*
X143420952Y-65738380D01*
X143325714Y-65738380D01*
X144135238Y-64833619D02*
X144182857Y-64786000D01*
X144278095Y-64738380D01*
X144516190Y-64738380D01*
X144611428Y-64786000D01*
X144659047Y-64833619D01*
X144706666Y-64928857D01*
X144706666Y-65024095D01*
X144659047Y-65166952D01*
X144087619Y-65738380D01*
X144706666Y-65738380D01*
X132000666Y-64730380D02*
X132000666Y-65444666D01*
X131953047Y-65587523D01*
X131857809Y-65682761D01*
X131714952Y-65730380D01*
X131619714Y-65730380D01*
X132429238Y-64825619D02*
X132476857Y-64778000D01*
X132572095Y-64730380D01*
X132810190Y-64730380D01*
X132905428Y-64778000D01*
X132953047Y-64825619D01*
X133000666Y-64920857D01*
X133000666Y-65016095D01*
X132953047Y-65158952D01*
X132381619Y-65730380D01*
X133000666Y-65730380D01*
X120338666Y-64738380D02*
X120338666Y-65452666D01*
X120291047Y-65595523D01*
X120195809Y-65690761D01*
X120052952Y-65738380D01*
X119957714Y-65738380D01*
X120767238Y-64833619D02*
X120814857Y-64786000D01*
X120910095Y-64738380D01*
X121148190Y-64738380D01*
X121243428Y-64786000D01*
X121291047Y-64833619D01*
X121338666Y-64928857D01*
X121338666Y-65024095D01*
X121291047Y-65166952D01*
X120719619Y-65738380D01*
X121338666Y-65738380D01*
X70046666Y-64738380D02*
X70046666Y-65452666D01*
X69999047Y-65595523D01*
X69903809Y-65690761D01*
X69760952Y-65738380D01*
X69665714Y-65738380D01*
X71046666Y-65738380D02*
X70475238Y-65738380D01*
X70760952Y-65738380D02*
X70760952Y-64738380D01*
X70665714Y-64881238D01*
X70570476Y-64976476D01*
X70475238Y-65024095D01*
X71396095Y-64378380D02*
X71396095Y-65187904D01*
X71443714Y-65283142D01*
X71491333Y-65330761D01*
X71586571Y-65378380D01*
X71777047Y-65378380D01*
X71872285Y-65330761D01*
X71919904Y-65283142D01*
X71967523Y-65187904D01*
X71967523Y-64378380D01*
X72967523Y-65378380D02*
X72396095Y-65378380D01*
X72681809Y-65378380D02*
X72681809Y-64378380D01*
X72586571Y-64521238D01*
X72491333Y-64616476D01*
X72396095Y-64664095D01*
X83058095Y-64370380D02*
X83058095Y-65179904D01*
X83105714Y-65275142D01*
X83153333Y-65322761D01*
X83248571Y-65370380D01*
X83439047Y-65370380D01*
X83534285Y-65322761D01*
X83581904Y-65275142D01*
X83629523Y-65179904D01*
X83629523Y-64370380D01*
X84629523Y-65370380D02*
X84058095Y-65370380D01*
X84343809Y-65370380D02*
X84343809Y-64370380D01*
X84248571Y-64513238D01*
X84153333Y-64608476D01*
X84058095Y-64656095D01*
X108632666Y-64730380D02*
X108632666Y-65444666D01*
X108585047Y-65587523D01*
X108489809Y-65682761D01*
X108346952Y-65730380D01*
X108251714Y-65730380D01*
X109061238Y-64825619D02*
X109108857Y-64778000D01*
X109204095Y-64730380D01*
X109442190Y-64730380D01*
X109537428Y-64778000D01*
X109585047Y-64825619D01*
X109632666Y-64920857D01*
X109632666Y-65016095D01*
X109585047Y-65158952D01*
X109013619Y-65730380D01*
X109632666Y-65730380D01*
X141500095Y-64378380D02*
X141500095Y-65187904D01*
X141547714Y-65283142D01*
X141595333Y-65330761D01*
X141690571Y-65378380D01*
X141881047Y-65378380D01*
X141976285Y-65330761D01*
X142023904Y-65283142D01*
X142071523Y-65187904D01*
X142071523Y-64378380D01*
X143071523Y-65378380D02*
X142500095Y-65378380D01*
X142785809Y-65378380D02*
X142785809Y-64378380D01*
X142690571Y-64521238D01*
X142595333Y-64616476D01*
X142500095Y-64664095D01*
X106426095Y-64370380D02*
X106426095Y-65179904D01*
X106473714Y-65275142D01*
X106521333Y-65322761D01*
X106616571Y-65370380D01*
X106807047Y-65370380D01*
X106902285Y-65322761D01*
X106949904Y-65275142D01*
X106997523Y-65179904D01*
X106997523Y-64370380D01*
X107997523Y-65370380D02*
X107426095Y-65370380D01*
X107711809Y-65370380D02*
X107711809Y-64370380D01*
X107616571Y-64513238D01*
X107521333Y-64608476D01*
X107426095Y-64656095D01*
X61896666Y-64730380D02*
X61896666Y-65444666D01*
X61849047Y-65587523D01*
X61753809Y-65682761D01*
X61610952Y-65730380D01*
X61515714Y-65730380D01*
X62325238Y-64825619D02*
X62372857Y-64778000D01*
X62468095Y-64730380D01*
X62706190Y-64730380D01*
X62801428Y-64778000D01*
X62849047Y-64825619D01*
X62896666Y-64920857D01*
X62896666Y-65016095D01*
X62849047Y-65158952D01*
X62277619Y-65730380D01*
X62896666Y-65730380D01*
X81708666Y-64730380D02*
X81708666Y-65444666D01*
X81661047Y-65587523D01*
X81565809Y-65682761D01*
X81422952Y-65730380D01*
X81327714Y-65730380D01*
X82708666Y-65730380D02*
X82137238Y-65730380D01*
X82422952Y-65730380D02*
X82422952Y-64730380D01*
X82327714Y-64873238D01*
X82232476Y-64968476D01*
X82137238Y-65016095D01*
X94764095Y-64378380D02*
X94764095Y-65187904D01*
X94811714Y-65283142D01*
X94859333Y-65330761D01*
X94954571Y-65378380D01*
X95145047Y-65378380D01*
X95240285Y-65330761D01*
X95287904Y-65283142D01*
X95335523Y-65187904D01*
X95335523Y-64378380D01*
X96335523Y-65378380D02*
X95764095Y-65378380D01*
X96049809Y-65378380D02*
X96049809Y-64378380D01*
X95954571Y-64521238D01*
X95859333Y-64616476D01*
X95764095Y-64664095D01*
X61896666Y-73874380D02*
X61896666Y-74588666D01*
X61849047Y-74731523D01*
X61753809Y-74826761D01*
X61610952Y-74874380D01*
X61515714Y-74874380D01*
X62325238Y-73969619D02*
X62372857Y-73922000D01*
X62468095Y-73874380D01*
X62706190Y-73874380D01*
X62801428Y-73922000D01*
X62849047Y-73969619D01*
X62896666Y-74064857D01*
X62896666Y-74160095D01*
X62849047Y-74302952D01*
X62277619Y-74874380D01*
X62896666Y-74874380D01*
X106426095Y-73514380D02*
X106426095Y-74323904D01*
X106473714Y-74419142D01*
X106521333Y-74466761D01*
X106616571Y-74514380D01*
X106807047Y-74514380D01*
X106902285Y-74466761D01*
X106949904Y-74419142D01*
X106997523Y-74323904D01*
X106997523Y-73514380D01*
X107997523Y-74514380D02*
X107426095Y-74514380D01*
X107711809Y-74514380D02*
X107711809Y-73514380D01*
X107616571Y-73657238D01*
X107521333Y-73752476D01*
X107426095Y-73800095D01*
X71396095Y-73522380D02*
X71396095Y-74331904D01*
X71443714Y-74427142D01*
X71491333Y-74474761D01*
X71586571Y-74522380D01*
X71777047Y-74522380D01*
X71872285Y-74474761D01*
X71919904Y-74427142D01*
X71967523Y-74331904D01*
X71967523Y-73522380D01*
X72967523Y-74522380D02*
X72396095Y-74522380D01*
X72681809Y-74522380D02*
X72681809Y-73522380D01*
X72586571Y-73665238D01*
X72491333Y-73760476D01*
X72396095Y-73808095D01*
X129794095Y-64370380D02*
X129794095Y-65179904D01*
X129841714Y-65275142D01*
X129889333Y-65322761D01*
X129984571Y-65370380D01*
X130175047Y-65370380D01*
X130270285Y-65322761D01*
X130317904Y-65275142D01*
X130365523Y-65179904D01*
X130365523Y-64370380D01*
X131365523Y-65370380D02*
X130794095Y-65370380D01*
X131079809Y-65370380D02*
X131079809Y-64370380D01*
X130984571Y-64513238D01*
X130889333Y-64608476D01*
X130794095Y-64656095D01*
X141500095Y-73522380D02*
X141500095Y-74331904D01*
X141547714Y-74427142D01*
X141595333Y-74474761D01*
X141690571Y-74522380D01*
X141881047Y-74522380D01*
X141976285Y-74474761D01*
X142023904Y-74427142D01*
X142071523Y-74331904D01*
X142071523Y-73522380D01*
X143071523Y-74522380D02*
X142500095Y-74522380D01*
X142785809Y-74522380D02*
X142785809Y-73522380D01*
X142690571Y-73665238D01*
X142595333Y-73760476D01*
X142500095Y-73808095D01*
X58340666Y-73874380D02*
X58340666Y-74588666D01*
X58293047Y-74731523D01*
X58197809Y-74826761D01*
X58054952Y-74874380D01*
X57959714Y-74874380D01*
X59340666Y-74874380D02*
X58769238Y-74874380D01*
X59054952Y-74874380D02*
X59054952Y-73874380D01*
X58959714Y-74017238D01*
X58864476Y-74112476D01*
X58769238Y-74160095D01*
X140150666Y-73882380D02*
X140150666Y-74596666D01*
X140103047Y-74739523D01*
X140007809Y-74834761D01*
X139864952Y-74882380D01*
X139769714Y-74882380D01*
X141150666Y-74882380D02*
X140579238Y-74882380D01*
X140864952Y-74882380D02*
X140864952Y-73882380D01*
X140769714Y-74025238D01*
X140674476Y-74120476D01*
X140579238Y-74168095D01*
X128444666Y-64730380D02*
X128444666Y-65444666D01*
X128397047Y-65587523D01*
X128301809Y-65682761D01*
X128158952Y-65730380D01*
X128063714Y-65730380D01*
X129444666Y-65730380D02*
X128873238Y-65730380D01*
X129158952Y-65730380D02*
X129158952Y-64730380D01*
X129063714Y-64873238D01*
X128968476Y-64968476D01*
X128873238Y-65016095D01*
X143706666Y-73882380D02*
X143706666Y-74596666D01*
X143659047Y-74739523D01*
X143563809Y-74834761D01*
X143420952Y-74882380D01*
X143325714Y-74882380D01*
X144135238Y-73977619D02*
X144182857Y-73930000D01*
X144278095Y-73882380D01*
X144516190Y-73882380D01*
X144611428Y-73930000D01*
X144659047Y-73977619D01*
X144706666Y-74072857D01*
X144706666Y-74168095D01*
X144659047Y-74310952D01*
X144087619Y-74882380D01*
X144706666Y-74882380D01*
X108632666Y-73874380D02*
X108632666Y-74588666D01*
X108585047Y-74731523D01*
X108489809Y-74826761D01*
X108346952Y-74874380D01*
X108251714Y-74874380D01*
X109061238Y-73969619D02*
X109108857Y-73922000D01*
X109204095Y-73874380D01*
X109442190Y-73874380D01*
X109537428Y-73922000D01*
X109585047Y-73969619D01*
X109632666Y-74064857D01*
X109632666Y-74160095D01*
X109585047Y-74302952D01*
X109013619Y-74874380D01*
X109632666Y-74874380D01*
X93414666Y-64738380D02*
X93414666Y-65452666D01*
X93367047Y-65595523D01*
X93271809Y-65690761D01*
X93128952Y-65738380D01*
X93033714Y-65738380D01*
X94414666Y-65738380D02*
X93843238Y-65738380D01*
X94128952Y-65738380D02*
X94128952Y-64738380D01*
X94033714Y-64881238D01*
X93938476Y-64976476D01*
X93843238Y-65024095D01*
X81708666Y-73874380D02*
X81708666Y-74588666D01*
X81661047Y-74731523D01*
X81565809Y-74826761D01*
X81422952Y-74874380D01*
X81327714Y-74874380D01*
X82708666Y-74874380D02*
X82137238Y-74874380D01*
X82422952Y-74874380D02*
X82422952Y-73874380D01*
X82327714Y-74017238D01*
X82232476Y-74112476D01*
X82137238Y-74160095D01*
X83058095Y-73514380D02*
X83058095Y-74323904D01*
X83105714Y-74419142D01*
X83153333Y-74466761D01*
X83248571Y-74514380D01*
X83439047Y-74514380D01*
X83534285Y-74466761D01*
X83581904Y-74419142D01*
X83629523Y-74323904D01*
X83629523Y-73514380D01*
X84629523Y-74514380D02*
X84058095Y-74514380D01*
X84343809Y-74514380D02*
X84343809Y-73514380D01*
X84248571Y-73657238D01*
X84153333Y-73752476D01*
X84058095Y-73800095D01*
X96970666Y-64738380D02*
X96970666Y-65452666D01*
X96923047Y-65595523D01*
X96827809Y-65690761D01*
X96684952Y-65738380D01*
X96589714Y-65738380D01*
X97399238Y-64833619D02*
X97446857Y-64786000D01*
X97542095Y-64738380D01*
X97780190Y-64738380D01*
X97875428Y-64786000D01*
X97923047Y-64833619D01*
X97970666Y-64928857D01*
X97970666Y-65024095D01*
X97923047Y-65166952D01*
X97351619Y-65738380D01*
X97970666Y-65738380D01*
X105076666Y-73874380D02*
X105076666Y-74588666D01*
X105029047Y-74731523D01*
X104933809Y-74826761D01*
X104790952Y-74874380D01*
X104695714Y-74874380D01*
X106076666Y-74874380D02*
X105505238Y-74874380D01*
X105790952Y-74874380D02*
X105790952Y-73874380D01*
X105695714Y-74017238D01*
X105600476Y-74112476D01*
X105505238Y-74160095D01*
X116782666Y-64738380D02*
X116782666Y-65452666D01*
X116735047Y-65595523D01*
X116639809Y-65690761D01*
X116496952Y-65738380D01*
X116401714Y-65738380D01*
X117782666Y-65738380D02*
X117211238Y-65738380D01*
X117496952Y-65738380D02*
X117496952Y-64738380D01*
X117401714Y-64881238D01*
X117306476Y-64976476D01*
X117211238Y-65024095D01*
X59690095Y-73514380D02*
X59690095Y-74323904D01*
X59737714Y-74419142D01*
X59785333Y-74466761D01*
X59880571Y-74514380D01*
X60071047Y-74514380D01*
X60166285Y-74466761D01*
X60213904Y-74419142D01*
X60261523Y-74323904D01*
X60261523Y-73514380D01*
X61261523Y-74514380D02*
X60690095Y-74514380D01*
X60975809Y-74514380D02*
X60975809Y-73514380D01*
X60880571Y-73657238D01*
X60785333Y-73752476D01*
X60690095Y-73800095D01*
X118132095Y-73522380D02*
X118132095Y-74331904D01*
X118179714Y-74427142D01*
X118227333Y-74474761D01*
X118322571Y-74522380D01*
X118513047Y-74522380D01*
X118608285Y-74474761D01*
X118655904Y-74427142D01*
X118703523Y-74331904D01*
X118703523Y-73522380D01*
X119703523Y-74522380D02*
X119132095Y-74522380D01*
X119417809Y-74522380D02*
X119417809Y-73522380D01*
X119322571Y-73665238D01*
X119227333Y-73760476D01*
X119132095Y-73808095D01*
X141500095Y-91810380D02*
X141500095Y-92619904D01*
X141547714Y-92715142D01*
X141595333Y-92762761D01*
X141690571Y-92810380D01*
X141881047Y-92810380D01*
X141976285Y-92762761D01*
X142023904Y-92715142D01*
X142071523Y-92619904D01*
X142071523Y-91810380D01*
X143071523Y-92810380D02*
X142500095Y-92810380D01*
X142785809Y-92810380D02*
X142785809Y-91810380D01*
X142690571Y-91953238D01*
X142595333Y-92048476D01*
X142500095Y-92096095D01*
X58340666Y-92162380D02*
X58340666Y-92876666D01*
X58293047Y-93019523D01*
X58197809Y-93114761D01*
X58054952Y-93162380D01*
X57959714Y-93162380D01*
X59340666Y-93162380D02*
X58769238Y-93162380D01*
X59054952Y-93162380D02*
X59054952Y-92162380D01*
X58959714Y-92305238D01*
X58864476Y-92400476D01*
X58769238Y-92448095D01*
X140150666Y-92170380D02*
X140150666Y-92884666D01*
X140103047Y-93027523D01*
X140007809Y-93122761D01*
X139864952Y-93170380D01*
X139769714Y-93170380D01*
X141150666Y-93170380D02*
X140579238Y-93170380D01*
X140864952Y-93170380D02*
X140864952Y-92170380D01*
X140769714Y-92313238D01*
X140674476Y-92408476D01*
X140579238Y-92456095D01*
X143706666Y-92170380D02*
X143706666Y-92884666D01*
X143659047Y-93027523D01*
X143563809Y-93122761D01*
X143420952Y-93170380D01*
X143325714Y-93170380D01*
X144135238Y-92265619D02*
X144182857Y-92218000D01*
X144278095Y-92170380D01*
X144516190Y-92170380D01*
X144611428Y-92218000D01*
X144659047Y-92265619D01*
X144706666Y-92360857D01*
X144706666Y-92456095D01*
X144659047Y-92598952D01*
X144087619Y-93170380D01*
X144706666Y-93170380D01*
X59690095Y-91802380D02*
X59690095Y-92611904D01*
X59737714Y-92707142D01*
X59785333Y-92754761D01*
X59880571Y-92802380D01*
X60071047Y-92802380D01*
X60166285Y-92754761D01*
X60213904Y-92707142D01*
X60261523Y-92611904D01*
X60261523Y-91802380D01*
X61261523Y-92802380D02*
X60690095Y-92802380D01*
X60975809Y-92802380D02*
X60975809Y-91802380D01*
X60880571Y-91945238D01*
X60785333Y-92040476D01*
X60690095Y-92088095D01*
X61896666Y-92162380D02*
X61896666Y-92876666D01*
X61849047Y-93019523D01*
X61753809Y-93114761D01*
X61610952Y-93162380D01*
X61515714Y-93162380D01*
X62325238Y-92257619D02*
X62372857Y-92210000D01*
X62468095Y-92162380D01*
X62706190Y-92162380D01*
X62801428Y-92210000D01*
X62849047Y-92257619D01*
X62896666Y-92352857D01*
X62896666Y-92448095D01*
X62849047Y-92590952D01*
X62277619Y-93162380D01*
X62896666Y-93162380D01*
X118132095Y-91810380D02*
X118132095Y-92619904D01*
X118179714Y-92715142D01*
X118227333Y-92762761D01*
X118322571Y-92810380D01*
X118513047Y-92810380D01*
X118608285Y-92762761D01*
X118655904Y-92715142D01*
X118703523Y-92619904D01*
X118703523Y-91810380D01*
X119703523Y-92810380D02*
X119132095Y-92810380D01*
X119417809Y-92810380D02*
X119417809Y-91810380D01*
X119322571Y-91953238D01*
X119227333Y-92048476D01*
X119132095Y-92096095D01*
X96970666Y-83026380D02*
X96970666Y-83740666D01*
X96923047Y-83883523D01*
X96827809Y-83978761D01*
X96684952Y-84026380D01*
X96589714Y-84026380D01*
X97399238Y-83121619D02*
X97446857Y-83074000D01*
X97542095Y-83026380D01*
X97780190Y-83026380D01*
X97875428Y-83074000D01*
X97923047Y-83121619D01*
X97970666Y-83216857D01*
X97970666Y-83312095D01*
X97923047Y-83454952D01*
X97351619Y-84026380D01*
X97970666Y-84026380D01*
X128444666Y-83018380D02*
X128444666Y-83732666D01*
X128397047Y-83875523D01*
X128301809Y-83970761D01*
X128158952Y-84018380D01*
X128063714Y-84018380D01*
X129444666Y-84018380D02*
X128873238Y-84018380D01*
X129158952Y-84018380D02*
X129158952Y-83018380D01*
X129063714Y-83161238D01*
X128968476Y-83256476D01*
X128873238Y-83304095D01*
X108632666Y-92162380D02*
X108632666Y-92876666D01*
X108585047Y-93019523D01*
X108489809Y-93114761D01*
X108346952Y-93162380D01*
X108251714Y-93162380D01*
X109061238Y-92257619D02*
X109108857Y-92210000D01*
X109204095Y-92162380D01*
X109442190Y-92162380D01*
X109537428Y-92210000D01*
X109585047Y-92257619D01*
X109632666Y-92352857D01*
X109632666Y-92448095D01*
X109585047Y-92590952D01*
X109013619Y-93162380D01*
X109632666Y-93162380D01*
X129794095Y-82658380D02*
X129794095Y-83467904D01*
X129841714Y-83563142D01*
X129889333Y-83610761D01*
X129984571Y-83658380D01*
X130175047Y-83658380D01*
X130270285Y-83610761D01*
X130317904Y-83563142D01*
X130365523Y-83467904D01*
X130365523Y-82658380D01*
X131365523Y-83658380D02*
X130794095Y-83658380D01*
X131079809Y-83658380D02*
X131079809Y-82658380D01*
X130984571Y-82801238D01*
X130889333Y-82896476D01*
X130794095Y-82944095D01*
X116782666Y-83026380D02*
X116782666Y-83740666D01*
X116735047Y-83883523D01*
X116639809Y-83978761D01*
X116496952Y-84026380D01*
X116401714Y-84026380D01*
X117782666Y-84026380D02*
X117211238Y-84026380D01*
X117496952Y-84026380D02*
X117496952Y-83026380D01*
X117401714Y-83169238D01*
X117306476Y-83264476D01*
X117211238Y-83312095D01*
X105076666Y-92162380D02*
X105076666Y-92876666D01*
X105029047Y-93019523D01*
X104933809Y-93114761D01*
X104790952Y-93162380D01*
X104695714Y-93162380D01*
X106076666Y-93162380D02*
X105505238Y-93162380D01*
X105790952Y-93162380D02*
X105790952Y-92162380D01*
X105695714Y-92305238D01*
X105600476Y-92400476D01*
X105505238Y-92448095D01*
X93414666Y-83026380D02*
X93414666Y-83740666D01*
X93367047Y-83883523D01*
X93271809Y-83978761D01*
X93128952Y-84026380D01*
X93033714Y-84026380D01*
X94414666Y-84026380D02*
X93843238Y-84026380D01*
X94128952Y-84026380D02*
X94128952Y-83026380D01*
X94033714Y-83169238D01*
X93938476Y-83264476D01*
X93843238Y-83312095D01*
X106426095Y-91802380D02*
X106426095Y-92611904D01*
X106473714Y-92707142D01*
X106521333Y-92754761D01*
X106616571Y-92802380D01*
X106807047Y-92802380D01*
X106902285Y-92754761D01*
X106949904Y-92707142D01*
X106997523Y-92611904D01*
X106997523Y-91802380D01*
X107997523Y-92802380D02*
X107426095Y-92802380D01*
X107711809Y-92802380D02*
X107711809Y-91802380D01*
X107616571Y-91945238D01*
X107521333Y-92040476D01*
X107426095Y-92088095D01*
X71396095Y-91810380D02*
X71396095Y-92619904D01*
X71443714Y-92715142D01*
X71491333Y-92762761D01*
X71586571Y-92810380D01*
X71777047Y-92810380D01*
X71872285Y-92762761D01*
X71919904Y-92715142D01*
X71967523Y-92619904D01*
X71967523Y-91810380D01*
X72967523Y-92810380D02*
X72396095Y-92810380D01*
X72681809Y-92810380D02*
X72681809Y-91810380D01*
X72586571Y-91953238D01*
X72491333Y-92048476D01*
X72396095Y-92096095D01*
X81708666Y-92162380D02*
X81708666Y-92876666D01*
X81661047Y-93019523D01*
X81565809Y-93114761D01*
X81422952Y-93162380D01*
X81327714Y-93162380D01*
X82708666Y-93162380D02*
X82137238Y-93162380D01*
X82422952Y-93162380D02*
X82422952Y-92162380D01*
X82327714Y-92305238D01*
X82232476Y-92400476D01*
X82137238Y-92448095D01*
X83058095Y-91802380D02*
X83058095Y-92611904D01*
X83105714Y-92707142D01*
X83153333Y-92754761D01*
X83248571Y-92802380D01*
X83439047Y-92802380D01*
X83534285Y-92754761D01*
X83581904Y-92707142D01*
X83629523Y-92611904D01*
X83629523Y-91802380D01*
X84629523Y-92802380D02*
X84058095Y-92802380D01*
X84343809Y-92802380D02*
X84343809Y-91802380D01*
X84248571Y-91945238D01*
X84153333Y-92040476D01*
X84058095Y-92088095D01*
X132000666Y-92162380D02*
X132000666Y-92876666D01*
X131953047Y-93019523D01*
X131857809Y-93114761D01*
X131714952Y-93162380D01*
X131619714Y-93162380D01*
X132429238Y-92257619D02*
X132476857Y-92210000D01*
X132572095Y-92162380D01*
X132810190Y-92162380D01*
X132905428Y-92210000D01*
X132953047Y-92257619D01*
X133000666Y-92352857D01*
X133000666Y-92448095D01*
X132953047Y-92590952D01*
X132381619Y-93162380D01*
X133000666Y-93162380D01*
X120338666Y-92170380D02*
X120338666Y-92884666D01*
X120291047Y-93027523D01*
X120195809Y-93122761D01*
X120052952Y-93170380D01*
X119957714Y-93170380D01*
X120767238Y-92265619D02*
X120814857Y-92218000D01*
X120910095Y-92170380D01*
X121148190Y-92170380D01*
X121243428Y-92218000D01*
X121291047Y-92265619D01*
X121338666Y-92360857D01*
X121338666Y-92456095D01*
X121291047Y-92598952D01*
X120719619Y-93170380D01*
X121338666Y-93170380D01*
X70046666Y-92170380D02*
X70046666Y-92884666D01*
X69999047Y-93027523D01*
X69903809Y-93122761D01*
X69760952Y-93170380D01*
X69665714Y-93170380D01*
X71046666Y-93170380D02*
X70475238Y-93170380D01*
X70760952Y-93170380D02*
X70760952Y-92170380D01*
X70665714Y-92313238D01*
X70570476Y-92408476D01*
X70475238Y-92456095D01*
X85264666Y-92162380D02*
X85264666Y-92876666D01*
X85217047Y-93019523D01*
X85121809Y-93114761D01*
X84978952Y-93162380D01*
X84883714Y-93162380D01*
X85693238Y-92257619D02*
X85740857Y-92210000D01*
X85836095Y-92162380D01*
X86074190Y-92162380D01*
X86169428Y-92210000D01*
X86217047Y-92257619D01*
X86264666Y-92352857D01*
X86264666Y-92448095D01*
X86217047Y-92590952D01*
X85645619Y-93162380D01*
X86264666Y-93162380D01*
X73602666Y-92170380D02*
X73602666Y-92884666D01*
X73555047Y-93027523D01*
X73459809Y-93122761D01*
X73316952Y-93170380D01*
X73221714Y-93170380D01*
X74031238Y-92265619D02*
X74078857Y-92218000D01*
X74174095Y-92170380D01*
X74412190Y-92170380D01*
X74507428Y-92218000D01*
X74555047Y-92265619D01*
X74602666Y-92360857D01*
X74602666Y-92456095D01*
X74555047Y-92598952D01*
X73983619Y-93170380D01*
X74602666Y-93170380D01*
X94764095Y-91810380D02*
X94764095Y-92619904D01*
X94811714Y-92715142D01*
X94859333Y-92762761D01*
X94954571Y-92810380D01*
X95145047Y-92810380D01*
X95240285Y-92762761D01*
X95287904Y-92715142D01*
X95335523Y-92619904D01*
X95335523Y-91810380D01*
X96335523Y-92810380D02*
X95764095Y-92810380D01*
X96049809Y-92810380D02*
X96049809Y-91810380D01*
X95954571Y-91953238D01*
X95859333Y-92048476D01*
X95764095Y-92096095D01*
X93414666Y-92170380D02*
X93414666Y-92884666D01*
X93367047Y-93027523D01*
X93271809Y-93122761D01*
X93128952Y-93170380D01*
X93033714Y-93170380D01*
X94414666Y-93170380D02*
X93843238Y-93170380D01*
X94128952Y-93170380D02*
X94128952Y-92170380D01*
X94033714Y-92313238D01*
X93938476Y-92408476D01*
X93843238Y-92456095D01*
X96970666Y-92170380D02*
X96970666Y-92884666D01*
X96923047Y-93027523D01*
X96827809Y-93122761D01*
X96684952Y-93170380D01*
X96589714Y-93170380D01*
X97399238Y-92265619D02*
X97446857Y-92218000D01*
X97542095Y-92170380D01*
X97780190Y-92170380D01*
X97875428Y-92218000D01*
X97923047Y-92265619D01*
X97970666Y-92360857D01*
X97970666Y-92456095D01*
X97923047Y-92598952D01*
X97351619Y-93170380D01*
X97970666Y-93170380D01*
X116782666Y-92170380D02*
X116782666Y-92884666D01*
X116735047Y-93027523D01*
X116639809Y-93122761D01*
X116496952Y-93170380D01*
X116401714Y-93170380D01*
X117782666Y-93170380D02*
X117211238Y-93170380D01*
X117496952Y-93170380D02*
X117496952Y-92170380D01*
X117401714Y-92313238D01*
X117306476Y-92408476D01*
X117211238Y-92456095D01*
X129794095Y-91802380D02*
X129794095Y-92611904D01*
X129841714Y-92707142D01*
X129889333Y-92754761D01*
X129984571Y-92802380D01*
X130175047Y-92802380D01*
X130270285Y-92754761D01*
X130317904Y-92707142D01*
X130365523Y-92611904D01*
X130365523Y-91802380D01*
X131365523Y-92802380D02*
X130794095Y-92802380D01*
X131079809Y-92802380D02*
X131079809Y-91802380D01*
X130984571Y-91945238D01*
X130889333Y-92040476D01*
X130794095Y-92088095D01*
X128444666Y-92162380D02*
X128444666Y-92876666D01*
X128397047Y-93019523D01*
X128301809Y-93114761D01*
X128158952Y-93162380D01*
X128063714Y-93162380D01*
X129444666Y-93162380D02*
X128873238Y-93162380D01*
X129158952Y-93162380D02*
X129158952Y-92162380D01*
X129063714Y-92305238D01*
X128968476Y-92400476D01*
X128873238Y-92448095D01*
X59690095Y-100946380D02*
X59690095Y-101755904D01*
X59737714Y-101851142D01*
X59785333Y-101898761D01*
X59880571Y-101946380D01*
X60071047Y-101946380D01*
X60166285Y-101898761D01*
X60213904Y-101851142D01*
X60261523Y-101755904D01*
X60261523Y-100946380D01*
X61261523Y-101946380D02*
X60690095Y-101946380D01*
X60975809Y-101946380D02*
X60975809Y-100946380D01*
X60880571Y-101089238D01*
X60785333Y-101184476D01*
X60690095Y-101232095D01*
X105076666Y-101306380D02*
X105076666Y-102020666D01*
X105029047Y-102163523D01*
X104933809Y-102258761D01*
X104790952Y-102306380D01*
X104695714Y-102306380D01*
X106076666Y-102306380D02*
X105505238Y-102306380D01*
X105790952Y-102306380D02*
X105790952Y-101306380D01*
X105695714Y-101449238D01*
X105600476Y-101544476D01*
X105505238Y-101592095D01*
X106426095Y-100946380D02*
X106426095Y-101755904D01*
X106473714Y-101851142D01*
X106521333Y-101898761D01*
X106616571Y-101946380D01*
X106807047Y-101946380D01*
X106902285Y-101898761D01*
X106949904Y-101851142D01*
X106997523Y-101755904D01*
X106997523Y-100946380D01*
X107997523Y-101946380D02*
X107426095Y-101946380D01*
X107711809Y-101946380D02*
X107711809Y-100946380D01*
X107616571Y-101089238D01*
X107521333Y-101184476D01*
X107426095Y-101232095D01*
X132000666Y-101306380D02*
X132000666Y-102020666D01*
X131953047Y-102163523D01*
X131857809Y-102258761D01*
X131714952Y-102306380D01*
X131619714Y-102306380D01*
X132429238Y-101401619D02*
X132476857Y-101354000D01*
X132572095Y-101306380D01*
X132810190Y-101306380D01*
X132905428Y-101354000D01*
X132953047Y-101401619D01*
X133000666Y-101496857D01*
X133000666Y-101592095D01*
X132953047Y-101734952D01*
X132381619Y-102306380D01*
X133000666Y-102306380D01*
X85264666Y-101306380D02*
X85264666Y-102020666D01*
X85217047Y-102163523D01*
X85121809Y-102258761D01*
X84978952Y-102306380D01*
X84883714Y-102306380D01*
X85693238Y-101401619D02*
X85740857Y-101354000D01*
X85836095Y-101306380D01*
X86074190Y-101306380D01*
X86169428Y-101354000D01*
X86217047Y-101401619D01*
X86264666Y-101496857D01*
X86264666Y-101592095D01*
X86217047Y-101734952D01*
X85645619Y-102306380D01*
X86264666Y-102306380D01*
X71396095Y-100954380D02*
X71396095Y-101763904D01*
X71443714Y-101859142D01*
X71491333Y-101906761D01*
X71586571Y-101954380D01*
X71777047Y-101954380D01*
X71872285Y-101906761D01*
X71919904Y-101859142D01*
X71967523Y-101763904D01*
X71967523Y-100954380D01*
X72967523Y-101954380D02*
X72396095Y-101954380D01*
X72681809Y-101954380D02*
X72681809Y-100954380D01*
X72586571Y-101097238D01*
X72491333Y-101192476D01*
X72396095Y-101240095D01*
X81708666Y-101306380D02*
X81708666Y-102020666D01*
X81661047Y-102163523D01*
X81565809Y-102258761D01*
X81422952Y-102306380D01*
X81327714Y-102306380D01*
X82708666Y-102306380D02*
X82137238Y-102306380D01*
X82422952Y-102306380D02*
X82422952Y-101306380D01*
X82327714Y-101449238D01*
X82232476Y-101544476D01*
X82137238Y-101592095D01*
X70046666Y-101314380D02*
X70046666Y-102028666D01*
X69999047Y-102171523D01*
X69903809Y-102266761D01*
X69760952Y-102314380D01*
X69665714Y-102314380D01*
X71046666Y-102314380D02*
X70475238Y-102314380D01*
X70760952Y-102314380D02*
X70760952Y-101314380D01*
X70665714Y-101457238D01*
X70570476Y-101552476D01*
X70475238Y-101600095D01*
X108632666Y-101306380D02*
X108632666Y-102020666D01*
X108585047Y-102163523D01*
X108489809Y-102258761D01*
X108346952Y-102306380D01*
X108251714Y-102306380D01*
X109061238Y-101401619D02*
X109108857Y-101354000D01*
X109204095Y-101306380D01*
X109442190Y-101306380D01*
X109537428Y-101354000D01*
X109585047Y-101401619D01*
X109632666Y-101496857D01*
X109632666Y-101592095D01*
X109585047Y-101734952D01*
X109013619Y-102306380D01*
X109632666Y-102306380D01*
X118132095Y-100954380D02*
X118132095Y-101763904D01*
X118179714Y-101859142D01*
X118227333Y-101906761D01*
X118322571Y-101954380D01*
X118513047Y-101954380D01*
X118608285Y-101906761D01*
X118655904Y-101859142D01*
X118703523Y-101763904D01*
X118703523Y-100954380D01*
X119703523Y-101954380D02*
X119132095Y-101954380D01*
X119417809Y-101954380D02*
X119417809Y-100954380D01*
X119322571Y-101097238D01*
X119227333Y-101192476D01*
X119132095Y-101240095D01*
X61896666Y-101306380D02*
X61896666Y-102020666D01*
X61849047Y-102163523D01*
X61753809Y-102258761D01*
X61610952Y-102306380D01*
X61515714Y-102306380D01*
X62325238Y-101401619D02*
X62372857Y-101354000D01*
X62468095Y-101306380D01*
X62706190Y-101306380D01*
X62801428Y-101354000D01*
X62849047Y-101401619D01*
X62896666Y-101496857D01*
X62896666Y-101592095D01*
X62849047Y-101734952D01*
X62277619Y-102306380D01*
X62896666Y-102306380D01*
X83058095Y-100946380D02*
X83058095Y-101755904D01*
X83105714Y-101851142D01*
X83153333Y-101898761D01*
X83248571Y-101946380D01*
X83439047Y-101946380D01*
X83534285Y-101898761D01*
X83581904Y-101851142D01*
X83629523Y-101755904D01*
X83629523Y-100946380D01*
X84629523Y-101946380D02*
X84058095Y-101946380D01*
X84343809Y-101946380D02*
X84343809Y-100946380D01*
X84248571Y-101089238D01*
X84153333Y-101184476D01*
X84058095Y-101232095D01*
X120338666Y-101314380D02*
X120338666Y-102028666D01*
X120291047Y-102171523D01*
X120195809Y-102266761D01*
X120052952Y-102314380D01*
X119957714Y-102314380D01*
X120767238Y-101409619D02*
X120814857Y-101362000D01*
X120910095Y-101314380D01*
X121148190Y-101314380D01*
X121243428Y-101362000D01*
X121291047Y-101409619D01*
X121338666Y-101504857D01*
X121338666Y-101600095D01*
X121291047Y-101742952D01*
X120719619Y-102314380D01*
X121338666Y-102314380D01*
X94764095Y-100954380D02*
X94764095Y-101763904D01*
X94811714Y-101859142D01*
X94859333Y-101906761D01*
X94954571Y-101954380D01*
X95145047Y-101954380D01*
X95240285Y-101906761D01*
X95287904Y-101859142D01*
X95335523Y-101763904D01*
X95335523Y-100954380D01*
X96335523Y-101954380D02*
X95764095Y-101954380D01*
X96049809Y-101954380D02*
X96049809Y-100954380D01*
X95954571Y-101097238D01*
X95859333Y-101192476D01*
X95764095Y-101240095D01*
X73602666Y-101314380D02*
X73602666Y-102028666D01*
X73555047Y-102171523D01*
X73459809Y-102266761D01*
X73316952Y-102314380D01*
X73221714Y-102314380D01*
X74031238Y-101409619D02*
X74078857Y-101362000D01*
X74174095Y-101314380D01*
X74412190Y-101314380D01*
X74507428Y-101362000D01*
X74555047Y-101409619D01*
X74602666Y-101504857D01*
X74602666Y-101600095D01*
X74555047Y-101742952D01*
X73983619Y-102314380D01*
X74602666Y-102314380D01*
X58340666Y-101306380D02*
X58340666Y-102020666D01*
X58293047Y-102163523D01*
X58197809Y-102258761D01*
X58054952Y-102306380D01*
X57959714Y-102306380D01*
X59340666Y-102306380D02*
X58769238Y-102306380D01*
X59054952Y-102306380D02*
X59054952Y-101306380D01*
X58959714Y-101449238D01*
X58864476Y-101544476D01*
X58769238Y-101592095D01*
X140150666Y-101314380D02*
X140150666Y-102028666D01*
X140103047Y-102171523D01*
X140007809Y-102266761D01*
X139864952Y-102314380D01*
X139769714Y-102314380D01*
X141150666Y-102314380D02*
X140579238Y-102314380D01*
X140864952Y-102314380D02*
X140864952Y-101314380D01*
X140769714Y-101457238D01*
X140674476Y-101552476D01*
X140579238Y-101600095D01*
X143706666Y-101314380D02*
X143706666Y-102028666D01*
X143659047Y-102171523D01*
X143563809Y-102266761D01*
X143420952Y-102314380D01*
X143325714Y-102314380D01*
X144135238Y-101409619D02*
X144182857Y-101362000D01*
X144278095Y-101314380D01*
X144516190Y-101314380D01*
X144611428Y-101362000D01*
X144659047Y-101409619D01*
X144706666Y-101504857D01*
X144706666Y-101600095D01*
X144659047Y-101742952D01*
X144087619Y-102314380D01*
X144706666Y-102314380D01*
X141500095Y-100954380D02*
X141500095Y-101763904D01*
X141547714Y-101859142D01*
X141595333Y-101906761D01*
X141690571Y-101954380D01*
X141881047Y-101954380D01*
X141976285Y-101906761D01*
X142023904Y-101859142D01*
X142071523Y-101763904D01*
X142071523Y-100954380D01*
X143071523Y-101954380D02*
X142500095Y-101954380D01*
X142785809Y-101954380D02*
X142785809Y-100954380D01*
X142690571Y-101097238D01*
X142595333Y-101192476D01*
X142500095Y-101240095D01*
X141500095Y-110098380D02*
X141500095Y-110907904D01*
X141547714Y-111003142D01*
X141595333Y-111050761D01*
X141690571Y-111098380D01*
X141881047Y-111098380D01*
X141976285Y-111050761D01*
X142023904Y-111003142D01*
X142071523Y-110907904D01*
X142071523Y-110098380D01*
X143071523Y-111098380D02*
X142500095Y-111098380D01*
X142785809Y-111098380D02*
X142785809Y-110098380D01*
X142690571Y-110241238D01*
X142595333Y-110336476D01*
X142500095Y-110384095D01*
X58340666Y-110450380D02*
X58340666Y-111164666D01*
X58293047Y-111307523D01*
X58197809Y-111402761D01*
X58054952Y-111450380D01*
X57959714Y-111450380D01*
X59340666Y-111450380D02*
X58769238Y-111450380D01*
X59054952Y-111450380D02*
X59054952Y-110450380D01*
X58959714Y-110593238D01*
X58864476Y-110688476D01*
X58769238Y-110736095D01*
X140150666Y-110458380D02*
X140150666Y-111172666D01*
X140103047Y-111315523D01*
X140007809Y-111410761D01*
X139864952Y-111458380D01*
X139769714Y-111458380D01*
X141150666Y-111458380D02*
X140579238Y-111458380D01*
X140864952Y-111458380D02*
X140864952Y-110458380D01*
X140769714Y-110601238D01*
X140674476Y-110696476D01*
X140579238Y-110744095D01*
X143706666Y-110458380D02*
X143706666Y-111172666D01*
X143659047Y-111315523D01*
X143563809Y-111410761D01*
X143420952Y-111458380D01*
X143325714Y-111458380D01*
X144135238Y-110553619D02*
X144182857Y-110506000D01*
X144278095Y-110458380D01*
X144516190Y-110458380D01*
X144611428Y-110506000D01*
X144659047Y-110553619D01*
X144706666Y-110648857D01*
X144706666Y-110744095D01*
X144659047Y-110886952D01*
X144087619Y-111458380D01*
X144706666Y-111458380D01*
X59690095Y-110090380D02*
X59690095Y-110899904D01*
X59737714Y-110995142D01*
X59785333Y-111042761D01*
X59880571Y-111090380D01*
X60071047Y-111090380D01*
X60166285Y-111042761D01*
X60213904Y-110995142D01*
X60261523Y-110899904D01*
X60261523Y-110090380D01*
X61261523Y-111090380D02*
X60690095Y-111090380D01*
X60975809Y-111090380D02*
X60975809Y-110090380D01*
X60880571Y-110233238D01*
X60785333Y-110328476D01*
X60690095Y-110376095D01*
X61896666Y-110450380D02*
X61896666Y-111164666D01*
X61849047Y-111307523D01*
X61753809Y-111402761D01*
X61610952Y-111450380D01*
X61515714Y-111450380D01*
X62325238Y-110545619D02*
X62372857Y-110498000D01*
X62468095Y-110450380D01*
X62706190Y-110450380D01*
X62801428Y-110498000D01*
X62849047Y-110545619D01*
X62896666Y-110640857D01*
X62896666Y-110736095D01*
X62849047Y-110878952D01*
X62277619Y-111450380D01*
X62896666Y-111450380D01*
X118132095Y-110098380D02*
X118132095Y-110907904D01*
X118179714Y-111003142D01*
X118227333Y-111050761D01*
X118322571Y-111098380D01*
X118513047Y-111098380D01*
X118608285Y-111050761D01*
X118655904Y-111003142D01*
X118703523Y-110907904D01*
X118703523Y-110098380D01*
X119703523Y-111098380D02*
X119132095Y-111098380D01*
X119417809Y-111098380D02*
X119417809Y-110098380D01*
X119322571Y-110241238D01*
X119227333Y-110336476D01*
X119132095Y-110384095D01*
X96970666Y-101314380D02*
X96970666Y-102028666D01*
X96923047Y-102171523D01*
X96827809Y-102266761D01*
X96684952Y-102314380D01*
X96589714Y-102314380D01*
X97399238Y-101409619D02*
X97446857Y-101362000D01*
X97542095Y-101314380D01*
X97780190Y-101314380D01*
X97875428Y-101362000D01*
X97923047Y-101409619D01*
X97970666Y-101504857D01*
X97970666Y-101600095D01*
X97923047Y-101742952D01*
X97351619Y-102314380D01*
X97970666Y-102314380D01*
X128444666Y-101306380D02*
X128444666Y-102020666D01*
X128397047Y-102163523D01*
X128301809Y-102258761D01*
X128158952Y-102306380D01*
X128063714Y-102306380D01*
X129444666Y-102306380D02*
X128873238Y-102306380D01*
X129158952Y-102306380D02*
X129158952Y-101306380D01*
X129063714Y-101449238D01*
X128968476Y-101544476D01*
X128873238Y-101592095D01*
X108632666Y-110450380D02*
X108632666Y-111164666D01*
X108585047Y-111307523D01*
X108489809Y-111402761D01*
X108346952Y-111450380D01*
X108251714Y-111450380D01*
X109061238Y-110545619D02*
X109108857Y-110498000D01*
X109204095Y-110450380D01*
X109442190Y-110450380D01*
X109537428Y-110498000D01*
X109585047Y-110545619D01*
X109632666Y-110640857D01*
X109632666Y-110736095D01*
X109585047Y-110878952D01*
X109013619Y-111450380D01*
X109632666Y-111450380D01*
X129794095Y-100946380D02*
X129794095Y-101755904D01*
X129841714Y-101851142D01*
X129889333Y-101898761D01*
X129984571Y-101946380D01*
X130175047Y-101946380D01*
X130270285Y-101898761D01*
X130317904Y-101851142D01*
X130365523Y-101755904D01*
X130365523Y-100946380D01*
X131365523Y-101946380D02*
X130794095Y-101946380D01*
X131079809Y-101946380D02*
X131079809Y-100946380D01*
X130984571Y-101089238D01*
X130889333Y-101184476D01*
X130794095Y-101232095D01*
X116782666Y-101314380D02*
X116782666Y-102028666D01*
X116735047Y-102171523D01*
X116639809Y-102266761D01*
X116496952Y-102314380D01*
X116401714Y-102314380D01*
X117782666Y-102314380D02*
X117211238Y-102314380D01*
X117496952Y-102314380D02*
X117496952Y-101314380D01*
X117401714Y-101457238D01*
X117306476Y-101552476D01*
X117211238Y-101600095D01*
X105076666Y-110450380D02*
X105076666Y-111164666D01*
X105029047Y-111307523D01*
X104933809Y-111402761D01*
X104790952Y-111450380D01*
X104695714Y-111450380D01*
X106076666Y-111450380D02*
X105505238Y-111450380D01*
X105790952Y-111450380D02*
X105790952Y-110450380D01*
X105695714Y-110593238D01*
X105600476Y-110688476D01*
X105505238Y-110736095D01*
X93414666Y-101314380D02*
X93414666Y-102028666D01*
X93367047Y-102171523D01*
X93271809Y-102266761D01*
X93128952Y-102314380D01*
X93033714Y-102314380D01*
X94414666Y-102314380D02*
X93843238Y-102314380D01*
X94128952Y-102314380D02*
X94128952Y-101314380D01*
X94033714Y-101457238D01*
X93938476Y-101552476D01*
X93843238Y-101600095D01*
X106426095Y-110090380D02*
X106426095Y-110899904D01*
X106473714Y-110995142D01*
X106521333Y-111042761D01*
X106616571Y-111090380D01*
X106807047Y-111090380D01*
X106902285Y-111042761D01*
X106949904Y-110995142D01*
X106997523Y-110899904D01*
X106997523Y-110090380D01*
X107997523Y-111090380D02*
X107426095Y-111090380D01*
X107711809Y-111090380D02*
X107711809Y-110090380D01*
X107616571Y-110233238D01*
X107521333Y-110328476D01*
X107426095Y-110376095D01*
X71396095Y-110098380D02*
X71396095Y-110907904D01*
X71443714Y-111003142D01*
X71491333Y-111050761D01*
X71586571Y-111098380D01*
X71777047Y-111098380D01*
X71872285Y-111050761D01*
X71919904Y-111003142D01*
X71967523Y-110907904D01*
X71967523Y-110098380D01*
X72967523Y-111098380D02*
X72396095Y-111098380D01*
X72681809Y-111098380D02*
X72681809Y-110098380D01*
X72586571Y-110241238D01*
X72491333Y-110336476D01*
X72396095Y-110384095D01*
X81708666Y-110450380D02*
X81708666Y-111164666D01*
X81661047Y-111307523D01*
X81565809Y-111402761D01*
X81422952Y-111450380D01*
X81327714Y-111450380D01*
X82708666Y-111450380D02*
X82137238Y-111450380D01*
X82422952Y-111450380D02*
X82422952Y-110450380D01*
X82327714Y-110593238D01*
X82232476Y-110688476D01*
X82137238Y-110736095D01*
X83058095Y-110090380D02*
X83058095Y-110899904D01*
X83105714Y-110995142D01*
X83153333Y-111042761D01*
X83248571Y-111090380D01*
X83439047Y-111090380D01*
X83534285Y-111042761D01*
X83581904Y-110995142D01*
X83629523Y-110899904D01*
X83629523Y-110090380D01*
X84629523Y-111090380D02*
X84058095Y-111090380D01*
X84343809Y-111090380D02*
X84343809Y-110090380D01*
X84248571Y-110233238D01*
X84153333Y-110328476D01*
X84058095Y-110376095D01*
X132000666Y-110450380D02*
X132000666Y-111164666D01*
X131953047Y-111307523D01*
X131857809Y-111402761D01*
X131714952Y-111450380D01*
X131619714Y-111450380D01*
X132429238Y-110545619D02*
X132476857Y-110498000D01*
X132572095Y-110450380D01*
X132810190Y-110450380D01*
X132905428Y-110498000D01*
X132953047Y-110545619D01*
X133000666Y-110640857D01*
X133000666Y-110736095D01*
X132953047Y-110878952D01*
X132381619Y-111450380D01*
X133000666Y-111450380D01*
X120338666Y-110458380D02*
X120338666Y-111172666D01*
X120291047Y-111315523D01*
X120195809Y-111410761D01*
X120052952Y-111458380D01*
X119957714Y-111458380D01*
X120767238Y-110553619D02*
X120814857Y-110506000D01*
X120910095Y-110458380D01*
X121148190Y-110458380D01*
X121243428Y-110506000D01*
X121291047Y-110553619D01*
X121338666Y-110648857D01*
X121338666Y-110744095D01*
X121291047Y-110886952D01*
X120719619Y-111458380D01*
X121338666Y-111458380D01*
X70046666Y-110458380D02*
X70046666Y-111172666D01*
X69999047Y-111315523D01*
X69903809Y-111410761D01*
X69760952Y-111458380D01*
X69665714Y-111458380D01*
X71046666Y-111458380D02*
X70475238Y-111458380D01*
X70760952Y-111458380D02*
X70760952Y-110458380D01*
X70665714Y-110601238D01*
X70570476Y-110696476D01*
X70475238Y-110744095D01*
X85264666Y-110450380D02*
X85264666Y-111164666D01*
X85217047Y-111307523D01*
X85121809Y-111402761D01*
X84978952Y-111450380D01*
X84883714Y-111450380D01*
X85693238Y-110545619D02*
X85740857Y-110498000D01*
X85836095Y-110450380D01*
X86074190Y-110450380D01*
X86169428Y-110498000D01*
X86217047Y-110545619D01*
X86264666Y-110640857D01*
X86264666Y-110736095D01*
X86217047Y-110878952D01*
X85645619Y-111450380D01*
X86264666Y-111450380D01*
X73602666Y-110458380D02*
X73602666Y-111172666D01*
X73555047Y-111315523D01*
X73459809Y-111410761D01*
X73316952Y-111458380D01*
X73221714Y-111458380D01*
X74031238Y-110553619D02*
X74078857Y-110506000D01*
X74174095Y-110458380D01*
X74412190Y-110458380D01*
X74507428Y-110506000D01*
X74555047Y-110553619D01*
X74602666Y-110648857D01*
X74602666Y-110744095D01*
X74555047Y-110886952D01*
X73983619Y-111458380D01*
X74602666Y-111458380D01*
X94764095Y-110098380D02*
X94764095Y-110907904D01*
X94811714Y-111003142D01*
X94859333Y-111050761D01*
X94954571Y-111098380D01*
X95145047Y-111098380D01*
X95240285Y-111050761D01*
X95287904Y-111003142D01*
X95335523Y-110907904D01*
X95335523Y-110098380D01*
X96335523Y-111098380D02*
X95764095Y-111098380D01*
X96049809Y-111098380D02*
X96049809Y-110098380D01*
X95954571Y-110241238D01*
X95859333Y-110336476D01*
X95764095Y-110384095D01*
X93414666Y-110458380D02*
X93414666Y-111172666D01*
X93367047Y-111315523D01*
X93271809Y-111410761D01*
X93128952Y-111458380D01*
X93033714Y-111458380D01*
X94414666Y-111458380D02*
X93843238Y-111458380D01*
X94128952Y-111458380D02*
X94128952Y-110458380D01*
X94033714Y-110601238D01*
X93938476Y-110696476D01*
X93843238Y-110744095D01*
X96970666Y-110458380D02*
X96970666Y-111172666D01*
X96923047Y-111315523D01*
X96827809Y-111410761D01*
X96684952Y-111458380D01*
X96589714Y-111458380D01*
X97399238Y-110553619D02*
X97446857Y-110506000D01*
X97542095Y-110458380D01*
X97780190Y-110458380D01*
X97875428Y-110506000D01*
X97923047Y-110553619D01*
X97970666Y-110648857D01*
X97970666Y-110744095D01*
X97923047Y-110886952D01*
X97351619Y-111458380D01*
X97970666Y-111458380D01*
X116782666Y-110458380D02*
X116782666Y-111172666D01*
X116735047Y-111315523D01*
X116639809Y-111410761D01*
X116496952Y-111458380D01*
X116401714Y-111458380D01*
X117782666Y-111458380D02*
X117211238Y-111458380D01*
X117496952Y-111458380D02*
X117496952Y-110458380D01*
X117401714Y-110601238D01*
X117306476Y-110696476D01*
X117211238Y-110744095D01*
X129794095Y-110090380D02*
X129794095Y-110899904D01*
X129841714Y-110995142D01*
X129889333Y-111042761D01*
X129984571Y-111090380D01*
X130175047Y-111090380D01*
X130270285Y-111042761D01*
X130317904Y-110995142D01*
X130365523Y-110899904D01*
X130365523Y-110090380D01*
X131365523Y-111090380D02*
X130794095Y-111090380D01*
X131079809Y-111090380D02*
X131079809Y-110090380D01*
X130984571Y-110233238D01*
X130889333Y-110328476D01*
X130794095Y-110376095D01*
X128444666Y-110450380D02*
X128444666Y-111164666D01*
X128397047Y-111307523D01*
X128301809Y-111402761D01*
X128158952Y-111450380D01*
X128063714Y-111450380D01*
X129444666Y-111450380D02*
X128873238Y-111450380D01*
X129158952Y-111450380D02*
X129158952Y-110450380D01*
X129063714Y-110593238D01*
X128968476Y-110688476D01*
X128873238Y-110736095D01*
X141500095Y-119242380D02*
X141500095Y-120051904D01*
X141547714Y-120147142D01*
X141595333Y-120194761D01*
X141690571Y-120242380D01*
X141881047Y-120242380D01*
X141976285Y-120194761D01*
X142023904Y-120147142D01*
X142071523Y-120051904D01*
X142071523Y-119242380D01*
X143071523Y-120242380D02*
X142500095Y-120242380D01*
X142785809Y-120242380D02*
X142785809Y-119242380D01*
X142690571Y-119385238D01*
X142595333Y-119480476D01*
X142500095Y-119528095D01*
X58340666Y-119594380D02*
X58340666Y-120308666D01*
X58293047Y-120451523D01*
X58197809Y-120546761D01*
X58054952Y-120594380D01*
X57959714Y-120594380D01*
X59340666Y-120594380D02*
X58769238Y-120594380D01*
X59054952Y-120594380D02*
X59054952Y-119594380D01*
X58959714Y-119737238D01*
X58864476Y-119832476D01*
X58769238Y-119880095D01*
X140150666Y-119602380D02*
X140150666Y-120316666D01*
X140103047Y-120459523D01*
X140007809Y-120554761D01*
X139864952Y-120602380D01*
X139769714Y-120602380D01*
X141150666Y-120602380D02*
X140579238Y-120602380D01*
X140864952Y-120602380D02*
X140864952Y-119602380D01*
X140769714Y-119745238D01*
X140674476Y-119840476D01*
X140579238Y-119888095D01*
X143706666Y-119602380D02*
X143706666Y-120316666D01*
X143659047Y-120459523D01*
X143563809Y-120554761D01*
X143420952Y-120602380D01*
X143325714Y-120602380D01*
X144135238Y-119697619D02*
X144182857Y-119650000D01*
X144278095Y-119602380D01*
X144516190Y-119602380D01*
X144611428Y-119650000D01*
X144659047Y-119697619D01*
X144706666Y-119792857D01*
X144706666Y-119888095D01*
X144659047Y-120030952D01*
X144087619Y-120602380D01*
X144706666Y-120602380D01*
X59690095Y-119234380D02*
X59690095Y-120043904D01*
X59737714Y-120139142D01*
X59785333Y-120186761D01*
X59880571Y-120234380D01*
X60071047Y-120234380D01*
X60166285Y-120186761D01*
X60213904Y-120139142D01*
X60261523Y-120043904D01*
X60261523Y-119234380D01*
X61261523Y-120234380D02*
X60690095Y-120234380D01*
X60975809Y-120234380D02*
X60975809Y-119234380D01*
X60880571Y-119377238D01*
X60785333Y-119472476D01*
X60690095Y-119520095D01*
X61896666Y-119594380D02*
X61896666Y-120308666D01*
X61849047Y-120451523D01*
X61753809Y-120546761D01*
X61610952Y-120594380D01*
X61515714Y-120594380D01*
X62325238Y-119689619D02*
X62372857Y-119642000D01*
X62468095Y-119594380D01*
X62706190Y-119594380D01*
X62801428Y-119642000D01*
X62849047Y-119689619D01*
X62896666Y-119784857D01*
X62896666Y-119880095D01*
X62849047Y-120022952D01*
X62277619Y-120594380D01*
X62896666Y-120594380D01*
X118132095Y-119242380D02*
X118132095Y-120051904D01*
X118179714Y-120147142D01*
X118227333Y-120194761D01*
X118322571Y-120242380D01*
X118513047Y-120242380D01*
X118608285Y-120194761D01*
X118655904Y-120147142D01*
X118703523Y-120051904D01*
X118703523Y-119242380D01*
X119703523Y-120242380D02*
X119132095Y-120242380D01*
X119417809Y-120242380D02*
X119417809Y-119242380D01*
X119322571Y-119385238D01*
X119227333Y-119480476D01*
X119132095Y-119528095D01*
X108632666Y-119594380D02*
X108632666Y-120308666D01*
X108585047Y-120451523D01*
X108489809Y-120546761D01*
X108346952Y-120594380D01*
X108251714Y-120594380D01*
X109061238Y-119689619D02*
X109108857Y-119642000D01*
X109204095Y-119594380D01*
X109442190Y-119594380D01*
X109537428Y-119642000D01*
X109585047Y-119689619D01*
X109632666Y-119784857D01*
X109632666Y-119880095D01*
X109585047Y-120022952D01*
X109013619Y-120594380D01*
X109632666Y-120594380D01*
X105076666Y-119594380D02*
X105076666Y-120308666D01*
X105029047Y-120451523D01*
X104933809Y-120546761D01*
X104790952Y-120594380D01*
X104695714Y-120594380D01*
X106076666Y-120594380D02*
X105505238Y-120594380D01*
X105790952Y-120594380D02*
X105790952Y-119594380D01*
X105695714Y-119737238D01*
X105600476Y-119832476D01*
X105505238Y-119880095D01*
X106426095Y-119234380D02*
X106426095Y-120043904D01*
X106473714Y-120139142D01*
X106521333Y-120186761D01*
X106616571Y-120234380D01*
X106807047Y-120234380D01*
X106902285Y-120186761D01*
X106949904Y-120139142D01*
X106997523Y-120043904D01*
X106997523Y-119234380D01*
X107997523Y-120234380D02*
X107426095Y-120234380D01*
X107711809Y-120234380D02*
X107711809Y-119234380D01*
X107616571Y-119377238D01*
X107521333Y-119472476D01*
X107426095Y-119520095D01*
X71396095Y-119242380D02*
X71396095Y-120051904D01*
X71443714Y-120147142D01*
X71491333Y-120194761D01*
X71586571Y-120242380D01*
X71777047Y-120242380D01*
X71872285Y-120194761D01*
X71919904Y-120147142D01*
X71967523Y-120051904D01*
X71967523Y-119242380D01*
X72967523Y-120242380D02*
X72396095Y-120242380D01*
X72681809Y-120242380D02*
X72681809Y-119242380D01*
X72586571Y-119385238D01*
X72491333Y-119480476D01*
X72396095Y-119528095D01*
X81708666Y-119594380D02*
X81708666Y-120308666D01*
X81661047Y-120451523D01*
X81565809Y-120546761D01*
X81422952Y-120594380D01*
X81327714Y-120594380D01*
X82708666Y-120594380D02*
X82137238Y-120594380D01*
X82422952Y-120594380D02*
X82422952Y-119594380D01*
X82327714Y-119737238D01*
X82232476Y-119832476D01*
X82137238Y-119880095D01*
X83058095Y-119234380D02*
X83058095Y-120043904D01*
X83105714Y-120139142D01*
X83153333Y-120186761D01*
X83248571Y-120234380D01*
X83439047Y-120234380D01*
X83534285Y-120186761D01*
X83581904Y-120139142D01*
X83629523Y-120043904D01*
X83629523Y-119234380D01*
X84629523Y-120234380D02*
X84058095Y-120234380D01*
X84343809Y-120234380D02*
X84343809Y-119234380D01*
X84248571Y-119377238D01*
X84153333Y-119472476D01*
X84058095Y-119520095D01*
X132000666Y-119594380D02*
X132000666Y-120308666D01*
X131953047Y-120451523D01*
X131857809Y-120546761D01*
X131714952Y-120594380D01*
X131619714Y-120594380D01*
X132429238Y-119689619D02*
X132476857Y-119642000D01*
X132572095Y-119594380D01*
X132810190Y-119594380D01*
X132905428Y-119642000D01*
X132953047Y-119689619D01*
X133000666Y-119784857D01*
X133000666Y-119880095D01*
X132953047Y-120022952D01*
X132381619Y-120594380D01*
X133000666Y-120594380D01*
X120338666Y-119602380D02*
X120338666Y-120316666D01*
X120291047Y-120459523D01*
X120195809Y-120554761D01*
X120052952Y-120602380D01*
X119957714Y-120602380D01*
X120767238Y-119697619D02*
X120814857Y-119650000D01*
X120910095Y-119602380D01*
X121148190Y-119602380D01*
X121243428Y-119650000D01*
X121291047Y-119697619D01*
X121338666Y-119792857D01*
X121338666Y-119888095D01*
X121291047Y-120030952D01*
X120719619Y-120602380D01*
X121338666Y-120602380D01*
X70046666Y-119602380D02*
X70046666Y-120316666D01*
X69999047Y-120459523D01*
X69903809Y-120554761D01*
X69760952Y-120602380D01*
X69665714Y-120602380D01*
X71046666Y-120602380D02*
X70475238Y-120602380D01*
X70760952Y-120602380D02*
X70760952Y-119602380D01*
X70665714Y-119745238D01*
X70570476Y-119840476D01*
X70475238Y-119888095D01*
X85264666Y-119594380D02*
X85264666Y-120308666D01*
X85217047Y-120451523D01*
X85121809Y-120546761D01*
X84978952Y-120594380D01*
X84883714Y-120594380D01*
X85693238Y-119689619D02*
X85740857Y-119642000D01*
X85836095Y-119594380D01*
X86074190Y-119594380D01*
X86169428Y-119642000D01*
X86217047Y-119689619D01*
X86264666Y-119784857D01*
X86264666Y-119880095D01*
X86217047Y-120022952D01*
X85645619Y-120594380D01*
X86264666Y-120594380D01*
X73602666Y-119602380D02*
X73602666Y-120316666D01*
X73555047Y-120459523D01*
X73459809Y-120554761D01*
X73316952Y-120602380D01*
X73221714Y-120602380D01*
X74031238Y-119697619D02*
X74078857Y-119650000D01*
X74174095Y-119602380D01*
X74412190Y-119602380D01*
X74507428Y-119650000D01*
X74555047Y-119697619D01*
X74602666Y-119792857D01*
X74602666Y-119888095D01*
X74555047Y-120030952D01*
X73983619Y-120602380D01*
X74602666Y-120602380D01*
X94764095Y-119242380D02*
X94764095Y-120051904D01*
X94811714Y-120147142D01*
X94859333Y-120194761D01*
X94954571Y-120242380D01*
X95145047Y-120242380D01*
X95240285Y-120194761D01*
X95287904Y-120147142D01*
X95335523Y-120051904D01*
X95335523Y-119242380D01*
X96335523Y-120242380D02*
X95764095Y-120242380D01*
X96049809Y-120242380D02*
X96049809Y-119242380D01*
X95954571Y-119385238D01*
X95859333Y-119480476D01*
X95764095Y-119528095D01*
X93414666Y-119602380D02*
X93414666Y-120316666D01*
X93367047Y-120459523D01*
X93271809Y-120554761D01*
X93128952Y-120602380D01*
X93033714Y-120602380D01*
X94414666Y-120602380D02*
X93843238Y-120602380D01*
X94128952Y-120602380D02*
X94128952Y-119602380D01*
X94033714Y-119745238D01*
X93938476Y-119840476D01*
X93843238Y-119888095D01*
X96970666Y-119602380D02*
X96970666Y-120316666D01*
X96923047Y-120459523D01*
X96827809Y-120554761D01*
X96684952Y-120602380D01*
X96589714Y-120602380D01*
X97399238Y-119697619D02*
X97446857Y-119650000D01*
X97542095Y-119602380D01*
X97780190Y-119602380D01*
X97875428Y-119650000D01*
X97923047Y-119697619D01*
X97970666Y-119792857D01*
X97970666Y-119888095D01*
X97923047Y-120030952D01*
X97351619Y-120602380D01*
X97970666Y-120602380D01*
X116782666Y-119602380D02*
X116782666Y-120316666D01*
X116735047Y-120459523D01*
X116639809Y-120554761D01*
X116496952Y-120602380D01*
X116401714Y-120602380D01*
X117782666Y-120602380D02*
X117211238Y-120602380D01*
X117496952Y-120602380D02*
X117496952Y-119602380D01*
X117401714Y-119745238D01*
X117306476Y-119840476D01*
X117211238Y-119888095D01*
X129794095Y-119234380D02*
X129794095Y-120043904D01*
X129841714Y-120139142D01*
X129889333Y-120186761D01*
X129984571Y-120234380D01*
X130175047Y-120234380D01*
X130270285Y-120186761D01*
X130317904Y-120139142D01*
X130365523Y-120043904D01*
X130365523Y-119234380D01*
X131365523Y-120234380D02*
X130794095Y-120234380D01*
X131079809Y-120234380D02*
X131079809Y-119234380D01*
X130984571Y-119377238D01*
X130889333Y-119472476D01*
X130794095Y-119520095D01*
X128444666Y-119594380D02*
X128444666Y-120308666D01*
X128397047Y-120451523D01*
X128301809Y-120546761D01*
X128158952Y-120594380D01*
X128063714Y-120594380D01*
X129444666Y-120594380D02*
X128873238Y-120594380D01*
X129158952Y-120594380D02*
X129158952Y-119594380D01*
X129063714Y-119737238D01*
X128968476Y-119832476D01*
X128873238Y-119880095D01*
X105076666Y-128738380D02*
X105076666Y-129452666D01*
X105029047Y-129595523D01*
X104933809Y-129690761D01*
X104790952Y-129738380D01*
X104695714Y-129738380D01*
X106076666Y-129738380D02*
X105505238Y-129738380D01*
X105790952Y-129738380D02*
X105790952Y-128738380D01*
X105695714Y-128881238D01*
X105600476Y-128976476D01*
X105505238Y-129024095D01*
X106426095Y-128378380D02*
X106426095Y-129187904D01*
X106473714Y-129283142D01*
X106521333Y-129330761D01*
X106616571Y-129378380D01*
X106807047Y-129378380D01*
X106902285Y-129330761D01*
X106949904Y-129283142D01*
X106997523Y-129187904D01*
X106997523Y-128378380D01*
X107997523Y-129378380D02*
X107426095Y-129378380D01*
X107711809Y-129378380D02*
X107711809Y-128378380D01*
X107616571Y-128521238D01*
X107521333Y-128616476D01*
X107426095Y-128664095D01*
X108632666Y-128738380D02*
X108632666Y-129452666D01*
X108585047Y-129595523D01*
X108489809Y-129690761D01*
X108346952Y-129738380D01*
X108251714Y-129738380D01*
X109061238Y-128833619D02*
X109108857Y-128786000D01*
X109204095Y-128738380D01*
X109442190Y-128738380D01*
X109537428Y-128786000D01*
X109585047Y-128833619D01*
X109632666Y-128928857D01*
X109632666Y-129024095D01*
X109585047Y-129166952D01*
X109013619Y-129738380D01*
X109632666Y-129738380D01*
X118132095Y-128386380D02*
X118132095Y-129195904D01*
X118179714Y-129291142D01*
X118227333Y-129338761D01*
X118322571Y-129386380D01*
X118513047Y-129386380D01*
X118608285Y-129338761D01*
X118655904Y-129291142D01*
X118703523Y-129195904D01*
X118703523Y-128386380D01*
X119703523Y-129386380D02*
X119132095Y-129386380D01*
X119417809Y-129386380D02*
X119417809Y-128386380D01*
X119322571Y-128529238D01*
X119227333Y-128624476D01*
X119132095Y-128672095D01*
X128444666Y-128738380D02*
X128444666Y-129452666D01*
X128397047Y-129595523D01*
X128301809Y-129690761D01*
X128158952Y-129738380D01*
X128063714Y-129738380D01*
X129444666Y-129738380D02*
X128873238Y-129738380D01*
X129158952Y-129738380D02*
X129158952Y-128738380D01*
X129063714Y-128881238D01*
X128968476Y-128976476D01*
X128873238Y-129024095D01*
X129794095Y-128378380D02*
X129794095Y-129187904D01*
X129841714Y-129283142D01*
X129889333Y-129330761D01*
X129984571Y-129378380D01*
X130175047Y-129378380D01*
X130270285Y-129330761D01*
X130317904Y-129283142D01*
X130365523Y-129187904D01*
X130365523Y-128378380D01*
X131365523Y-129378380D02*
X130794095Y-129378380D01*
X131079809Y-129378380D02*
X131079809Y-128378380D01*
X130984571Y-128521238D01*
X130889333Y-128616476D01*
X130794095Y-128664095D01*
X116782666Y-128746380D02*
X116782666Y-129460666D01*
X116735047Y-129603523D01*
X116639809Y-129698761D01*
X116496952Y-129746380D01*
X116401714Y-129746380D01*
X117782666Y-129746380D02*
X117211238Y-129746380D01*
X117496952Y-129746380D02*
X117496952Y-128746380D01*
X117401714Y-128889238D01*
X117306476Y-128984476D01*
X117211238Y-129032095D01*
X132000666Y-128738380D02*
X132000666Y-129452666D01*
X131953047Y-129595523D01*
X131857809Y-129690761D01*
X131714952Y-129738380D01*
X131619714Y-129738380D01*
X132429238Y-128833619D02*
X132476857Y-128786000D01*
X132572095Y-128738380D01*
X132810190Y-128738380D01*
X132905428Y-128786000D01*
X132953047Y-128833619D01*
X133000666Y-128928857D01*
X133000666Y-129024095D01*
X132953047Y-129166952D01*
X132381619Y-129738380D01*
X133000666Y-129738380D01*
X120338666Y-128746380D02*
X120338666Y-129460666D01*
X120291047Y-129603523D01*
X120195809Y-129698761D01*
X120052952Y-129746380D01*
X119957714Y-129746380D01*
X120767238Y-128841619D02*
X120814857Y-128794000D01*
X120910095Y-128746380D01*
X121148190Y-128746380D01*
X121243428Y-128794000D01*
X121291047Y-128841619D01*
X121338666Y-128936857D01*
X121338666Y-129032095D01*
X121291047Y-129174952D01*
X120719619Y-129746380D01*
X121338666Y-129746380D01*
X141500095Y-128386380D02*
X141500095Y-129195904D01*
X141547714Y-129291142D01*
X141595333Y-129338761D01*
X141690571Y-129386380D01*
X141881047Y-129386380D01*
X141976285Y-129338761D01*
X142023904Y-129291142D01*
X142071523Y-129195904D01*
X142071523Y-128386380D01*
X143071523Y-129386380D02*
X142500095Y-129386380D01*
X142785809Y-129386380D02*
X142785809Y-128386380D01*
X142690571Y-128529238D01*
X142595333Y-128624476D01*
X142500095Y-128672095D01*
X140150666Y-128746380D02*
X140150666Y-129460666D01*
X140103047Y-129603523D01*
X140007809Y-129698761D01*
X139864952Y-129746380D01*
X139769714Y-129746380D01*
X141150666Y-129746380D02*
X140579238Y-129746380D01*
X140864952Y-129746380D02*
X140864952Y-128746380D01*
X140769714Y-128889238D01*
X140674476Y-128984476D01*
X140579238Y-129032095D01*
X143706666Y-128746380D02*
X143706666Y-129460666D01*
X143659047Y-129603523D01*
X143563809Y-129698761D01*
X143420952Y-129746380D01*
X143325714Y-129746380D01*
X144135238Y-128841619D02*
X144182857Y-128794000D01*
X144278095Y-128746380D01*
X144516190Y-128746380D01*
X144611428Y-128794000D01*
X144659047Y-128841619D01*
X144706666Y-128936857D01*
X144706666Y-129032095D01*
X144659047Y-129174952D01*
X144087619Y-129746380D01*
X144706666Y-129746380D01*
X81708666Y-128738380D02*
X81708666Y-129452666D01*
X81661047Y-129595523D01*
X81565809Y-129690761D01*
X81422952Y-129738380D01*
X81327714Y-129738380D01*
X82708666Y-129738380D02*
X82137238Y-129738380D01*
X82422952Y-129738380D02*
X82422952Y-128738380D01*
X82327714Y-128881238D01*
X82232476Y-128976476D01*
X82137238Y-129024095D01*
X83058095Y-128378380D02*
X83058095Y-129187904D01*
X83105714Y-129283142D01*
X83153333Y-129330761D01*
X83248571Y-129378380D01*
X83439047Y-129378380D01*
X83534285Y-129330761D01*
X83581904Y-129283142D01*
X83629523Y-129187904D01*
X83629523Y-128378380D01*
X84629523Y-129378380D02*
X84058095Y-129378380D01*
X84343809Y-129378380D02*
X84343809Y-128378380D01*
X84248571Y-128521238D01*
X84153333Y-128616476D01*
X84058095Y-128664095D01*
X85264666Y-128738380D02*
X85264666Y-129452666D01*
X85217047Y-129595523D01*
X85121809Y-129690761D01*
X84978952Y-129738380D01*
X84883714Y-129738380D01*
X85693238Y-128833619D02*
X85740857Y-128786000D01*
X85836095Y-128738380D01*
X86074190Y-128738380D01*
X86169428Y-128786000D01*
X86217047Y-128833619D01*
X86264666Y-128928857D01*
X86264666Y-129024095D01*
X86217047Y-129166952D01*
X85645619Y-129738380D01*
X86264666Y-129738380D01*
X94764095Y-128386380D02*
X94764095Y-129195904D01*
X94811714Y-129291142D01*
X94859333Y-129338761D01*
X94954571Y-129386380D01*
X95145047Y-129386380D01*
X95240285Y-129338761D01*
X95287904Y-129291142D01*
X95335523Y-129195904D01*
X95335523Y-128386380D01*
X96335523Y-129386380D02*
X95764095Y-129386380D01*
X96049809Y-129386380D02*
X96049809Y-128386380D01*
X95954571Y-128529238D01*
X95859333Y-128624476D01*
X95764095Y-128672095D01*
X93414666Y-128746380D02*
X93414666Y-129460666D01*
X93367047Y-129603523D01*
X93271809Y-129698761D01*
X93128952Y-129746380D01*
X93033714Y-129746380D01*
X94414666Y-129746380D02*
X93843238Y-129746380D01*
X94128952Y-129746380D02*
X94128952Y-128746380D01*
X94033714Y-128889238D01*
X93938476Y-128984476D01*
X93843238Y-129032095D01*
X96970666Y-128746380D02*
X96970666Y-129460666D01*
X96923047Y-129603523D01*
X96827809Y-129698761D01*
X96684952Y-129746380D01*
X96589714Y-129746380D01*
X97399238Y-128841619D02*
X97446857Y-128794000D01*
X97542095Y-128746380D01*
X97780190Y-128746380D01*
X97875428Y-128794000D01*
X97923047Y-128841619D01*
X97970666Y-128936857D01*
X97970666Y-129032095D01*
X97923047Y-129174952D01*
X97351619Y-129746380D01*
X97970666Y-129746380D01*
X70046666Y-128746380D02*
X70046666Y-129460666D01*
X69999047Y-129603523D01*
X69903809Y-129698761D01*
X69760952Y-129746380D01*
X69665714Y-129746380D01*
X71046666Y-129746380D02*
X70475238Y-129746380D01*
X70760952Y-129746380D02*
X70760952Y-128746380D01*
X70665714Y-128889238D01*
X70570476Y-128984476D01*
X70475238Y-129032095D01*
X71396095Y-128386380D02*
X71396095Y-129195904D01*
X71443714Y-129291142D01*
X71491333Y-129338761D01*
X71586571Y-129386380D01*
X71777047Y-129386380D01*
X71872285Y-129338761D01*
X71919904Y-129291142D01*
X71967523Y-129195904D01*
X71967523Y-128386380D01*
X72967523Y-129386380D02*
X72396095Y-129386380D01*
X72681809Y-129386380D02*
X72681809Y-128386380D01*
X72586571Y-128529238D01*
X72491333Y-128624476D01*
X72396095Y-128672095D01*
X73602666Y-128746380D02*
X73602666Y-129460666D01*
X73555047Y-129603523D01*
X73459809Y-129698761D01*
X73316952Y-129746380D01*
X73221714Y-129746380D01*
X74031238Y-128841619D02*
X74078857Y-128794000D01*
X74174095Y-128746380D01*
X74412190Y-128746380D01*
X74507428Y-128794000D01*
X74555047Y-128841619D01*
X74602666Y-128936857D01*
X74602666Y-129032095D01*
X74555047Y-129174952D01*
X73983619Y-129746380D01*
X74602666Y-129746380D01*
X58340666Y-128738380D02*
X58340666Y-129452666D01*
X58293047Y-129595523D01*
X58197809Y-129690761D01*
X58054952Y-129738380D01*
X57959714Y-129738380D01*
X59340666Y-129738380D02*
X58769238Y-129738380D01*
X59054952Y-129738380D02*
X59054952Y-128738380D01*
X58959714Y-128881238D01*
X58864476Y-128976476D01*
X58769238Y-129024095D01*
X61896666Y-128738380D02*
X61896666Y-129452666D01*
X61849047Y-129595523D01*
X61753809Y-129690761D01*
X61610952Y-129738380D01*
X61515714Y-129738380D01*
X62325238Y-128833619D02*
X62372857Y-128786000D01*
X62468095Y-128738380D01*
X62706190Y-128738380D01*
X62801428Y-128786000D01*
X62849047Y-128833619D01*
X62896666Y-128928857D01*
X62896666Y-129024095D01*
X62849047Y-129166952D01*
X62277619Y-129738380D01*
X62896666Y-129738380D01*
X59690095Y-128378380D02*
X59690095Y-129187904D01*
X59737714Y-129283142D01*
X59785333Y-129330761D01*
X59880571Y-129378380D01*
X60071047Y-129378380D01*
X60166285Y-129330761D01*
X60213904Y-129283142D01*
X60261523Y-129187904D01*
X60261523Y-128378380D01*
X61261523Y-129378380D02*
X60690095Y-129378380D01*
X60975809Y-129378380D02*
X60975809Y-128378380D01*
X60880571Y-128521238D01*
X60785333Y-128616476D01*
X60690095Y-128664095D01*
M02*
