G04 #@! TF.GenerationSoftware,KiCad,Pcbnew,(5.1.4)-1*
G04 #@! TF.CreationDate,2020-04-16T11:04:59+01:00*
G04 #@! TF.ProjectId,sot23Breakout,736f7432-3342-4726-9561-6b6f75742e6b,rev?*
G04 #@! TF.SameCoordinates,Original*
G04 #@! TF.FileFunction,Copper,L2,Bot*
G04 #@! TF.FilePolarity,Positive*
%FSLAX46Y46*%
G04 Gerber Fmt 4.6, Leading zero omitted, Abs format (unit mm)*
G04 Created by KiCad (PCBNEW (5.1.4)-1) date 2020-04-16 11:04:59*
%MOMM*%
%LPD*%
G04 APERTURE LIST*
%ADD10O,1.700000X1.700000*%
%ADD11R,1.700000X1.700000*%
%ADD12C,0.800000*%
%ADD13C,0.254000*%
G04 APERTURE END LIST*
D10*
X226568000Y-129540000D03*
X226568000Y-127000000D03*
D11*
X226568000Y-124460000D03*
X234188000Y-124460000D03*
D10*
X234188000Y-127000000D03*
X234188000Y-129540000D03*
D12*
X230378000Y-130302000D03*
X230378000Y-123698000D03*
D13*
G36*
X232886815Y-123158815D02*
G01*
X232807463Y-123255506D01*
X232748498Y-123365820D01*
X232712188Y-123485518D01*
X232699928Y-123610000D01*
X232699928Y-125310000D01*
X232712188Y-125434482D01*
X232748498Y-125554180D01*
X232807463Y-125664494D01*
X232886815Y-125761185D01*
X232983506Y-125840537D01*
X233093820Y-125899502D01*
X233162687Y-125920393D01*
X233132866Y-125944866D01*
X232947294Y-126170986D01*
X232809401Y-126428966D01*
X232724487Y-126708889D01*
X232695815Y-127000000D01*
X232724487Y-127291111D01*
X232809401Y-127571034D01*
X232947294Y-127829014D01*
X233132866Y-128055134D01*
X233358986Y-128240706D01*
X233413791Y-128270000D01*
X233358986Y-128299294D01*
X233132866Y-128484866D01*
X232947294Y-128710986D01*
X232809401Y-128968966D01*
X232724487Y-129248889D01*
X232695815Y-129540000D01*
X232724487Y-129831111D01*
X232809401Y-130111034D01*
X232947294Y-130369014D01*
X233132866Y-130595134D01*
X233358986Y-130780706D01*
X233539140Y-130877000D01*
X227216860Y-130877000D01*
X227397014Y-130780706D01*
X227623134Y-130595134D01*
X227808706Y-130369014D01*
X227946599Y-130111034D01*
X228031513Y-129831111D01*
X228060185Y-129540000D01*
X228031513Y-129248889D01*
X227946599Y-128968966D01*
X227808706Y-128710986D01*
X227623134Y-128484866D01*
X227397014Y-128299294D01*
X227332477Y-128264799D01*
X227449355Y-128195178D01*
X227665588Y-128000269D01*
X227839641Y-127766920D01*
X227964825Y-127504099D01*
X228009476Y-127356890D01*
X227888155Y-127127000D01*
X226695000Y-127127000D01*
X226695000Y-127147000D01*
X226441000Y-127147000D01*
X226441000Y-127127000D01*
X226421000Y-127127000D01*
X226421000Y-126873000D01*
X226441000Y-126873000D01*
X226441000Y-126853000D01*
X226695000Y-126853000D01*
X226695000Y-126873000D01*
X227888155Y-126873000D01*
X228009476Y-126643110D01*
X227964825Y-126495901D01*
X227839641Y-126233080D01*
X227665588Y-125999731D01*
X227581534Y-125923966D01*
X227662180Y-125899502D01*
X227772494Y-125840537D01*
X227869185Y-125761185D01*
X227948537Y-125664494D01*
X228007502Y-125554180D01*
X228043812Y-125434482D01*
X228056072Y-125310000D01*
X228056072Y-123610000D01*
X228043812Y-123485518D01*
X228007502Y-123365820D01*
X227948537Y-123255506D01*
X227869185Y-123158815D01*
X227825544Y-123123000D01*
X232930456Y-123123000D01*
X232886815Y-123158815D01*
X232886815Y-123158815D01*
G37*
X232886815Y-123158815D02*
X232807463Y-123255506D01*
X232748498Y-123365820D01*
X232712188Y-123485518D01*
X232699928Y-123610000D01*
X232699928Y-125310000D01*
X232712188Y-125434482D01*
X232748498Y-125554180D01*
X232807463Y-125664494D01*
X232886815Y-125761185D01*
X232983506Y-125840537D01*
X233093820Y-125899502D01*
X233162687Y-125920393D01*
X233132866Y-125944866D01*
X232947294Y-126170986D01*
X232809401Y-126428966D01*
X232724487Y-126708889D01*
X232695815Y-127000000D01*
X232724487Y-127291111D01*
X232809401Y-127571034D01*
X232947294Y-127829014D01*
X233132866Y-128055134D01*
X233358986Y-128240706D01*
X233413791Y-128270000D01*
X233358986Y-128299294D01*
X233132866Y-128484866D01*
X232947294Y-128710986D01*
X232809401Y-128968966D01*
X232724487Y-129248889D01*
X232695815Y-129540000D01*
X232724487Y-129831111D01*
X232809401Y-130111034D01*
X232947294Y-130369014D01*
X233132866Y-130595134D01*
X233358986Y-130780706D01*
X233539140Y-130877000D01*
X227216860Y-130877000D01*
X227397014Y-130780706D01*
X227623134Y-130595134D01*
X227808706Y-130369014D01*
X227946599Y-130111034D01*
X228031513Y-129831111D01*
X228060185Y-129540000D01*
X228031513Y-129248889D01*
X227946599Y-128968966D01*
X227808706Y-128710986D01*
X227623134Y-128484866D01*
X227397014Y-128299294D01*
X227332477Y-128264799D01*
X227449355Y-128195178D01*
X227665588Y-128000269D01*
X227839641Y-127766920D01*
X227964825Y-127504099D01*
X228009476Y-127356890D01*
X227888155Y-127127000D01*
X226695000Y-127127000D01*
X226695000Y-127147000D01*
X226441000Y-127147000D01*
X226441000Y-127127000D01*
X226421000Y-127127000D01*
X226421000Y-126873000D01*
X226441000Y-126873000D01*
X226441000Y-126853000D01*
X226695000Y-126853000D01*
X226695000Y-126873000D01*
X227888155Y-126873000D01*
X228009476Y-126643110D01*
X227964825Y-126495901D01*
X227839641Y-126233080D01*
X227665588Y-125999731D01*
X227581534Y-125923966D01*
X227662180Y-125899502D01*
X227772494Y-125840537D01*
X227869185Y-125761185D01*
X227948537Y-125664494D01*
X228007502Y-125554180D01*
X228043812Y-125434482D01*
X228056072Y-125310000D01*
X228056072Y-123610000D01*
X228043812Y-123485518D01*
X228007502Y-123365820D01*
X227948537Y-123255506D01*
X227869185Y-123158815D01*
X227825544Y-123123000D01*
X232930456Y-123123000D01*
X232886815Y-123158815D01*
M02*
