G04 #@! TF.GenerationSoftware,KiCad,Pcbnew,(5.1.4)-1*
G04 #@! TF.CreationDate,2020-04-16T11:04:59+01:00*
G04 #@! TF.ProjectId,sot23Breakout,736f7432-3342-4726-9561-6b6f75742e6b,rev?*
G04 #@! TF.SameCoordinates,Original*
G04 #@! TF.FileFunction,Copper,L1,Top*
G04 #@! TF.FilePolarity,Positive*
%FSLAX46Y46*%
G04 Gerber Fmt 4.6, Leading zero omitted, Abs format (unit mm)*
G04 Created by KiCad (PCBNEW (5.1.4)-1) date 2020-04-16 11:04:59*
%MOMM*%
%LPD*%
G04 APERTURE LIST*
%ADD10O,1.700000X1.700000*%
%ADD11R,1.700000X1.700000*%
%ADD12R,1.060000X0.650000*%
%ADD13C,0.800000*%
%ADD14C,0.750000*%
%ADD15C,0.254000*%
G04 APERTURE END LIST*
D10*
X226568000Y-129540000D03*
X226568000Y-127000000D03*
D11*
X226568000Y-124460000D03*
X234188000Y-124460000D03*
D10*
X234188000Y-127000000D03*
X234188000Y-129540000D03*
D12*
X229278000Y-126050000D03*
X229278000Y-127000000D03*
X229278000Y-127950000D03*
X231478000Y-127950000D03*
X231478000Y-126050000D03*
X231478000Y-127000000D03*
D13*
X230378000Y-130302000D03*
X230378000Y-123698000D03*
D14*
X229278000Y-129025000D02*
X228763000Y-129540000D01*
X229278000Y-127950000D02*
X229278000Y-129025000D01*
X228763000Y-129540000D02*
X226568000Y-129540000D01*
X229278000Y-127000000D02*
X226568000Y-127000000D01*
X229278000Y-124975000D02*
X228763000Y-124460000D01*
X229278000Y-126050000D02*
X229278000Y-124975000D01*
X228763000Y-124460000D02*
X226568000Y-124460000D01*
X231478000Y-124975000D02*
X231993000Y-124460000D01*
X231478000Y-126050000D02*
X231478000Y-124975000D01*
X231993000Y-124460000D02*
X234188000Y-124460000D01*
X231478000Y-127000000D02*
X234188000Y-127000000D01*
X231478000Y-129025000D02*
X231993000Y-129540000D01*
X231478000Y-127950000D02*
X231478000Y-129025000D01*
X231993000Y-129540000D02*
X234188000Y-129540000D01*
D15*
G36*
X230417463Y-128629494D02*
G01*
X230468001Y-128691075D01*
X230468001Y-128975383D01*
X230463114Y-129025000D01*
X230482615Y-129222994D01*
X230540368Y-129413379D01*
X230634154Y-129588840D01*
X230760368Y-129742633D01*
X230798901Y-129774256D01*
X231243739Y-130219094D01*
X231275367Y-130257633D01*
X231429160Y-130383847D01*
X231560213Y-130453896D01*
X231604620Y-130477632D01*
X231795005Y-130535385D01*
X231993000Y-130554886D01*
X232042608Y-130550000D01*
X233095825Y-130550000D01*
X233132866Y-130595134D01*
X233358986Y-130780706D01*
X233539140Y-130877000D01*
X227216860Y-130877000D01*
X227397014Y-130780706D01*
X227623134Y-130595134D01*
X227660175Y-130550000D01*
X228713392Y-130550000D01*
X228763000Y-130554886D01*
X228960994Y-130535385D01*
X229003935Y-130522359D01*
X229151380Y-130477632D01*
X229326840Y-130383847D01*
X229480633Y-130257633D01*
X229512261Y-130219094D01*
X229957094Y-129774261D01*
X229995633Y-129742633D01*
X230121847Y-129588840D01*
X230215632Y-129413380D01*
X230273385Y-129222994D01*
X230288000Y-129074608D01*
X230292886Y-129025000D01*
X230288000Y-128975392D01*
X230288000Y-128691074D01*
X230338537Y-128629494D01*
X230378000Y-128555665D01*
X230417463Y-128629494D01*
X230417463Y-128629494D01*
G37*
X230417463Y-128629494D02*
X230468001Y-128691075D01*
X230468001Y-128975383D01*
X230463114Y-129025000D01*
X230482615Y-129222994D01*
X230540368Y-129413379D01*
X230634154Y-129588840D01*
X230760368Y-129742633D01*
X230798901Y-129774256D01*
X231243739Y-130219094D01*
X231275367Y-130257633D01*
X231429160Y-130383847D01*
X231560213Y-130453896D01*
X231604620Y-130477632D01*
X231795005Y-130535385D01*
X231993000Y-130554886D01*
X232042608Y-130550000D01*
X233095825Y-130550000D01*
X233132866Y-130595134D01*
X233358986Y-130780706D01*
X233539140Y-130877000D01*
X227216860Y-130877000D01*
X227397014Y-130780706D01*
X227623134Y-130595134D01*
X227660175Y-130550000D01*
X228713392Y-130550000D01*
X228763000Y-130554886D01*
X228960994Y-130535385D01*
X229003935Y-130522359D01*
X229151380Y-130477632D01*
X229326840Y-130383847D01*
X229480633Y-130257633D01*
X229512261Y-130219094D01*
X229957094Y-129774261D01*
X229995633Y-129742633D01*
X230121847Y-129588840D01*
X230215632Y-129413380D01*
X230273385Y-129222994D01*
X230288000Y-129074608D01*
X230292886Y-129025000D01*
X230288000Y-128975392D01*
X230288000Y-128691074D01*
X230338537Y-128629494D01*
X230378000Y-128555665D01*
X230417463Y-128629494D01*
G36*
X228158498Y-125480820D02*
G01*
X228122188Y-125600518D01*
X228109928Y-125725000D01*
X228109928Y-126375000D01*
X228122188Y-126499482D01*
X228129929Y-126525000D01*
X228122188Y-126550518D01*
X228109928Y-126675000D01*
X228113000Y-126714250D01*
X228271750Y-126873000D01*
X228353859Y-126873000D01*
X228393506Y-126905537D01*
X228503820Y-126964502D01*
X228620841Y-127000000D01*
X228503820Y-127035498D01*
X228393506Y-127094463D01*
X228353859Y-127127000D01*
X228271750Y-127127000D01*
X228113000Y-127285750D01*
X228109928Y-127325000D01*
X228122188Y-127449482D01*
X228129929Y-127475000D01*
X228122188Y-127500518D01*
X228109928Y-127625000D01*
X228109928Y-128275000D01*
X228122188Y-128399482D01*
X228158498Y-128519180D01*
X228164282Y-128530000D01*
X227660175Y-128530000D01*
X227623134Y-128484866D01*
X227397014Y-128299294D01*
X227332477Y-128264799D01*
X227449355Y-128195178D01*
X227665588Y-128000269D01*
X227839641Y-127766920D01*
X227964825Y-127504099D01*
X228009476Y-127356890D01*
X227888155Y-127127000D01*
X226695000Y-127127000D01*
X226695000Y-127147000D01*
X226441000Y-127147000D01*
X226441000Y-127127000D01*
X226421000Y-127127000D01*
X226421000Y-126873000D01*
X226441000Y-126873000D01*
X226441000Y-126853000D01*
X226695000Y-126853000D01*
X226695000Y-126873000D01*
X227888155Y-126873000D01*
X228009476Y-126643110D01*
X227964825Y-126495901D01*
X227839641Y-126233080D01*
X227665588Y-125999731D01*
X227581534Y-125923966D01*
X227662180Y-125899502D01*
X227772494Y-125840537D01*
X227869185Y-125761185D01*
X227948537Y-125664494D01*
X228007502Y-125554180D01*
X228033038Y-125470000D01*
X228164282Y-125470000D01*
X228158498Y-125480820D01*
X228158498Y-125480820D01*
G37*
X228158498Y-125480820D02*
X228122188Y-125600518D01*
X228109928Y-125725000D01*
X228109928Y-126375000D01*
X228122188Y-126499482D01*
X228129929Y-126525000D01*
X228122188Y-126550518D01*
X228109928Y-126675000D01*
X228113000Y-126714250D01*
X228271750Y-126873000D01*
X228353859Y-126873000D01*
X228393506Y-126905537D01*
X228503820Y-126964502D01*
X228620841Y-127000000D01*
X228503820Y-127035498D01*
X228393506Y-127094463D01*
X228353859Y-127127000D01*
X228271750Y-127127000D01*
X228113000Y-127285750D01*
X228109928Y-127325000D01*
X228122188Y-127449482D01*
X228129929Y-127475000D01*
X228122188Y-127500518D01*
X228109928Y-127625000D01*
X228109928Y-128275000D01*
X228122188Y-128399482D01*
X228158498Y-128519180D01*
X228164282Y-128530000D01*
X227660175Y-128530000D01*
X227623134Y-128484866D01*
X227397014Y-128299294D01*
X227332477Y-128264799D01*
X227449355Y-128195178D01*
X227665588Y-128000269D01*
X227839641Y-127766920D01*
X227964825Y-127504099D01*
X228009476Y-127356890D01*
X227888155Y-127127000D01*
X226695000Y-127127000D01*
X226695000Y-127147000D01*
X226441000Y-127147000D01*
X226441000Y-127127000D01*
X226421000Y-127127000D01*
X226421000Y-126873000D01*
X226441000Y-126873000D01*
X226441000Y-126853000D01*
X226695000Y-126853000D01*
X226695000Y-126873000D01*
X227888155Y-126873000D01*
X228009476Y-126643110D01*
X227964825Y-126495901D01*
X227839641Y-126233080D01*
X227665588Y-125999731D01*
X227581534Y-125923966D01*
X227662180Y-125899502D01*
X227772494Y-125840537D01*
X227869185Y-125761185D01*
X227948537Y-125664494D01*
X228007502Y-125554180D01*
X228033038Y-125470000D01*
X228164282Y-125470000D01*
X228158498Y-125480820D01*
G36*
X232886815Y-123158815D02*
G01*
X232807463Y-123255506D01*
X232748498Y-123365820D01*
X232722962Y-123450000D01*
X232042608Y-123450000D01*
X231993000Y-123445114D01*
X231795005Y-123464615D01*
X231633877Y-123513493D01*
X231604620Y-123522368D01*
X231429160Y-123616153D01*
X231275367Y-123742367D01*
X231243739Y-123780906D01*
X230798901Y-124225744D01*
X230760368Y-124257367D01*
X230728745Y-124295900D01*
X230728744Y-124295901D01*
X230634154Y-124411160D01*
X230540368Y-124586621D01*
X230482615Y-124777006D01*
X230463114Y-124975000D01*
X230468001Y-125024617D01*
X230468001Y-125308925D01*
X230417463Y-125370506D01*
X230378000Y-125444335D01*
X230338537Y-125370506D01*
X230288000Y-125308926D01*
X230288000Y-125024608D01*
X230292886Y-124975000D01*
X230273385Y-124777005D01*
X230215632Y-124586620D01*
X230147952Y-124460000D01*
X230121847Y-124411160D01*
X229995633Y-124257367D01*
X229957094Y-124225739D01*
X229512261Y-123780906D01*
X229480633Y-123742367D01*
X229326840Y-123616153D01*
X229151380Y-123522368D01*
X228960994Y-123464615D01*
X228812608Y-123450000D01*
X228763000Y-123445114D01*
X228713392Y-123450000D01*
X228033038Y-123450000D01*
X228007502Y-123365820D01*
X227948537Y-123255506D01*
X227869185Y-123158815D01*
X227825544Y-123123000D01*
X232930456Y-123123000D01*
X232886815Y-123158815D01*
X232886815Y-123158815D01*
G37*
X232886815Y-123158815D02*
X232807463Y-123255506D01*
X232748498Y-123365820D01*
X232722962Y-123450000D01*
X232042608Y-123450000D01*
X231993000Y-123445114D01*
X231795005Y-123464615D01*
X231633877Y-123513493D01*
X231604620Y-123522368D01*
X231429160Y-123616153D01*
X231275367Y-123742367D01*
X231243739Y-123780906D01*
X230798901Y-124225744D01*
X230760368Y-124257367D01*
X230728745Y-124295900D01*
X230728744Y-124295901D01*
X230634154Y-124411160D01*
X230540368Y-124586621D01*
X230482615Y-124777006D01*
X230463114Y-124975000D01*
X230468001Y-125024617D01*
X230468001Y-125308925D01*
X230417463Y-125370506D01*
X230378000Y-125444335D01*
X230338537Y-125370506D01*
X230288000Y-125308926D01*
X230288000Y-125024608D01*
X230292886Y-124975000D01*
X230273385Y-124777005D01*
X230215632Y-124586620D01*
X230147952Y-124460000D01*
X230121847Y-124411160D01*
X229995633Y-124257367D01*
X229957094Y-124225739D01*
X229512261Y-123780906D01*
X229480633Y-123742367D01*
X229326840Y-123616153D01*
X229151380Y-123522368D01*
X228960994Y-123464615D01*
X228812608Y-123450000D01*
X228763000Y-123445114D01*
X228713392Y-123450000D01*
X228033038Y-123450000D01*
X228007502Y-123365820D01*
X227948537Y-123255506D01*
X227869185Y-123158815D01*
X227825544Y-123123000D01*
X232930456Y-123123000D01*
X232886815Y-123158815D01*
M02*
